<svg width="20" height="20" viewBox="0 0 20 20" fill="none" xmlns="http://www.w3.org/2000/svg">
<g id="ant-design:instagram-filled">
<path id="Vector" d="M10.0006 7.39609C8.56699 7.39609 7.39706 8.56601 7.39706 9.99961C7.39706 11.4332 8.56699 12.6031 10.0006 12.6031C11.4342 12.6031 12.6041 11.4332 12.6041 9.99961C12.6041 8.56601 11.4342 7.39609 10.0006 7.39609ZM17.8092 9.99961C17.8092 8.92148 17.8189 7.85312 17.7584 6.77695C17.6978 5.52695 17.4127 4.41757 16.4986 3.50351C15.5826 2.58749 14.4752 2.30429 13.2252 2.24374C12.1471 2.1832 11.0787 2.19296 10.0025 2.19296C8.92441 2.19296 7.85605 2.1832 6.77988 2.24374C5.52988 2.30429 4.4205 2.58945 3.50644 3.50351C2.59042 4.41953 2.30722 5.52695 2.24667 6.77695C2.18613 7.85507 2.19589 8.92343 2.19589 9.99961C2.19589 11.0758 2.18613 12.1461 2.24667 13.2223C2.30722 14.4723 2.59238 15.5816 3.50644 16.4957C4.42246 17.4117 5.52988 17.6949 6.77988 17.7555C7.858 17.816 8.92636 17.8062 10.0025 17.8062C11.0807 17.8062 12.149 17.816 13.2252 17.7555C14.4752 17.6949 15.5846 17.4098 16.4986 16.4957C17.4146 15.5797 17.6978 14.4723 17.7584 13.2223C17.8209 12.1461 17.8092 11.0777 17.8092 9.99961ZM10.0006 14.0055C7.78378 14.0055 5.99472 12.2164 5.99472 9.99961C5.99472 7.78281 7.78378 5.99375 10.0006 5.99375C12.2174 5.99375 14.0064 7.78281 14.0064 9.99961C14.0064 12.2164 12.2174 14.0055 10.0006 14.0055ZM14.1705 6.76523C13.6529 6.76523 13.235 6.34726 13.235 5.82968C13.235 5.3121 13.6529 4.89414 14.1705 4.89414C14.6881 4.89414 15.106 5.3121 15.106 5.82968C15.1062 5.95258 15.0821 6.07431 15.0351 6.18788C14.9882 6.30146 14.9193 6.40465 14.8324 6.49156C14.7455 6.57846 14.6423 6.64737 14.5287 6.69433C14.4151 6.74129 14.2934 6.76538 14.1705 6.76523Z" fill="white"/>
</g>
</svg>
