<svg width="20" height="20" viewBox="0 0 20 20" fill="none" xmlns="http://www.w3.org/2000/svg">
<g id="ci:youtube">
<g id="Group">
<path id="Vector" d="M10.0048 15.8427H9.98817C9.93651 15.8427 4.76734 15.8327 3.46317 15.4785C3.11079 15.3836 2.78952 15.1978 2.53154 14.9396C2.27356 14.6815 2.08791 14.3601 1.99317 14.0077C1.75866 12.6847 1.64541 11.343 1.65484 9.99935C1.64879 8.65353 1.7651 7.30994 2.00234 5.98518C2.09975 5.63216 2.28626 5.3101 2.54397 5.04991C2.80168 4.78972 3.12193 4.60013 3.47401 4.49935C4.74234 4.16602 9.76901 4.16602 9.98234 4.16602H9.99984C10.0523 4.16602 15.2348 4.17602 16.5257 4.53018C17.2415 4.72435 17.8007 5.28352 17.994 5.99935C18.2357 7.32768 18.3498 8.67518 18.3332 10.0252C18.339 11.3694 18.2224 12.7113 17.9848 14.0343C17.8889 14.3864 17.7025 14.7072 17.4442 14.9649C17.1859 15.2227 16.8646 15.4083 16.5123 15.5035C15.2457 15.8393 10.2182 15.8427 10.0048 15.8427ZM8.33817 7.50352L8.33401 12.5035L12.6773 10.0035L8.33817 7.50352Z" fill="white"/>
</g>
</g>
</svg>
