<svg xmlns="http://www.w3.org/2000/svg" xmlns:xlink="http://www.w3.org/1999/xlink" width="1920" height="460" fill="none"><mask id="A" maskUnits="userSpaceOnUse" x="0" y="0" width="1920" height="460" mask-type="alpha"><path fill="#104cba" d="M0 0h1920v460H0z"/></mask><g mask="url(#A)"><path opacity=".05" fill="#104cba" d="M0 0h1920v460H0z"/><g opacity=".1"><path d="M1259.01 150.711l59.73-59.737c-10.62 6.069-20.44 13.313-29.35 21.543l-8.84 8.838c-8.23 8.875-15.47 18.736-21.54 29.356z" fill="url(#B)"/><path d="M1241.19 198.197l125.03-125.049c-3.45.683-6.86 1.517-10.24 2.427l-112.37 112.382c-.95 3.375-1.74 6.789-2.42 10.24z" fill="url(#C)"/><path d="M1238 229.981v1.024L1398.99 70h-1.03l-6.94.152-152.87 152.888-.15 6.941z" fill="url(#D)"/><path d="M1240.5 258.162l185.71-185.735-6.75-1.062-179.98 180.008 1.02 6.789z" fill="url(#E)"/><path d="M1246.57 281.753l203.2-203.219-5.92-1.896-199.14 199.161 1.86 5.955z" fill="url(#F)"/><path d="M1255.41 302.576l215.21-215.243-5.27-2.541-212.52 212.512 2.58 5.272z" fill="url(#G)"/><path d="M1266.48 321.122l222.65-222.676-4.66-3.148-221.1 221.121 3.11 4.703z" fill="url(#H)"/><path d="M1279.64 337.621l225.99-226.014-4.17-3.641-225.5 225.521 3.68 4.134z" fill="url(#I)"/><path d="M1294.73 352.186l225.46-225.483-3.64-4.173-225.99 226.014 4.17 3.642z" fill="url(#J)"/><path d="M1311.8 364.778l221.02-221.046-3.15-4.665-222.57 222.601 4.7 3.11z" fill="url(#K)"/><path d="M1330.95 375.284l212.34-212.36-2.55-5.272-215.06 215.091 5.27 2.541z" fill="url(#L)"/><path d="M1352.49 383.401l198.95-198.934-1.86-5.917-203 203.03 5.91 1.821z" fill="url(#M)"/><path d="M1376.91 388.597l179.69-179.704-1.03-6.789-185.41 185.431 6.75 1.062z" fill="url(#N)"/><path d="M1398 390l7.36-.19 152.45-152.471.19-7.358v-.607l-160.57 160.588c.15 0 .38.038.57.038z" fill="url(#O)"/><path d="M1440.59 384.235l111.65-111.661c.94-3.375 1.78-6.827 2.46-10.278l-124.43 124.442c3.49-.72 6.94-1.555 10.32-2.503z" fill="url(#P)"/><path d="M1536.42 310.237l-58.17 58.182c24.08-13.996 44.18-34.098 58.17-58.182z" fill="url(#Q)"/></g><path opacity=".5" d="M575 20l5.127 19.874L600 45l-19.873 5.127L575 70l-5.127-19.873L550 45l19.873-5.126L575 20z" fill="#913bff"/><path opacity=".5" d="M874 251l3.281 12.719L890 267l-12.719 3.281L874 283l-3.281-12.719L858 267l12.719-3.281L874 251z" fill="#104cba"/><path opacity=".2" d="M1233 378l3.08 11.924L1248 393l-11.92 3.076L1233 408l-3.08-11.924L1218 393l11.92-3.076L1233 378z" fill="#fff"/><path opacity=".1" d="M365 410l3.076 11.924L380 425l-11.924 3.076L365 440l-3.076-11.924L350 425l11.924-3.076L365 410z" fill="#fff"/><path d="M1468 90l4.1 15.899L1488 110l-15.9 4.101L1468 130l-4.1-15.899L1448 110l15.9-4.101L1468 90z" fill="#fff"/><g opacity=".3"><path d="M1664.85 117.243c1.1.219 1.98 1.206 1.98 2.303 0 1.317-1.1 2.304-2.31 2.304a2.32 2.32 0 0 1-2.3-2.304c0-1.097.88-2.084 1.97-2.303v-14.37l-31.92-31.922V18.297h.88v52.325l31.92 31.921v14.7h-.22zm-1.86 2.303a1.49 1.49 0 0 0 1.53 1.536 1.5 1.5 0 0 0 1.54-1.536c0-.658-.44-1.316-1.1-1.426-.11 0-.22-.109-.44-.109s-.33 0-.44.109c-.66.11-1.09.768-1.09 1.426z" fill="url(#R)"/><path d="M1659.04 88.393c-.33.219-.66.329-.99.329a1.97 1.97 0 1 1 0-3.949 1.96 1.96 0 0 1 1.97 1.974c0 .329-.11.768-.33.987l11.63 11.737v31.373c1.1.219 1.98 1.207 1.98 2.304 0 1.316-1.1 2.303-2.31 2.303a2.32 2.32 0 0 1-2.3-2.303c0-1.097.88-2.085 1.97-2.304V99.801l-11.62-11.408zm10.42 44.756c0 .877.66 1.535 1.53 1.535a1.5 1.5 0 0 0 1.54-1.535c0-.659-.44-1.317-1.1-1.427-.11 0-.22-.109-.44-.109-.11 0-.33 0-.44.109-.65.11-1.09.768-1.09 1.427z" fill="url(#S)"/><path d="M1648.29 76.655h12.5l19.86 19.855v18.868c1.09.219 1.97 1.206 1.97 2.303a2.32 2.32 0 0 1-2.3 2.304c-1.32 0-2.31-1.097-2.31-2.304 0-1.097.88-2.084 1.98-2.303V96.73l-19.42-19.306h-12.5l-8.23-8.227V35.19c-1.1-.219-1.97-1.207-1.97-2.304 0-1.316 1.09-2.304 2.3-2.304 1.32 0 2.3 1.097 2.3 2.304s-.88 2.084-1.97 2.304v33.567l7.79 7.898zm30.38 41.026a1.5 1.5 0 0 0 1.54 1.536 1.49 1.49 0 0 0 1.53-1.536c0-.658-.44-1.316-1.09-1.426-.11 0-.22-.109-.44-.109s-.22 0-.44.109c-.66.11-1.1.659-1.1 1.426zm-37.08-84.904a1.49 1.49 0 0 0-1.53-1.536 1.5 1.5 0 0 0-1.54 1.536c0 .658.44 1.316 1.1 1.426.11 0 .22.11.44.11.11 0 .33 0 .44-.11.66-.11 1.09-.768 1.09-1.426z" fill="url(#T)"/><path d="M1830.93 123.934V59.543L1771.69.197l.55-.548 59.57 59.565v64.391l98.94 98.945h69.55v.768h-69.88l-99.49-99.384z" fill="url(#U)"/><path d="M1820.29 99.033l-37.74-37.735c-.33.219-.65.329-.98.329a1.97 1.97 0 1 1 0-3.949c1.09 0 1.97.878 1.97 1.975a1.85 1.85 0 0 1-.33 1.097l36.31 36.309V64.808l-53.2-53.202.55-.549 53.53 53.532v34.444h-.11z" fill="url(#V)"/><path d="M1742.51 60.091l-27.97-27.972h-35.32c-.22.878-.99 1.426-1.86 1.426a1.97 1.97 0 1 1 0-3.949c.98 0 1.75.658 1.86 1.536h35.65l27.97 27.972h15.8l-45.19-45.195.54-.548 46.62 46.621h-18.1v.11z" fill="url(#W)"/><path d="M1744.49 84.883c.33-.219.66-.329.99-.329 1.09 0 1.97.877 1.97 1.975s-.88 1.974-1.97 1.974a1.97 1.97 0 0 1-1.98-1.974 1.85 1.85 0 0 1 .33-1.097l-29.18-29.179h-44.97l-17.01-17.003V15.336h.88V38.92l16.46 16.454h44.97l29.51 29.508z" fill="url(#X)"/><path d="M1896.75 159.914c.87.22 1.53.988 1.53 1.865a1.96 1.96 0 0 1-1.97 1.975 1.97 1.97 0 0 1-1.98-1.975c0-.877.66-1.645 1.54-1.865V85.541l-10.09 10.092v21.719l5.92 5.924v17.88c1.1.22 1.98 1.097 1.98 2.304 0 1.316-1.1 2.304-2.31 2.304a2.32 2.32 0 0 1-2.3-2.304c0-1.207.88-2.084 1.97-2.304v-17.441l-5.92-5.924V95.413l10.97-10.969V64.918l24.46-24.572.55.548-24.35 24.353v94.667zm-6.91-16.344a1.49 1.49 0 0 0 1.53 1.535 1.5 1.5 0 0 0 1.54-1.535c0-.659-.44-1.317-1.1-1.426-.11 0-.22-.11-.44-.11-.11 0-.33 0-.44.11-.65.109-1.09.767-1.09 1.426z" fill="url(#Y)"/><path d="M1871.63 194.797h-58.8c-.22.878-.99 1.536-1.86 1.536a1.97 1.97 0 1 1 0-3.949c.98 0 1.75.658 1.86 1.536h59.13l53.42 53.422h74.92v.877h-75.25l-53.42-53.422z" fill="url(#Z)"/><path d="M1768.4 145.764c-.22.877-.98 1.535-1.86 1.535a1.97 1.97 0 1 1 0-3.949c.88 0 1.64.658 1.86 1.536h10.53l27.65 27.643h44.97l-22.81-22.816c-.33.219-.66.329-1.1.329a1.97 1.97 0 1 1 0-3.949 1.96 1.96 0 0 1 1.97 1.974c0 .329-.11.768-.33.987l24.25 24.243h-47.28l-27.64-27.643h-10.21v.11z" fill="url(#a)"/><path d="M1810.09 165.948l-14.7-14.7c-.33.22-.77.439-1.32.439a2.32 2.32 0 0 1-2.3-2.304c0-1.316.99-2.303 2.3-2.303 1.32 0 2.31 1.097 2.31 2.303 0 .549-.22.988-.44 1.427l14.48 14.37h22.7l-14.26-14.151c-.33.329-.87.439-1.42.439-1.32 0-2.31-1.097-2.31-2.304 0-1.316 1.1-2.304 2.31-2.304a2.32 2.32 0 0 1 2.3 2.304 2.91 2.91 0 0 1-.33 1.316l15.58 15.577h-24.9v-.109zm-14.48-16.674a1.5 1.5 0 0 0-1.54-1.536 1.49 1.49 0 0 0 0 3.072c.22 0 .44-.11.66-.22s.44-.329.66-.548c.11-.22.22-.439.22-.768zm23.36-.22c0-.877-.66-1.535-1.53-1.535a1.5 1.5 0 1 0 0 3.071c.33 0 .55-.11.76-.219.22-.11.44-.329.55-.658.22-.22.22-.439.22-.659z" fill="url(#b)"/><path d="M1884.9 70.732V58.007l13.6-13.492c-.22-.329-.33-.658-.33-.987a1.97 1.97 0 0 1 1.98-1.974c1.09 0 1.97.878 1.97 1.974s-.88 1.974-1.97 1.974c-.33 0-.77-.11-.99-.329l-13.27 13.273v12.066l4.49 4.498V60.969l12.73-12.834c-.22-.329-.33-.658-.33-.987 0-1.097.88-1.974 1.97-1.974a1.97 1.97 0 1 1 0 3.949c-.43 0-.76-.11-.98-.329l-12.62 12.615v17.661c1.1.219 1.98 1.207 1.98 2.304 0 1.316-1.1 2.304-2.31 2.304a2.32 2.32 0 0 1-2.3-2.304c0-1.097.88-2.084 1.97-2.304v-2.962l-5.59-5.375zm4.17 10.531c0 .878.66 1.536 1.53 1.536a1.5 1.5 0 0 0 1.54-1.536c0-.658-.44-1.316-1.1-1.426-.11 0-.22-.11-.44-.11-.11 0-.22 0-.43.11-.55.11-1.1.768-1.1 1.426z" fill="url(#c)"/><path d="M1593 104.079V18.407h.88v85.453l28.41 28.411v36.858c.88.219 1.53.987 1.53 1.864a1.96 1.96 0 1 1-3.94 0c0-.877.65-1.645 1.53-1.864V132.6L1593 104.079z" fill="url(#d)"/><path d="M1746.46 166.606c1.32 0 2.31 1.097 2.31 2.303 0 .549-.11.988-.44 1.317l51.34 51.337h62.41l53.86 53.861h84.36v.877h-84.58l-53.86-53.86h-62.3L1748 170.884c-.33.219-.88.439-1.32.439a2.32 2.32 0 0 1-2.3-2.304c-.22-1.316.88-2.413 2.08-2.413zm-.76 3.62a2.04 2.04 0 0 0 .87.219c.22 0 .55-.11.77-.219.33-.11.55-.439.66-.768.11-.22.11-.329.11-.549a2.06 2.06 0 0 0-.22-.877c-.11-.11-.22-.329-.44-.439s-.55-.219-.88-.219-.65.109-.87.219c-.11 0-.22.11-.22.219-.22.22-.44.658-.44 1.097 0 .658.22 1.097.66 1.317z" fill="url(#e)"/><path d="M1707.41 98.265l-9.43-9.434a1.86 1.86 0 0 1-1.1.329 1.96 1.96 0 1 1 0-3.949 1.97 1.97 0 0 1 1.98 1.975c0 .329-.11.768-.33.987l9.76 9.763v38.503l10.42 10.421h30.72l28.63 28.631c.33-.219.65-.329.98-.329a1.97 1.97 0 1 1 0 3.949c-1.09 0-1.97-.878-1.97-1.975 0-.329.11-.767.33-.987l-28.41-28.411h-30.72l-10.86-10.86V98.265z" fill="url(#f)"/><path d="M1870.31 251.071h-58.91c-.11.988-.87 1.755-1.86 1.755a1.97 1.97 0 1 1 0-3.949c.77 0 1.53.549 1.75 1.207h59.35l41.35 41.355h88.31v.878h-88.63l-41.36-41.246z" fill="url(#g)"/><path d="M1850.13 235.165c.22-1.097 1.2-1.974 2.3-1.974 1.32 0 2.3 1.097 2.3 2.303 0 1.317-1.09 2.304-2.3 2.304-1.1 0-2.08-.877-2.3-1.974h-72.51l29.51 29.617h17.88c.22-1.097 1.2-1.974 2.3-1.974 1.32 0 2.3 1.097 2.3 2.303 0 1.317-1.09 2.304-2.3 2.304-1.1 0-2.08-.878-2.3-1.974h-18.21l-31.16-31.264h74.49v.329zm.87.768c.22.658.77 1.097 1.43 1.097a1.5 1.5 0 1 0 0-3.071c-.66 0-1.32.439-1.43 1.097 0 .109-.11.219-.11.438a.83.83 0 0 1 .11.439zm-25.12 30.386c.11.219.22.548.44.658l.11.11c.22.109.33.219.55.219h.33a1.5 1.5 0 0 0 1.54-1.536c0-.438-.11-.767-.44-1.097l-.22-.219c-.22-.11-.55-.219-.88-.219h-.33c-.11 0-.22 0-.33.109-.11 0-.22.11-.22.11-.11 0-.11.11-.22.219s-.22.33-.33.439c0 .11-.11.11-.11.22s-.11.219-.11.438c.22.33.22.439.22.549z" fill="url(#h)"/><path d="M1738.79 182.841h-16.57c-.22 1.097-1.21 1.974-2.3 1.974-1.32 0-2.31-1.097-2.31-2.303 0-1.317 1.1-2.304 2.31-2.304 1.2 0 2.08.877 2.3 1.974h17l14.15 14.151v11.189l15.14 15.248h12.84c.22-.878.98-1.536 1.86-1.536a1.97 1.97 0 1 1 0 3.949c-.88 0-1.64-.658-1.86-1.536h-13.17l-26.65-26.656h-10.75c-.22 1.097-1.21 1.975-2.31 1.975a2.32 2.32 0 0 1-2.3-2.304 2.32 2.32 0 0 1 2.3-2.303c1.21 0 2.09.877 2.31 1.974h11.08l10.64 10.641v-9.983l-13.71-14.15zm-18.87-1.975a1.5 1.5 0 1 0 0 3.072c.66 0 1.31-.439 1.42-1.097 0-.11.11-.22.11-.439s0-.329-.11-.439c-.11-.548-.65-1.097-1.42-1.097zm8.55 13.931c-.87 0-1.53.659-1.53 1.536s.66 1.536 1.53 1.536c.66 0 1.32-.439 1.43-1.097 0-.11.11-.219.11-.439s0-.219-.11-.439c-.22-.658-.77-1.097-1.43-1.097z" fill="url(#i)"/><path d="M1825.12 200.502c-.22 1.097-1.21 1.974-2.31 1.974a2.32 2.32 0 0 1-2.3-2.303 2.32 2.32 0 0 1 2.3-2.304c1.1 0 2.09.877 2.31 1.974h44.09l10.42 10.421c.33-.219.66-.329.99-.329a1.97 1.97 0 1 1 0 3.949c-1.09 0-1.97-.877-1.97-1.974 0-.439.11-.768.33-.987l-10.2-10.092h-43.66v-.329zm-2.31-1.865c-.87 0-1.53.658-1.53 1.536s.66 1.535 1.53 1.535c.66 0 1.32-.439 1.43-1.097 0-.109.11-.219.11-.438s0-.22-.11-.439c-.22-.658-.77-1.097-1.43-1.097z" fill="url(#j)"/><path d="M1851.77 404.755v-37.626l-26.98-26.985c-.33.219-.66.329-.99.329a1.97 1.97 0 1 1 0-3.949 1.96 1.96 0 0 1 1.97 1.975c0 .329-.11.767-.33.987l27.21 27.204v37.736l38.17 38.174h52.44v.877h-52.77l-38.72-38.722z" fill="url(#k)"/><path d="M1863.51 361.425l-25.01-25.011c-.33.22-.88.439-1.32.439a2.32 2.32 0 0 1-2.3-2.303c0-1.317.99-2.304 2.3-2.304 1.32 0 2.31 1.097 2.31 2.304 0 .548-.11.987-.44 1.316l25.23 25.23v37.296l18.32 18.32c.32-.22.87-.439 1.31-.439 1.32 0 2.31 1.097 2.31 2.303 0 1.317-1.1 2.304-2.31 2.304a2.32 2.32 0 0 1-2.3-2.304c0-.548.11-.987.44-1.316l-18.54-18.539v-37.296zm-24.79-26.875a1.5 1.5 0 0 0-1.54-1.536 1.49 1.49 0 1 0 0 3.071c.22 0 .55-.109.77-.219s.44-.329.55-.549c.22-.329.22-.548.22-.767zm43.77 84.026a1.49 1.49 0 0 0 1.53 1.536 1.5 1.5 0 1 0 0-3.071c-.22 0-.55.109-.77.219a1.3 1.3 0 0 0-.54.549c-.11.219-.22.438-.22.767z" fill="url(#l)"/><path d="M1767.53 242.405c-.33.22-.66.329-.99.329a1.97 1.97 0 1 1 0-3.949 1.96 1.96 0 0 1 1.97 1.975c0 .439-.11.768-.33.987l26.66 26.656v29.399c1.1.219 1.97 1.206 1.97 2.303 0 1.317-1.09 2.304-2.3 2.304-1.32 0-2.3-1.097-2.3-2.304 0-1.097.87-2.084 1.97-2.303v-29.07l-26.65-26.327zm25.34 57.81a1.49 1.49 0 0 0 1.53 1.536 1.5 1.5 0 0 0 1.54-1.536c0-.658-.44-1.316-1.1-1.426-.11 0-.22-.11-.44-.11-.11 0-.22 0-.44.11-.66.11-1.09.768-1.09 1.426z" fill="url(#m)"/><path d="M1928.78 413.092v.877h-33.68l-20.4-20.403c-.33.219-.88.439-1.32.439a2.32 2.32 0 0 1-2.3-2.304c0-1.316 1.1-2.304 2.3-2.304 1.21 0 2.31.988 2.31 2.304 0 .548-.11.987-.44 1.316l20.07 20.075h33.46zm-53.86-21.501a1.5 1.5 0 0 0-1.54-1.535 1.49 1.49 0 0 0 0 3.071c.22 0 .55-.11.77-.219s.44-.329.55-.549c.22-.219.22-.548.22-.768z" fill="#fff"/><path d="M1901.24 313.707h21.61v.878h-21.93l-28.85-28.85h-14.59c-.22.878-.99 1.536-1.87 1.536a1.96 1.96 0 1 1 0-3.949c.88 0 1.65.658 1.87 1.536h14.91l28.85 28.849z" fill="url(#n)"/><path d="M1846.07 278.276h19.74c.22-1.097 1.21-1.975 2.31-1.975a2.32 2.32 0 0 1 2.3 2.304 2.32 2.32 0 0 1-2.3 2.303c-1.1 0-2.09-.877-2.31-1.974h-19.41l-10.75 10.75 16.78 16.784c.33-.22.77-.33 1.21-.33a2.32 2.32 0 0 1 2.3 2.304c0 1.316-1.1 2.304-2.3 2.304-1.32 0-2.31-1.097-2.31-2.304 0-.548.22-.987.55-1.426l-17.33-17.332 11.52-11.408zm22.05 1.974c.87 0 1.53-.658 1.53-1.535s-.66-1.536-1.53-1.536c-.66 0-1.32.439-1.43 1.097 0 .109-.11.219-.11.439 0 .109 0 .219.11.438.22.658.77 1.097 1.43 1.097zm-15.91 28.411a1.5 1.5 0 0 0 1.54 1.536c.87 0 1.53-.658 1.53-1.536s-.66-1.535-1.53-1.535c-.22 0-.44 0-.66.109s-.44.329-.66.549a2.06 2.06 0 0 0-.22.877z" fill="url(#o)"/><path d="M1862.85 326.432v-19.087l-13.71-13.712c-.33.22-.66.329-.99.329-1.09 0-1.97-.877-1.97-1.974s.88-1.975 1.97-1.975a1.97 1.97 0 0 1 1.98 1.975c0 .329-.11.768-.33.987l13.93 14.041v19.087l18.54 18.648v12.396c1.09.219 1.97 1.207 1.97 2.303 0 1.317-1.09 2.304-2.3 2.304-1.32 0-2.31-1.097-2.31-2.304s.88-2.084 1.98-2.303V345.08l-18.76-18.648zm17.44 32.909a1.5 1.5 0 0 0 1.54 1.535 1.49 1.49 0 0 0 1.53-1.535c0-.658-.43-1.317-1.09-1.426-.11 0-.22-.11-.44-.11-.11 0-.33 0-.44.11-.55.219-1.1.768-1.1 1.426z" fill="url(#p)"/><path d="M1867.79 323.58v-19.526l-7.68-7.788c-.44.219-.88.439-1.32.439a2.32 2.32 0 0 1-2.3-2.304c0-1.316 1.1-2.304 2.3-2.304 1.32 0 2.31 1.097 2.31 2.304 0 .549-.11.987-.44 1.316l8.01 8.008v19.526l19.74 19.745v24.901c1.1.219 1.97 1.097 1.97 2.304 0 1.316-1.09 2.303-2.3 2.303s-2.3-1.097-2.3-2.303c0-1.097.88-2.085 1.97-2.304v-24.572l-19.96-19.745zm-7.46-29.179a1.5 1.5 0 0 0-1.54-1.536 1.49 1.49 0 0 0 0 3.072c.22 0 .55-.11.77-.22a1.32 1.32 0 0 0 .55-.548c.11-.329.22-.549.22-.768zm26.11 75.8a1.49 1.49 0 0 0 1.53 1.535 1.5 1.5 0 0 0 1.54-1.535c0-.659-.44-1.317-1.1-1.426-.11 0-.22-.11-.44-.11-.11 0-.33 0-.44.11-.66.109-1.09.767-1.09 1.426z" fill="url(#q)"/><path d="M1904.86 35.739c.88.219 1.54.987 1.54 1.865 0 1.097-.88 1.974-1.97 1.974a1.97 1.97 0 0 1-1.98-1.974c0-.878.66-1.645 1.54-1.865v-5.375l-6.04-6.033H1886c-.22 1.097-1.21 1.974-2.31 1.974-1.31 0-2.3-.987-2.3-2.304a2.32 2.32 0 0 1 2.3-2.304c1.1 0 2.09.878 2.31 1.974h12.28l6.58 6.582v5.485zm-21.17-13.383c-.87 0-1.53.658-1.53 1.536s.66 1.536 1.53 1.536c.66 0 1.32-.439 1.43-1.097 0-.11.11-.219.11-.439 0-.11 0-.219-.11-.439-.11-.658-.77-1.097-1.43-1.097z" fill="url(#r)"/><path d="M1787.93 321.057c1.32 0 2.3 1.097 2.3 2.304 0 .548-.11.987-.44 1.316l46.51 46.511v38.064l50.03 50.021h56.93v.878H1886l-50.46-50.46v-38.174l-46.29-46.182c-.44.22-.88.439-1.32.439-1.32 0-2.3-1.097-2.3-2.304s.98-2.413 2.3-2.413zm0 3.839c.22 0 .55-.109.77-.219s.44-.329.55-.549c.1-.219.21-.438.21-.767a1.49 1.49 0 0 0-1.53-1.536 1.5 1.5 0 1 0 0 3.071z" fill="url(#s)"/><path d="M1816.45 132.71a2.32 2.32 0 0 1-2.3 2.303c-1.32 0-2.31-1.097-2.31-2.303 0-.549.11-.988.44-1.317l-54.52-54.518c-.33.219-.66.219-.98.219a1.97 1.97 0 1 1 0-3.949c1.09 0 1.97.878 1.97 1.975a1.85 1.85 0 0 1-.33 1.097l54.3 54.629c.33-.22.88-.439 1.32-.439 1.31 0 2.41.987 2.41 2.304zm-3.73-.768c-.11.219-.22.439-.22.768a1.5 1.5 0 0 0 1.54 1.535c.87 0 1.53-.658 1.53-1.535s-.66-1.536-1.53-1.536c-.22 0-.55.11-.77.219l-.55.549z" fill="url(#t)"/><path d="M1757.87 96.949a2.32 2.32 0 0 1-2.3-2.304 2.32 2.32 0 0 1 2.3-2.304c1.32 0 2.31 1.097 2.31 2.304 0 .439-.11.987-.44 1.316l41.46 41.465h-35.32c-.22 1.097-1.21 1.974-2.3 1.974a2.25 2.25 0 0 1-2.31-2.303c0-1.317 1.1-2.304 2.31-2.304 1.2 0 2.08.878 2.3 1.974h33.35l-40.04-40.038c-.33 0-.77.219-1.32.219zm5.71 38.503a1.5 1.5 0 1 0 0 3.072c.65 0 1.31-.439 1.42-1.097 0-.11.11-.22.11-.439s0-.329-.11-.439c-.11-.658-.66-1.097-1.42-1.097zm-4.17-40.916a1.5 1.5 0 0 0-1.54-1.536 1.49 1.49 0 1 0 0 3.072c.22 0 .55-.11.77-.219s.44-.329.55-.549.22-.439.22-.768z" fill="url(#u)"/><path d="M1653.88 54.716c0 .548-.11.987-.44 1.316l15.91 15.906h40.7l32.47 32.47c.32-.219.65-.329.98-.329a1.97 1.97 0 1 1 0 3.949c-1.09 0-1.97-.877-1.97-1.974a1.85 1.85 0 0 1 .33-1.097l-32.25-32.251h-40.59l-16.13-16.125c-.43.219-.87.439-1.31.439-1.32 0-2.31-1.097-2.31-2.304s1.1-2.304 2.31-2.304c1.2-.11 2.3.987 2.3 2.304zm-2.3-1.536a1.5 1.5 0 0 0-1.54 1.536 1.5 1.5 0 0 0 1.54 1.536c.22 0 .55-.11.77-.219a1.36 1.36 0 0 0 .54-.548c.11-.219.22-.439.22-.768-.11-.878-.76-1.536-1.53-1.536z" fill="url(#v)"/><path d="M1633.7 193.7v-34.115l7.24-7.349v-25.779l-7.02-7.02v-4.388l-18.65-18.649c-.33.219-.88.439-1.32.439a2.32 2.32 0 0 1-2.3-2.304 2.32 2.32 0 0 1 2.3-2.304c1.32 0 2.31 1.097 2.31 2.304 0 .439-.11.987-.44 1.316l5.15 5.156v-9.544l-11.74-11.737V49.89l5.93-5.924V18.407h.88v58.029l34 34.006v78.432c1.1.219 1.98 1.207 1.98 2.303a2.25 2.25 0 0 1-2.31 2.304 2.32 2.32 0 0 1-2.3-2.304c0-1.206.88-2.084 1.97-2.303v-78.103l-34-34.006V45.063l-5.16 5.156v29.069l11.63 11.957v10.64l12.83 12.835v4.387l6.26 6.253v-12.395l-9.66-9.544c-.33.219-.87.439-1.31.439-1.32 0-2.31-1.097-2.31-2.304a2.25 2.25 0 0 1 2.31-2.303 2.32 2.32 0 0 1 2.3 2.303c0 .549-.11.987-.44 1.317l9.87 9.872v39.929l-7.24 7.35v33.786c1.1.22 1.98 1.207 1.98 2.304a2.32 2.32 0 0 1-2.3 2.303c-1.21 0-2.31-.987-2.31-2.303-.11-1.317.77-2.304 1.87-2.414zm-18.21-99.164a1.5 1.5 0 0 0-1.54-1.536 1.49 1.49 0 1 0 0 3.072c.22 0 .55-.11.77-.219s.44-.329.55-.549c.22-.219.22-.439.22-.768zm32.58 96.641c0 .878.66 1.536 1.53 1.536a1.5 1.5 0 0 0 1.54-1.536c0-.658-.44-1.316-1.1-1.426-.11 0-.22-.109-.44-.109s-.22 0-.44.109c-.65.11-1.09.659-1.09 1.426zm-16.57-89.73c0-.878-.66-1.536-1.53-1.536a1.5 1.5 0 1 0 0 3.071c.22 0 .55-.109.77-.219a1.36 1.36 0 0 0 .54-.549c.22-.219.22-.438.22-.767zm2.64 95.983c.87 0 1.53-.658 1.53-1.536 0-.658-.44-1.316-1.1-1.426-.11 0-.21-.109-.43-.109-.11 0-.33 0-.44.109-.66.22-1.1.768-1.1 1.426a1.5 1.5 0 0 0 1.54 1.536z" fill="url(#w)"/><path d="M1639.4 206.425v-40.368l3.18-3.181c-.22-.329-.33-.658-.33-.987a1.97 1.97 0 0 1 1.98-1.975 1.96 1.96 0 1 1 0 3.949c-.44 0-.77-.109-.99-.329l-2.96 2.962v40.039c1.1.219 1.97 1.207 1.97 2.303 0 1.317-1.09 2.304-2.3 2.304-1.32 0-2.3-1.097-2.3-2.304-.22-1.206.65-2.193 1.75-2.413zm.44 3.84a1.5 1.5 0 0 0 1.54-1.536c0-.658-.44-1.317-1.1-1.426-.11 0-.22-.11-.44-.11s-.22 0-.44.11c-.66.109-1.1.768-1.1 1.426a1.5 1.5 0 0 0 1.54 1.536z" fill="url(#x)"/><path d="M1851.22 109.125a2.32 2.32 0 0 1-2.3-2.303c0-1.097.88-2.085 1.97-2.304V3.598h.88v100.92c1.1.219 1.98 1.207 1.98 2.304-.11 1.316-1.21 2.303-2.53 2.303zm.44-3.729c-.11 0-.22-.11-.44-.11-.11 0-.33 0-.44.11-.65.219-1.09.767-1.09 1.426 0 .877.66 1.535 1.53 1.535a1.5 1.5 0 0 0 1.54-1.535c0-.659-.44-1.317-1.1-1.426z" fill="url(#y)"/><path d="M1864.06 32.777v21.829l-7.68 7.679v28.74l5.15 5.156v43.001c1.1.219 1.98 1.206 1.98 2.303a2.32 2.32 0 0 1-2.3 2.304c-1.32 0-2.31-1.097-2.31-2.304 0-1.097.88-2.084 1.98-2.303V96.51l-5.16-5.156V61.956l7.68-7.679v-21.5c-1.1-.219-1.97-1.097-1.97-2.304 0-1.316 1.09-2.304 2.3-2.304a2.32 2.32 0 0 1 2.3 2.304c-.11 1.097-.88 2.084-1.97 2.304zm-4.5 108.708a1.5 1.5 0 0 0 1.54 1.536c.87 0 1.53-.658 1.53-1.536 0-.658-.44-1.316-1.1-1.426-.1 0-.21-.109-.43-.109s-.22 0-.44.109c-.55.11-1.1.768-1.1 1.426zm4.06-112.547a1.5 1.5 0 0 0-1.54 1.536c0 .658.44 1.316 1.1 1.426.11 0 .22.11.44.11.11 0 .33 0 .44-.11.66-.219 1.09-.768 1.09-1.426 0-.878-.76-1.536-1.53-1.536z" fill="url(#z)"/><path d="M1908.7 38.043c-.98 0-1.86-.878-1.86-1.865 0-.877.66-1.645 1.54-1.865v-5.046l-5.71-5.704a1.86 1.86 0 0 1-1.1.329c-1.09 0-1.86-.878-1.86-1.865 0-1.097.88-1.865 1.86-1.865a1.85 1.85 0 0 1 1.87 1.865c0 .329-.11.658-.33.987l5.92 5.924v5.375c.88.219 1.54.987 1.54 1.865a1.85 1.85 0 0 1-1.87 1.865zm-5.92-16.125a1.22 1.22 0 0 0-1.21-1.207 1.22 1.22 0 0 0-1.2 1.207 1.22 1.22 0 0 0 1.2 1.207c.22 0 .33 0 .55-.11s.44-.329.55-.549c.11-.11.11-.329.11-.548zm6.36 13.054c-.11 0-.22-.11-.44-.11-.11 0-.21 0-.43.11-.44.11-.88.658-.88 1.097a1.22 1.22 0 0 0 1.2 1.207 1.22 1.22 0 0 0 1.21-1.207c.11-.548-.22-.987-.66-1.097z" fill="url(#AA)"/><path d="M1738.35 27.292c1.2 0 2.08.877 2.3 1.974h29.73l27.97 27.972c.33-.219.88-.439 1.32-.439 1.31 0 2.3.987 2.3 2.304a2.32 2.32 0 0 1-2.3 2.304c-1.32 0-2.31-1.097-2.31-2.304 0-.548.11-.987.44-1.316l-27.86-27.753h-29.29c-.22 1.097-1.21 1.974-2.3 1.974-1.32 0-2.31-1.097-2.31-2.304 0-1.316.99-2.413 2.31-2.413zm59.67 31.812a1.5 1.5 0 0 0 1.54 1.536c.87 0 1.53-.658 1.53-1.536s-.66-1.536-1.53-1.536c-.22 0-.55.11-.77.219s-.44.329-.55.549-.22.548-.22.768zm-59.67-27.972c.65 0 1.31-.439 1.42-1.097 0-.11.11-.219.11-.439 0-.11 0-.329-.11-.439-.22-.658-.77-1.097-1.42-1.097a1.5 1.5 0 0 0-1.54 1.536 1.5 1.5 0 0 0 1.54 1.536z" fill="url(#AB)"/><path d="M1810.96 107.919c1.32 0 2.31 1.097 2.31 2.303a2.25 2.25 0 0 1-2.31 2.304 2.32 2.32 0 0 1-2.3-2.304c0-.439.11-.987.44-1.316l-38.17-37.955c-.33.219-.88.439-1.32.439a2.24 2.24 0 0 1-2.3-2.304c0-1.316 1.09-2.304 2.3-2.304a2.24 2.24 0 0 1 2.3 2.304c0 .439-.11.987-.44 1.316l38.07 38.064c.44-.329.88-.548 1.42-.548zm-39.81-38.942a1.5 1.5 0 1 0-3.08 0 1.5 1.5 0 0 0 1.54 1.536c.22 0 .55-.11.77-.219s.44-.329.55-.549.22-.549.22-.768zm38.28 41.355c0 .877.66 1.536 1.53 1.536a1.5 1.5 0 1 0 0-3.072c-.21 0-.54.11-.76.22a1.32 1.32 0 0 0-.55.548c-.11.219-.22.439-.22.768z" fill="url(#AC)"/><path d="M1656.29 202.476v-29.727l7.79-7.789v-14.699c-1.09-.219-1.86-1.207-1.86-2.304a2.32 2.32 0 0 1 2.3-2.303c1.32 0 2.31 1.097 2.31 2.303 0 1.097-.88 2.085-1.98 2.304v15.028l-7.79 7.789v9.324l13.5-13.493V150.48l9.21-9.214v-11.079c-1.1-.22-1.97-1.207-1.97-2.304 0-1.316 1.09-2.304 2.3-2.304 1.32 0 2.3 1.097 2.3 2.304 0 1.097-.88 2.084-1.97 2.304v11.408l-9.22 9.214v18.429l-14.37 14.37v18.868c.88.219 1.54.987 1.54 1.865a1.97 1.97 0 0 1-1.98 1.974c-1.09 0-1.97-.877-1.97-1.974.33-.878.99-1.646 1.86-1.865zm9.77-54.519a1.5 1.5 0 0 0-1.54-1.535 1.49 1.49 0 0 0-1.53 1.535c0 .659.43 1.317 1.09 1.426.11.11.33.11.44.11s.22 0 .33-.11c.66-.109 1.21-.658 1.21-1.426zm15.57-20.074a1.49 1.49 0 0 0-1.53-1.536 1.5 1.5 0 0 0-1.54 1.536c0 .658.44 1.316 1.1 1.426.11 0 .22.11.44.11s.33 0 .44-.11c.66-.11 1.09-.658 1.09-1.426z" fill="url(#AD)"/><path d="M1684.82 227.158V200.94l21.39-21.39v-18.21c-1.1-.219-1.98-1.206-1.98-2.303a2.32 2.32 0 0 1 2.3-2.304c1.32 0 2.31 1.097 2.31 2.304 0 1.097-.88 2.084-1.98 2.303v18.539l-21.39 21.391v25.778c.88.219 1.54.987 1.54 1.865a1.97 1.97 0 0 1-1.98 1.974c-1.09 0-1.97-.877-1.97-1.974.33-.768.99-1.536 1.76-1.755zm23.36-68.012a1.5 1.5 0 0 0-1.54-1.535c-.87 0-1.53.658-1.53 1.535 0 .659.44 1.317 1.1 1.426.11 0 .22.11.43.11.11 0 .33 0 .44-.11.66-.109 1.1-.767 1.1-1.426z" fill="url(#AE)"/><path d="M1738.35 24.769a1.97 1.97 0 1 1 0-3.949c.87 0 1.64.658 1.86 1.536h22.49l-8.34-8.337.55-.548 9.65 9.653h-24.57c0 .987-.77 1.645-1.64 1.645z" fill="url(#AF)"/><path d="M1656.29 137.975v-30.276l-33.34-33.347V46.928c-.88-.219-1.54-.987-1.54-1.865a1.97 1.97 0 0 1 1.98-1.974c1.09 0 1.97.877 1.97 1.974 0 .877-.66 1.645-1.54 1.865v27.095l33.35 33.347v30.605c.88.22 1.54.987 1.54 1.865a1.97 1.97 0 0 1-1.98 1.974c-1.09 0-1.97-.877-1.97-1.974 0-.878.66-1.645 1.53-1.865z" fill="url(#AG)"/><path d="M1874.04 139.621a1.96 1.96 0 0 1-1.97-1.975c0-.878.54-1.645 1.42-1.865V3.598h.88v132.293c.88.11 1.64.987 1.64 1.865-.11 1.097-.98 1.865-1.97 1.865z" fill="url(#AH)"/><path d="M1823.25 209.826c-.88 0-1.64-.658-1.86-1.536h-13.94l-23.14-23.146h54.41c.22-1.097 1.2-1.974 2.3-1.974 1.32 0 2.31 1.097 2.31 2.303 0 1.317-1.1 2.304-2.31 2.304s-2.08-.878-2.3-1.975h-52.44l21.5 21.501h13.61c.22-.878.98-1.536 1.86-1.536a1.97 1.97 0 0 1 1.98 1.974c0 1.097-.88 2.085-1.98 2.085zm17.77-22.817a1.5 1.5 0 1 0 0-3.071c-.66 0-1.31.438-1.42 1.096 0 .11-.11.22-.11.439s0 .22.11.439c.11.658.76 1.097 1.42 1.097z" fill="url(#AI)"/><path d="M1818.1 296.595a1.97 1.97 0 1 1 0-3.949c1.09 0 1.97.877 1.97 1.974 0 .329-.11.549-.22.878l56.27 56.274v19.855l21.07 21.171h31.59v.877h-31.92l-21.61-21.61v-19.854l-55.95-55.945c-.33.11-.77.329-1.2.329z" fill="url(#AJ)"/><path d="M1718.27 228.364c.88 0 1.65.658 1.87 1.536h19.85l9.33 9.324c.33-.219.87-.439 1.31-.439 1.32 0 2.31 1.097 2.31 2.304a2.25 2.25 0 0 1-2.31 2.304c-1.31 0-2.3-.988-2.3-2.304 0-.549.11-.987.44-1.316l-9-8.995h-19.52c-.22.877-.99 1.535-1.87 1.535a1.96 1.96 0 0 1-1.97-1.974c0-1.097.77-1.975 1.86-1.975zm30.83 12.725a1.49 1.49 0 0 0 1.53 1.536 1.5 1.5 0 1 0 0-3.072c-.22 0-.55.11-.77.22a1.36 1.36 0 0 0-.54.548c-.11.329-.22.549-.22.768z" fill="url(#AK)"/><path d="M1806.8 283.102c-1.32 0-2.31-1.097-2.31-2.303 0-1.317 1.1-2.304 2.31-2.304 1.09 0 2.08.768 2.3 1.865h24.24l14.04-14.041h17.66l40.15 40.148h17.66v.878h-18.2l-40.15-40.149h-17.01l-14.04 14.042h-24.46c-.11.987-1.1 1.864-2.19 1.864zm0-3.839a1.5 1.5 0 1 0 0 3.071c.65 0 1.31-.548 1.42-1.206v-.329c0-.11 0-.329-.11-.439-.11-.658-.66-1.097-1.31-1.097z" fill="url(#AL)"/><path d="M1706.64 203.792c1.1 0 2.09.878 2.31 1.975h30.27l15.25 15.248c.33-.22.88-.439 1.32-.439 1.31 0 2.3.987 2.3 2.304a2.32 2.32 0 0 1-2.3 2.303 2.25 2.25 0 0 1-2.31-2.303c0-.439.11-.988.44-1.317l-15.02-15.028h-29.84c-.22 1.097-1.21 1.974-2.31 1.974a2.32 2.32 0 0 1-2.3-2.303c-.11-1.317.88-2.414 2.19-2.414zm47.61 19.088a1.5 1.5 0 0 0 1.54 1.535 1.49 1.49 0 0 0 0-3.071c-.22 0-.55.109-.77.219s-.44.329-.55.549c-.11.329-.22.548-.22.768zm-47.61-15.248c.66 0 1.32-.439 1.43-1.097 0-.11.11-.22.11-.439 0-.11 0-.329-.11-.439-.22-.658-.77-1.097-1.43-1.097-.87 0-1.53.659-1.53 1.536s.77 1.536 1.53 1.536z" fill="url(#AM)"/><path d="M1724.63 235.714c1.1 0 2.09.877 2.31 1.974h9.1l18.98 18.978h11.63l-7.13-7.13c-.33.219-.66.329-.99.329a1.96 1.96 0 1 1 0-3.949 1.97 1.97 0 0 1 1.98 1.974 1.85 1.85 0 0 1-.33 1.097l22.15 22.159v27.314l23.92 23.913V294.73c-1.1-.219-1.98-1.207-1.98-2.304 0-1.316 1.1-2.303 2.31-2.303a2.32 2.32 0 0 1 2.3 2.303c0 1.097-.88 2.085-1.97 2.304v29.618l-25.56-25.559v-27.314l-14.04-13.932h-12.84l-18.98-18.977h-8.77c-.22 1.097-1.21 1.974-2.3 1.974a2.32 2.32 0 0 1-2.31-2.303c.22-1.426 1.21-2.523 2.52-2.523zm83.59 56.712c0-.877-.66-1.535-1.53-1.535a1.5 1.5 0 0 0-1.54 1.535c0 .659.44 1.317 1.1 1.427.11 0 .22.109.44.109.11 0 .22 0 .44-.109.65-.11 1.09-.768 1.09-1.427zm-83.59-52.873c.66 0 1.32-.439 1.43-1.097 0-.109.11-.219.11-.439 0-.109 0-.219-.11-.438-.11-.658-.77-1.097-1.43-1.097-.87 0-1.53.658-1.53 1.535s.66 1.536 1.53 1.536z" fill="url(#AN)"/><path d="M1673.52 212.239v-15.138l20.62-20.623V103.75c-1.1-.219-1.98-1.207-1.98-2.304a2.25 2.25 0 0 1 2.31-2.303 2.32 2.32 0 0 1 2.3 2.303c0 1.207-.88 2.085-1.97 2.304v73.057l-20.63 20.623v14.699c1.1.22 1.98 1.207 1.98 2.304 0 1.316-1.1 2.304-2.3 2.304a2.25 2.25 0 0 1-2.31-2.304c0-1.097.88-1.975 1.98-2.194zM1696 101.446a1.49 1.49 0 0 0-1.53-1.535 1.5 1.5 0 0 0-1.54 1.535c0 .659.44 1.317 1.1 1.427.11 0 .22.109.44.109.11 0 .33 0 .44-.109.66-.11 1.09-.659 1.09-1.427zm-22.15 114.632c.87 0 1.53-.658 1.53-1.535 0-.659-.44-1.317-1.1-1.426-.11 0-.22-.11-.43-.11-.11 0-.33 0-.44.11-.66.219-1.1.767-1.1 1.426.11.767.77 1.535 1.54 1.535z" fill="url(#AO)"/></g><g opacity=".3"><path d="M255.449 342.557c-1.097-.219-1.975-1.206-1.975-2.303 0-1.317 1.097-2.304 2.304-2.304 1.316 0 2.303 1.097 2.303 2.304 0 1.097-.877 2.084-1.974 2.303v14.37l31.921 31.922v52.654h-.877v-52.325l-31.922-31.921v-14.7h.22zm1.864-2.303c0-.878-.658-1.536-1.535-1.536s-1.536.658-1.536 1.536c0 .658.439 1.316 1.097 1.426.11 0 .219.109.439.109s.329 0 .439-.109c.658-.11 1.096-.768 1.096-1.426z" fill="url(#AP)"/><path d="M261.263 371.407c.329-.219.658-.329.987-.329 1.097 0 1.975.878 1.975 1.975s-.878 1.974-1.975 1.974-1.974-.877-1.974-1.974c0-.329.109-.768.329-.988l-11.628-11.737v-31.373c-1.097-.219-1.975-1.207-1.975-2.304 0-1.316 1.097-2.303 2.304-2.303 1.316 0 2.304 1.097 2.304 2.303 0 1.097-.878 2.085-1.975 2.304v31.044l11.628 11.408zm-10.421-44.756c0-.877-.658-1.535-1.536-1.535s-1.536.658-1.536 1.535c0 .659.439 1.317 1.097 1.427.11 0 .22.109.439.109.11 0 .329 0 .439-.109.658-.11 1.097-.768 1.097-1.427z" fill="url(#AQ)"/><path d="M272.013 383.145h-12.505l-19.855-19.855v-18.868c-1.097-.219-1.975-1.206-1.975-2.303 0-1.317 1.097-2.304 2.304-2.304 1.316 0 2.303 1.097 2.303 2.304 0 1.097-.877 2.084-1.974 2.303v18.648l19.416 19.307h12.505l8.227 8.227v34.006c1.097.219 1.975 1.206 1.975 2.303 0 1.317-1.097 2.304-2.304 2.304-1.316 0-2.303-1.097-2.303-2.304s.877-2.084 1.974-2.303v-33.567l-7.788-7.898zm-30.386-41.026c0-.878-.658-1.536-1.535-1.536s-1.536.658-1.536 1.536c0 .658.439 1.316 1.097 1.426.109 0 .219.109.439.109s.219 0 .438-.109c.659-.11 1.097-.659 1.097-1.426zm37.077 84.904c0 .878.659 1.536 1.536 1.536s1.536-.658 1.536-1.536c0-.658-.439-1.316-1.097-1.426-.11 0-.22-.11-.439-.11-.11 0-.329 0-.439.11-.658.11-1.097.768-1.097 1.426z" fill="url(#AR)"/><path d="M89.37 335.866v64.391l59.235 59.346-.548.548-59.565-59.565v-64.391l-98.945-98.945H-80v-.768h69.876l99.494 99.384z" fill="url(#AS)"/><path d="M100.01 360.767l37.735 37.735c.329-.219.659-.329.988-.329 1.097 0 1.974.878 1.974 1.974s-.877 1.975-1.974 1.975-1.975-.878-1.975-1.975c0-.438.11-.767.329-1.096l-36.309-36.31v32.251l53.202 53.202-.548.549L99.9 395.211v-34.444h.11z" fill="url(#AT)"/><path d="M177.784 399.709l27.973 27.972h35.322c.219-.877.987-1.426 1.865-1.426 1.096 0 1.974.878 1.974 1.975s-.878 1.974-1.975 1.974c-.987 0-1.755-.658-1.864-1.536h-35.651l-27.973-27.972h-15.796l45.195 45.195-.549.548-46.62-46.621h18.099v-.109z" fill="url(#AU)"/><path d="M175.81 374.918c-.329.219-.658.329-.987.329-1.097 0-1.975-.878-1.975-1.975s.878-1.974 1.975-1.974 1.974.877 1.974 1.974c0 .439-.109.768-.329 1.097l29.179 29.179h44.975l17.003 17.003v23.914h-.877V420.88l-16.455-16.454h-44.975l-29.508-29.508z" fill="url(#AV)"/><path d="M23.553 299.886c-.878-.22-1.536-.988-1.536-1.865 0-1.097.878-1.975 1.974-1.975s1.975.878 1.975 1.975c0 .877-.658 1.645-1.536 1.865v74.373l10.092-10.092v-21.719l-5.924-5.924v-17.88c-1.097-.22-1.975-1.097-1.975-2.304 0-1.316 1.097-2.304 2.304-2.304 1.316 0 2.304 1.097 2.304 2.304s-.878 2.084-1.975 2.304v17.441l5.924 5.924v22.378l-10.97 10.969v19.526L-.251 419.454l-.548-.549 24.352-24.352v-94.667zm6.911 16.344c0-.877-.658-1.535-1.536-1.535s-1.536.658-1.536 1.535c0 .659.439 1.317 1.097 1.426.11 0 .219.11.439.11.11 0 .329 0 .439-.11.658-.109 1.097-.767 1.097-1.426z" fill="url(#AW)"/><path d="M48.672 265.003h58.797c.22-.878.987-1.536 1.865-1.536 1.097 0 1.975.877 1.975 1.974s-.878 1.975-1.975 1.975c-.987 0-1.755-.658-1.865-1.536H48.343l-53.422-53.422H-80v-.877h75.251l53.422 53.422z" fill="url(#AX)"/><path d="M151.896 314.036c.219-.877.987-1.535 1.865-1.535 1.097 0 1.974.877 1.974 1.974s-.877 1.975-1.974 1.975c-.878 0-1.646-.658-1.865-1.536h-10.531l-27.643-27.643H68.747l22.817 22.816c.329-.219.658-.329 1.097-.329 1.097 0 1.975.878 1.975 1.975s-.878 1.974-1.975 1.974-1.975-.877-1.975-1.974c0-.329.11-.768.329-.987l-24.243-24.243h47.279l27.643 27.643h10.202v-.11z" fill="url(#AY)"/><path d="M110.212 293.852l14.699 14.7c.329-.22.768-.439 1.316-.439 1.317 0 2.304 1.097 2.304 2.303 0 1.317-.987 2.304-2.304 2.304s-2.303-1.097-2.303-2.304c0-.548.219-.987.439-1.426l-14.48-14.37H87.176l14.26 14.151c.329-.329.878-.439 1.426-.439 1.317 0 2.304 1.097 2.304 2.304 0 1.316-1.097 2.303-2.304 2.303-1.316 0-2.303-1.096-2.303-2.303 0-.439.109-.878.329-1.316l-15.577-15.577h24.901v.109zm14.48 16.674c0 .878.658 1.536 1.535 1.536s1.536-.658 1.536-1.536-.658-1.536-1.536-1.536c-.219 0-.438.11-.658.22s-.438.329-.658.548c-.11.22-.219.439-.219.768zm-23.365.22c0 .877.658 1.535 1.535 1.535s1.536-.658 1.536-1.535-.658-1.536-1.536-1.536c-.329 0-.548.11-.768.219s-.438.329-.548.658c-.219.22-.219.439-.219.659z" fill="url(#AZ)"/><path d="M35.399 389.068v12.725l-13.602 13.492c.219.33.329.659.329.988 0 1.097-.878 1.974-1.975 1.974s-1.975-.877-1.975-1.974.878-1.975 1.975-1.975c.329 0 .768.11.987.329l13.273-13.273v-12.066l-4.497-4.498v14.041L17.19 411.666c.219.329.329.658.329.987 0 1.097-.878 1.974-1.975 1.974s-1.974-.877-1.974-1.974.878-1.975 1.974-1.975c.439 0 .768.11.987.329l12.615-12.615v-17.661c-1.097-.219-1.974-1.206-1.974-2.303 0-1.317 1.097-2.304 2.304-2.304 1.316 0 2.304 1.097 2.304 2.304 0 1.097-.878 2.084-1.974 2.303v2.962l5.594 5.375zm-4.168-10.531c0-.877-.658-1.535-1.536-1.535s-1.536.658-1.536 1.535c0 .659.439 1.317 1.097 1.427.11 0 .219.109.439.109.11 0 .219 0 .439-.109.548-.11 1.097-.768 1.097-1.427z" fill="url(#Aa)"/><path d="M327.3 355.721v85.672h-.878V355.94l-28.411-28.411v-36.858c-.878-.219-1.536-.987-1.536-1.864 0-1.097.878-1.975 1.975-1.975s1.974.878 1.974 1.975c0 .877-.658 1.645-1.536 1.864V327.2l28.412 28.521z" fill="url(#Ab)"/><path d="M173.835 293.194c-1.316 0-2.304-1.097-2.304-2.303 0-.549.11-.988.439-1.317l-51.337-51.337H58.216l-53.86-53.861H-80v-.877H4.575l53.86 53.86h62.307l51.557 51.557c.329-.219.878-.439 1.317-.439 1.316 0 2.303 1.097 2.303 2.304.22 1.316-.877 2.413-2.084 2.413zm.768-3.62c-.219-.109-.549-.219-.878-.219-.219 0-.548.11-.768.219-.329.11-.548.439-.658.768-.109.22-.109.329-.109.549a2.06 2.06 0 0 0 .219.877c.11.11.219.329.439.439a2.06 2.06 0 0 0 .877.219c.329 0 .659-.109.878-.219.11 0 .219-.11.219-.219.22-.22.439-.659.439-1.097 0-.658-.219-1.097-.658-1.317z" fill="url(#Ac)"/><path d="M212.887 361.535l9.434 9.433c.329-.219.658-.329 1.097-.329 1.097 0 1.974.878 1.974 1.975s-.877 1.974-1.974 1.974-1.975-.877-1.975-1.974c0-.329.11-.768.329-.987l-9.763-9.763v-38.503l-10.421-10.421h-30.714l-28.631-28.631c-.329.219-.658.329-.987.329-1.097 0-1.975-.877-1.975-1.974s.878-1.975 1.975-1.975 1.974.878 1.974 1.975c0 .329-.109.767-.329.987l28.411 28.411h30.715l10.86 10.86v38.613z" fill="url(#Ad)"/><path d="M49.989 208.729h58.906c.11-.988.878-1.755 1.865-1.755 1.097 0 1.975.877 1.975 1.974s-.878 1.975-1.975 1.975c-.768 0-1.536-.549-1.755-1.207H49.66L8.304 168.361H-80v-.878H8.634l41.355 41.246z" fill="url(#Ae)"/><path d="M70.173 224.635c-.219 1.097-1.207 1.974-2.304 1.974-1.316 0-2.304-1.097-2.304-2.304 0-1.316 1.097-2.303 2.304-2.303 1.097 0 2.084.877 2.304 1.974h72.509l-29.508-29.617H95.293c-.219 1.097-1.207 1.974-2.304 1.974-1.316 0-2.304-1.097-2.304-2.303 0-1.317 1.097-2.304 2.304-2.304 1.097 0 2.084.877 2.304 1.974h18.21l31.153 31.264H70.173v-.329zm-.878-.768c-.219-.658-.768-1.097-1.426-1.097-.877 0-1.536.658-1.536 1.535s.658 1.536 1.536 1.536c.658 0 1.316-.439 1.426-1.097 0-.109.11-.219.11-.439-.11-.219-.11-.329-.11-.438zm25.12-30.386c-.11-.219-.219-.548-.439-.658l-.11-.11c-.219-.11-.329-.219-.549-.219h-.329c-.877 0-1.536.658-1.536 1.536 0 .438.11.767.439 1.096l.219.22c.219.11.549.219.878.219h.329c.11 0 .219 0 .329-.109.11 0 .219-.11.219-.11.11 0 .11-.11.219-.22s.219-.329.329-.438c0-.11.11-.11.11-.22s.11-.219.11-.438c-.219-.33-.219-.439-.219-.549z" fill="url(#Af)"/><path d="M181.514 276.959h16.564c.219-1.097 1.207-1.974 2.304-1.974 1.316 0 2.303 1.097 2.303 2.303 0 1.317-1.097 2.304-2.303 2.304s-2.085-.877-2.304-1.974h-17.003l-14.15-14.151v-11.189l-15.138-15.248h-12.835c-.219.878-.987 1.536-1.865 1.536-1.097 0-1.974-.878-1.974-1.975s.877-1.974 1.974-1.974c.878 0 1.646.658 1.865 1.536h13.164l26.656 26.656h10.75c.219-1.097 1.206-1.975 2.303-1.975 1.317 0 2.304 1.097 2.304 2.304 0 1.316-1.097 2.303-2.304 2.303s-2.084-.877-2.303-1.974h-11.079l-10.641-10.641v9.983l13.712 14.15zm18.868 1.975c.877 0 1.535-.658 1.535-1.536s-.658-1.536-1.535-1.536c-.659 0-1.317.439-1.426 1.097 0 .11-.11.22-.11.439s0 .329.11.439c.109.548.658 1.097 1.426 1.097zm-8.557-13.931c.878 0 1.536-.659 1.536-1.536s-.658-1.536-1.536-1.536c-.658 0-1.316.439-1.426 1.097 0 .11-.109.219-.109.439a.66.66 0 0 0 .109.439c.22.658.768 1.097 1.426 1.097z" fill="url(#Ag)"/><path d="M95.183 259.298c.219-1.097 1.207-1.974 2.304-1.974 1.316 0 2.304 1.097 2.304 2.303 0 1.317-1.097 2.304-2.304 2.304-1.097 0-2.084-.877-2.304-1.974H51.086l-10.421-10.422c-.329.22-.658.33-.987.33-1.097 0-1.975-.878-1.975-1.975s.878-1.974 1.975-1.974 1.974.877 1.974 1.974c0 .439-.11.768-.329.987l10.202 10.092h43.659v.329zm2.304 1.865c.878 0 1.536-.658 1.536-1.536s-.658-1.535-1.536-1.535c-.658 0-1.316.439-1.426 1.097 0 .109-.11.219-.11.438s0 .22.11.439c.219.658.768 1.097 1.426 1.097z" fill="url(#Ah)"/><path d="M68.528 55.045v37.626l26.985 26.985c.329-.219.658-.329.987-.329 1.097 0 1.975.877 1.975 1.974s-.878 1.975-1.975 1.975-1.975-.878-1.975-1.975c0-.329.11-.767.329-.987L67.65 93.11V55.374L29.476 17.2h-52.434v-.878h52.764l38.723 38.723z" fill="url(#Ai)"/><path d="M56.79 98.375l25.011 25.011c.329-.22.877-.439 1.316-.439 1.316 0 2.304 1.097 2.304 2.303 0 1.317-.987 2.304-2.304 2.304s-2.304-1.097-2.304-2.304c0-.548.11-.987.439-1.316l-25.23-25.23V61.408L37.703 43.088c-.329.219-.878.439-1.316.439-1.316 0-2.304-1.097-2.304-2.304 0-1.316 1.097-2.304 2.304-2.304 1.316 0 2.304 1.097 2.304 2.304 0 .549-.11.987-.439 1.316L56.79 61.079v37.297zm24.791 26.875c0 .878.658 1.536 1.536 1.536s1.536-.658 1.536-1.536-.658-1.535-1.536-1.535c-.219 0-.549.109-.768.219a1.32 1.32 0 0 0-.549.549c-.219.329-.219.548-.219.767zM37.813 41.224c0-.878-.658-1.536-1.536-1.536s-1.536.658-1.536 1.536.658 1.536 1.536 1.536c.219 0 .549-.11.768-.219s.439-.329.548-.549.219-.439.219-.768z" fill="url(#Aj)"/><path d="M152.774 217.395c.329-.22.658-.329.987-.329 1.097 0 1.974.877 1.974 1.974s-.877 1.975-1.974 1.975-1.975-.878-1.975-1.975c0-.439.11-.768.329-.987l-26.656-26.656v-29.399c-1.097-.219-1.974-1.206-1.974-2.303 0-1.317 1.097-2.304 2.303-2.304 1.317 0 2.304 1.097 2.304 2.304 0 1.097-.877 2.084-1.974 2.303v29.07l26.656 26.327zm-25.34-57.81c0-.877-.658-1.536-1.536-1.536a1.5 1.5 0 0 0-1.536 1.536c0 .658.439 1.316 1.097 1.426.11 0 .22.11.439.11.11 0 .22 0 .439-.11.658-.11 1.097-.768 1.097-1.426z" fill="url(#Ak)"/><path d="M-8.479 46.708v-.877h33.677l20.403 20.403c.329-.219.878-.439 1.316-.439 1.316 0 2.304 1.097 2.304 2.304 0 1.316-1.097 2.304-2.304 2.304s-2.304-.987-2.304-2.304c0-.549.11-.987.439-1.316L24.979 46.708H-8.479zm53.861 21.5c0 .878.658 1.536 1.536 1.536s1.536-.658 1.536-1.536-.658-1.536-1.536-1.536c-.219 0-.548.11-.768.219s-.439.329-.549.548c-.219.219-.219.549-.219.768z" fill="#fff"/><path d="M19.055 146.093h-21.61v-.878h21.939l28.85 28.85h14.59c.219-.878.987-1.536 1.865-1.536 1.097 0 1.975.878 1.975 1.975s-.877 1.974-1.975 1.974c-.878 0-1.645-.658-1.865-1.536H47.905l-28.85-28.849z" fill="url(#Al)"/><path d="M74.232 181.524H54.487c-.219 1.097-1.207 1.975-2.304 1.975-1.316 0-2.304-1.097-2.304-2.304 0-1.316 1.097-2.303 2.304-2.303 1.097 0 2.084.877 2.304 1.974h19.416l10.75-10.75-16.783-16.784c-.329.22-.768.33-1.207.33-1.316 0-2.304-1.097-2.304-2.304 0-1.316 1.097-2.304 2.304-2.304 1.316 0 2.304 1.097 2.304 2.304 0 .548-.219.987-.548 1.426l17.332 17.332-11.518 11.408zm-22.049-1.974c-.878 0-1.536.658-1.536 1.535s.658 1.536 1.536 1.536c.658 0 1.316-.439 1.426-1.097 0-.109.11-.219.11-.439 0-.109 0-.219-.11-.438-.219-.659-.768-1.097-1.426-1.097zm15.906-28.411c0-.878-.658-1.536-1.536-1.536s-1.536.658-1.536 1.536.658 1.535 1.536 1.535c.219 0 .439 0 .658-.109s.439-.329.658-.549c.11-.219.219-.548.219-.877z" fill="url(#Am)"/><path d="M57.448 133.368v19.087l13.712 13.712c.329-.22.658-.329.987-.329 1.097 0 1.975.877 1.975 1.974s-.878 1.975-1.975 1.975-1.975-.878-1.975-1.975c0-.329.11-.768.329-.987l-13.931-14.041v-19.087l-18.539-18.648v-12.396c-1.097-.219-1.974-1.207-1.974-2.304 0-1.316 1.097-2.303 2.304-2.303 1.316 0 2.304 1.097 2.304 2.303s-.877 2.085-1.974 2.304v12.067l18.758 18.648zm-17.442-32.909c0-.877-.658-1.535-1.536-1.535s-1.536.658-1.536 1.535c0 .658.439 1.317 1.097 1.426.11 0 .219.11.439.11.11 0 .329 0 .439-.11.548-.219 1.097-.768 1.097-1.426z" fill="url(#An)"/><path d="M52.512 136.22v19.526l7.679 7.788c.439-.219.878-.439 1.316-.439 1.316 0 2.304 1.097 2.304 2.304 0 1.316-1.097 2.304-2.304 2.304-1.316 0-2.304-1.097-2.304-2.304 0-.549.11-.987.439-1.316l-8.008-8.008v-19.526L31.89 116.804V91.903c-1.097-.219-1.975-1.097-1.975-2.304 0-1.316 1.097-2.304 2.304-2.304s2.304 1.097 2.304 2.304c0 1.097-.878 2.084-1.975 2.303v24.572l19.965 19.745zm7.459 29.179c0 .878.658 1.536 1.536 1.536s1.536-.658 1.536-1.536-.658-1.536-1.536-1.536c-.219 0-.548.11-.768.22a1.32 1.32 0 0 0-.548.548c-.11.329-.219.549-.219.768zm-26.107-75.8c0-.878-.658-1.536-1.536-1.536s-1.536.658-1.536 1.536c0 .658.439 1.316 1.097 1.426.11 0 .219.11.439.11.11 0 .329 0 .439-.11.658-.11 1.097-.768 1.097-1.426z" fill="url(#Ao)"/><path d="M15.435 424.061c-.878-.219-1.536-.987-1.536-1.865 0-1.097.878-1.974 1.975-1.974s1.975.877 1.975 1.974c0 .878-.658 1.646-1.536 1.865v5.375l6.033 6.033h11.957c.219-1.097 1.207-1.974 2.304-1.974 1.316 0 2.304.987 2.304 2.304s-1.097 2.303-2.304 2.303c-1.097 0-2.084-.877-2.304-1.974H22.017l-6.582-6.582v-5.485zm21.171 13.383c.878 0 1.536-.658 1.536-1.536s-.658-1.536-1.536-1.536c-.658 0-1.316.439-1.426 1.097 0 .11-.11.22-.11.439 0 .11 0 .22.11.439.11.658.768 1.097 1.426 1.097z" fill="url(#Ap)"/><path d="M132.37 138.743c-1.316 0-2.303-1.097-2.303-2.304 0-.548.11-.987.439-1.316L83.995 88.612V50.548L33.974.527h-56.932v-.878h57.261l50.46 50.46v38.174l46.291 46.182c.439-.22.878-.439 1.316-.439 1.317 0 2.304 1.097 2.304 2.304s-.987 2.413-2.304 2.413zm0-3.839c-.219 0-.548.109-.767.219s-.439.329-.549.548-.219.439-.219.768c0 .878.658 1.536 1.535 1.536s1.536-.658 1.536-1.536-.658-1.535-1.536-1.535z" fill="url(#Aq)"/><path d="M103.85 327.09c0-1.316 1.097-2.303 2.303-2.303 1.317 0 2.304 1.097 2.304 2.303 0 .549-.11.988-.439 1.317l54.519 54.518c.329-.219.658-.219.987-.219 1.097 0 1.975.877 1.975 1.974s-.878 1.975-1.975 1.975-1.975-.878-1.975-1.975a1.85 1.85 0 0 1 .33-1.097l-54.3-54.628c-.329.219-.877.439-1.316.439-1.316 0-2.413-.987-2.413-2.304zm3.729.768c.11-.219.22-.439.22-.768 0-.877-.659-1.535-1.536-1.535s-1.536.658-1.536 1.535.658 1.536 1.536 1.536c.219 0 .548-.11.768-.219l.548-.549z" fill="url(#Ar)"/><path d="M162.427 362.851a2.32 2.32 0 0 1 2.304 2.304c0 1.316-1.097 2.303-2.304 2.303-1.316 0-2.304-1.097-2.304-2.303 0-.439.11-.988.439-1.317l-41.465-41.465h35.322c.22-1.097 1.207-1.974 2.304-1.974 1.316 0 2.303.987 2.303 2.303s-1.097 2.304-2.303 2.304-2.084-.878-2.304-1.975h-33.347l40.039 40.039c.329 0 .767-.219 1.316-.219zm-5.704-38.503c.877 0 1.535-.658 1.535-1.536s-.658-1.536-1.535-1.536c-.658 0-1.317.439-1.426 1.097 0 .11-.11.22-.11.439s0 .329.11.439c.109.658.658 1.097 1.426 1.097zm4.168 40.916c0 .878.658 1.536 1.536 1.536s1.536-.658 1.536-1.536-.659-1.535-1.536-1.535c-.219 0-.549.109-.768.219s-.439.329-.548.548-.22.439-.22.768z" fill="url(#As)"/><path d="M266.418 405.084c0-.549.11-.987.439-1.316l-15.906-15.906h-40.697l-32.47-32.47c-.329.219-.658.329-.987.329-1.097 0-1.975-.878-1.975-1.975s.878-1.974 1.975-1.974 1.974.877 1.974 1.974c0 .439-.109.768-.329 1.097l32.251 32.251h40.587l16.125 16.125c.439-.219.878-.439 1.317-.439 1.316 0 2.303 1.097 2.303 2.304s-1.097 2.303-2.303 2.303c-1.207.11-2.304-.987-2.304-2.303zm2.304 1.536c.877 0 1.535-.659 1.535-1.536s-.658-1.536-1.535-1.536c-.22 0-.549.11-.768.22a1.32 1.32 0 0 0-.549.548c-.109.219-.219.439-.219.768.11.877.768 1.536 1.536 1.536z" fill="url(#At)"/><path d="M286.602 266.1v34.115l-7.24 7.349v25.779l7.021 7.02v4.388l18.648 18.649c.329-.22.878-.439 1.317-.439 1.316 0 2.303 1.097 2.303 2.303 0 1.317-1.097 2.304-2.303 2.304-1.317 0-2.304-1.097-2.304-2.304 0-.438.11-.987.439-1.316l-5.156-5.156v9.544l11.737 11.737v29.837l-5.923 5.924v25.559h-.878v-58.029l-34.005-34.006v-78.432c-1.097-.219-1.975-1.206-1.975-2.303 0-1.317.988-2.304 2.304-2.304s2.303 1.097 2.303 2.304-.877 2.084-1.974 2.303v78.103l34.006 34.006v31.702l5.155-5.156v-29.069l-11.628-11.957v-10.64l-12.834-12.835v-4.387l-6.253-6.253v12.395l9.654 9.544c.329-.219.877-.439 1.316-.439a2.32 2.32 0 0 1 2.304 2.304c0 1.316-.988 2.303-2.304 2.303s-2.304-1.097-2.304-2.303c0-.549.11-.987.439-1.317l-9.872-9.872v-39.929l7.24-7.35V265.99c-1.097-.22-1.975-1.207-1.975-2.304 0-1.316 1.097-2.303 2.304-2.303s2.303.987 2.303 2.303c.11 1.317-.768 2.304-1.865 2.414zm18.21 99.164c0 .878.658 1.536 1.536 1.536s1.535-.658 1.535-1.536-.658-1.535-1.535-1.535c-.22 0-.549.109-.768.219s-.439.329-.549.548c-.219.22-.219.439-.219.768zm-32.58-96.641c0-.878-.658-1.536-1.535-1.536s-1.536.658-1.536 1.536c0 .658.439 1.316 1.097 1.426.109 0 .219.109.439.109s.219 0 .438-.109c.658-.11 1.097-.659 1.097-1.426zm16.564 89.731c0 .877.658 1.535 1.536 1.535s1.536-.658 1.536-1.535-.658-1.536-1.536-1.536c-.219 0-.548.109-.768.219a1.32 1.32 0 0 0-.548.549c-.22.219-.22.438-.22.768zm-2.632-95.984c-.878 0-1.536.658-1.536 1.536 0 .658.439 1.316 1.097 1.426.11 0 .219.109.439.109.109 0 .329 0 .438-.109.659-.22 1.097-.768 1.097-1.426 0-.878-.658-1.536-1.535-1.536z" fill="url(#Au)"/><path d="M280.898 253.375v40.368l-3.181 3.181c.219.329.329.658.329.987 0 1.097-.878 1.975-1.975 1.975s-1.974-.878-1.974-1.975.877-1.974 1.974-1.974c.439 0 .768.109.987.329l2.962-2.962v-40.039c-1.097-.219-1.974-1.206-1.974-2.303 0-1.317 1.097-2.304 2.303-2.304 1.317 0 2.304 1.097 2.304 2.304.219 1.206-.658 2.193-1.755 2.413zm-.439-3.839c-.878 0-1.536.658-1.536 1.535 0 .658.439 1.317 1.097 1.426.11 0 .22.11.439.11s.219 0 .439-.11c.658-.109 1.097-.768 1.097-1.426 0-.877-.658-1.535-1.536-1.535z" fill="url(#Av)"/><path d="M69.076 350.675c1.316 0 2.304 1.097 2.304 2.303 0 1.097-.877 2.085-1.975 2.304v100.92h-.878v-100.92c-1.097-.219-1.974-1.207-1.974-2.304.11-1.316 1.207-2.303 2.523-2.303zm-.439 3.729c.11 0 .219.11.439.11.11 0 .329 0 .439-.11.658-.219 1.097-.767 1.097-1.426 0-.877-.658-1.535-1.536-1.535s-1.536.658-1.536 1.535c0 .659.439 1.317 1.097 1.426z" fill="url(#Aw)"/><path d="M56.242 427.023v-21.83l7.679-7.678v-28.74l-5.156-5.156v-43.001c-1.097-.219-1.974-1.206-1.974-2.303 0-1.317 1.097-2.304 2.304-2.304 1.316 0 2.304 1.097 2.304 2.304 0 1.097-.878 2.084-1.974 2.303v42.672l5.156 5.155v29.399l-7.679 7.679v21.5c1.097.219 1.974 1.097 1.974 2.304 0 1.316-1.097 2.303-2.304 2.303-1.316 0-2.304-1.097-2.304-2.303.11-1.097.878-2.085 1.974-2.304zm4.498-108.708c0-.878-.658-1.536-1.536-1.536s-1.536.658-1.536 1.536c0 .658.439 1.316 1.097 1.426.11 0 .219.109.439.109s.219 0 .439-.109c.548-.11 1.097-.768 1.097-1.426zM56.68 430.862c.878 0 1.536-.658 1.536-1.535 0-.659-.439-1.317-1.097-1.427-.11 0-.219-.109-.439-.109-.11 0-.329 0-.439.109-.658.22-1.097.768-1.097 1.427 0 .877.768 1.535 1.536 1.535z" fill="url(#Ax)"/><path d="M11.595 421.758c.987 0 1.865.877 1.865 1.864 0 .878-.658 1.646-1.536 1.865v5.046l5.704 5.704c.329-.219.658-.329 1.097-.329 1.097 0 1.865.878 1.865 1.865 0 1.097-.877 1.865-1.865 1.865-1.097 0-1.865-.878-1.865-1.865 0-.329.11-.658.329-.987l-5.924-5.924v-5.375c-.878-.219-1.536-.987-1.536-1.865 0-.987.768-1.864 1.865-1.864zm5.924 16.125a1.22 1.22 0 0 0 1.207 1.206 1.22 1.22 0 0 0 1.207-1.206 1.22 1.22 0 0 0-1.207-1.207c-.219 0-.329 0-.549.11a1.32 1.32 0 0 0-.549.548c-.11.11-.11.329-.11.549zm-6.362-13.054c.11 0 .219.11.439.11.11 0 .219 0 .439-.11.439-.11.877-.658.877-1.097a1.22 1.22 0 0 0-1.207-1.207 1.22 1.22 0 0 0-1.207 1.207c-.11.548.219.987.658 1.097z" fill="url(#Ay)"/><path d="M181.953 432.508c-1.207 0-2.085-.878-2.304-1.975h-29.728l-27.972-27.972c-.329.219-.878.439-1.316.439-1.317 0-2.304-.988-2.304-2.304a2.32 2.32 0 0 1 2.304-2.304c1.316 0 2.303 1.097 2.303 2.304 0 .548-.109.987-.438 1.316l27.862 27.753h29.289c.219-1.097 1.207-1.974 2.304-1.974 1.316 0 2.303 1.097 2.303 2.303 0 1.317-.987 2.414-2.303 2.414zm-59.675-31.812c0-.878-.658-1.536-1.536-1.536s-1.535.658-1.535 1.536.658 1.536 1.535 1.536c.22 0 .549-.11.768-.22a1.32 1.32 0 0 0 .549-.548c.109-.22.219-.549.219-.768zm59.675 27.972c-.659 0-1.317.439-1.427 1.097 0 .11-.109.22-.109.439 0 .11 0 .329.109.439.22.658.768 1.097 1.427 1.097.877 0 1.535-.658 1.535-1.536s-.658-1.536-1.535-1.536z" fill="url(#Az)"/><path d="M109.334 351.881c-1.316 0-2.303-1.097-2.303-2.303 0-1.317.987-2.304 2.303-2.304s2.304 1.097 2.304 2.304c0 .439-.11.987-.439 1.316l38.174 37.955c.329-.22.878-.439 1.317-.439 1.316 0 2.303.987 2.303 2.304s-1.097 2.303-2.303 2.303c-1.317 0-2.304-.987-2.304-2.303 0-.439.11-.988.439-1.317l-38.065-38.064c-.438.329-.877.548-1.426.548zm39.82 38.942c0 .878.658 1.536 1.536 1.536s1.535-.658 1.535-1.536-.658-1.535-1.535-1.535c-.22 0-.549.109-.768.219s-.439.329-.549.548-.219.549-.219.768zm-38.284-41.355c0-.877-.658-1.536-1.536-1.536s-1.535.659-1.535 1.536.658 1.536 1.535 1.536c.22 0 .549-.11.768-.22a1.32 1.32 0 0 0 .549-.548c.109-.219.219-.439.219-.768z" fill="url(#BA)"/><path d="M264.005 257.324v29.727l-7.788 7.789v14.699c1.097.219 1.864 1.207 1.864 2.304 0 1.316-1.096 2.303-2.303 2.303-1.316 0-2.304-1.097-2.304-2.303 0-1.097.878-2.085 1.975-2.304v-15.028l7.788-7.789v-9.324l-13.492 13.493v18.429l-9.215 9.214v11.079c1.097.22 1.975 1.207 1.975 2.304a2.32 2.32 0 0 1-2.304 2.304 2.32 2.32 0 0 1-2.304-2.304c0-1.097.878-2.084 1.975-2.304v-11.408l9.214-9.214v-18.429l14.371-14.37v-18.868c-.878-.219-1.536-.987-1.536-1.865 0-1.097.877-1.974 1.974-1.974s1.975.877 1.975 1.974c-.329.878-.987 1.646-1.865 1.865zm-9.763 54.519c0 .877.658 1.535 1.536 1.535s1.536-.658 1.536-1.535c0-.659-.439-1.317-1.097-1.426-.11-.11-.329-.11-.439-.11s-.22 0-.329.11c-.658.109-1.207.658-1.207 1.426zm-15.577 20.074a1.5 1.5 0 0 0 1.536 1.536c.878 0 1.536-.659 1.536-1.536 0-.658-.439-1.316-1.097-1.426-.11 0-.22-.11-.439-.11s-.329 0-.439.11c-.658.11-1.097.658-1.097 1.426z" fill="url(#BB)"/><path d="M235.484 232.642v26.218l-21.39 21.39v18.21c1.097.219 1.974 1.206 1.974 2.303 0 1.317-1.097 2.304-2.303 2.304-1.317 0-2.304-1.097-2.304-2.304 0-1.097.877-2.084 1.974-2.303v-18.539l21.391-21.39v-25.779c-.877-.219-1.536-.987-1.536-1.865 0-1.097.878-1.974 1.975-1.974s1.974.877 1.974 1.974c-.329.768-.987 1.536-1.755 1.755zm-23.365 68.012c0 .877.658 1.535 1.536 1.535s1.536-.658 1.536-1.535c0-.659-.439-1.317-1.097-1.426-.11 0-.22-.11-.439-.11-.11 0-.329 0-.439.11-.658.109-1.097.767-1.097 1.426z" fill="url(#BC)"/><path d="M181.953 435.031c1.097 0 1.974.877 1.974 1.974s-.877 1.975-1.974 1.975c-.878 0-1.646-.658-1.865-1.536H157.6l8.337 8.337-.548.548-9.654-9.653h24.572c0-.987.768-1.645 1.646-1.645z" fill="url(#BD)"/><path d="M264.005 321.825v30.276l33.348 33.347v27.424c.877.22 1.535.987 1.535 1.865 0 1.097-.877 1.975-1.974 1.975s-1.975-.878-1.975-1.975c0-.878.658-1.645 1.536-1.865v-27.095l-33.347-33.347v-30.605c-.878-.22-1.536-.987-1.536-1.865 0-1.097.877-1.974 1.974-1.974s1.975.877 1.975 1.974c0 .878-.658 1.645-1.536 1.865z" fill="url(#BE)"/><path d="M46.259 320.179c1.097 0 1.974.878 1.974 1.975 0 .877-.548 1.645-1.426 1.865v132.183h-.878V323.909c-.878-.11-1.645-.987-1.645-1.865.11-1.097.987-1.865 1.974-1.865z" fill="url(#BF)"/><path d="M97.048 249.974c.878 0 1.645.658 1.865 1.536h13.932l23.145 23.146H81.581c-.219 1.097-1.207 1.974-2.304 1.974-1.316 0-2.304-1.097-2.304-2.303 0-1.317 1.097-2.304 2.304-2.304s2.084.878 2.304 1.975h52.435l-21.501-21.501H98.913c-.219.878-.987 1.536-1.865 1.536-1.097 0-1.975-.878-1.975-1.975s.878-2.084 1.975-2.084zm-17.771 22.817c-.877 0-1.536.658-1.536 1.536s.658 1.535 1.536 1.535c.658 0 1.316-.438 1.426-1.097 0-.109.11-.219.11-.438s0-.22-.11-.439c-.11-.658-.768-1.097-1.426-1.097z" fill="url(#BG)"/><path d="M102.204 163.205c1.097 0 1.975.878 1.975 1.975s-.878 1.974-1.975 1.974-1.974-.877-1.974-1.974c0-.329.109-.549.219-.878l-56.274-56.274V88.173L23.114 67.002H-8.478v-.877h31.921l21.61 21.61v19.855l55.945 55.945c.329-.11.768-.329 1.206-.329z" fill="url(#BH)"/><path d="M202.027 231.436c-.877 0-1.645-.658-1.865-1.536h-19.855l-9.324-9.324c-.329.219-.877.439-1.316.439a2.32 2.32 0 0 1-2.304-2.304c0-1.316.988-2.304 2.304-2.304s2.303.988 2.303 2.304c0 .549-.109.987-.438 1.316l8.995 8.995h19.526c.219-.877.987-1.535 1.864-1.535 1.097 0 1.975.877 1.975 1.974s-.768 1.975-1.865 1.975zm-30.824-12.725c0-.878-.659-1.536-1.536-1.536s-1.536.658-1.536 1.536.658 1.536 1.536 1.536c.219 0 .548-.11.768-.22s.439-.329.548-.548c.11-.329.22-.549.22-.768z" fill="url(#BI)"/><path d="M113.503 176.698c1.316 0 2.303 1.097 2.303 2.303 0 1.317-1.097 2.304-2.303 2.304-1.097 0-2.084-.768-2.304-1.865H86.956l-14.041 14.041H55.254l-40.149-40.149H-2.555v-.877h18.209l40.149 40.148h17.003l14.041-14.041h24.462c.11-.987 1.097-1.864 2.194-1.864zm0 3.839c.877 0 1.535-.658 1.535-1.536s-.658-1.536-1.535-1.536c-.658 0-1.317.549-1.426 1.207v.329c0 .11 0 .329.109.439.11.658.659 1.097 1.317 1.097z" fill="url(#BJ)"/><path d="M213.655 256.008c-1.097 0-2.084-.878-2.304-1.975h-30.276l-15.248-15.248c-.329.22-.877.439-1.316.439-1.316 0-2.303-.987-2.303-2.304s1.096-2.303 2.303-2.303c1.316 0 2.304.987 2.304 2.303 0 .439-.11.988-.439 1.317l15.028 15.028h29.837c.22-1.097 1.207-1.974 2.304-1.974 1.316 0 2.304 1.097 2.304 2.303.109 1.317-.878 2.414-2.194 2.414zm-47.608-19.088c0-.877-.658-1.535-1.536-1.535s-1.536.658-1.536 1.535.659 1.536 1.536 1.536c.22 0 .549-.109.768-.219a1.32 1.32 0 0 0 .548-.549c.11-.329.22-.548.22-.768zm47.608 15.248c-.658 0-1.317.439-1.426 1.097 0 .11-.11.22-.11.439 0 .11 0 .329.11.439.219.658.768 1.097 1.426 1.097.877 0 1.535-.659 1.535-1.536s-.767-1.536-1.535-1.536z" fill="url(#BK)"/><path d="M195.665 224.086c-1.097 0-2.085-.877-2.304-1.974h-9.105l-18.977-18.978h-11.628l7.13 7.13c.33-.219.659-.329.988-.329 1.097 0 1.974.878 1.974 1.975s-.877 1.974-1.974 1.974-1.975-.877-1.975-1.974c0-.439.11-.768.329-1.097l-22.158-22.159V161.34l-23.914-23.913v27.643c1.097.219 1.975 1.207 1.975 2.303 0 1.317-1.097 2.304-2.304 2.304a2.32 2.32 0 0 1-2.304-2.304c0-1.096.878-2.084 1.975-2.303v-29.618l25.559 25.559v27.314l14.041 13.932h12.834l18.978 18.977h8.775c.22-1.097 1.207-1.975 2.304-1.975a2.32 2.32 0 0 1 2.304 2.304c-.22 1.426-1.207 2.523-2.523 2.523zm-83.588-56.713c0 .878.658 1.536 1.535 1.536s1.536-.658 1.536-1.536c0-.658-.439-1.316-1.097-1.426-.11 0-.219-.109-.439-.109-.109 0-.219 0-.438.109-.659.11-1.097.768-1.097 1.426zm83.588 52.874c-.659 0-1.317.439-1.426 1.097 0 .109-.11.219-.11.438 0 .11 0 .22.11.439.109.658.767 1.097 1.426 1.097.877 0 1.535-.658 1.535-1.536s-.658-1.535-1.535-1.535z" fill="url(#BL)"/><path d="M246.783 247.561v15.138l-20.623 20.623v72.728c1.097.219 1.975 1.207 1.975 2.303 0 1.317-.988 2.304-2.304 2.304a2.32 2.32 0 0 1-2.304-2.304c0-1.206.878-2.084 1.975-2.303v-73.057l20.623-20.623v-14.699c-1.097-.22-1.975-1.207-1.975-2.304a2.32 2.32 0 0 1 2.304-2.304c1.316 0 2.303.988 2.303 2.304 0 1.097-.877 1.975-1.974 2.194zm-22.488 110.792c0 .878.658 1.536 1.536 1.536s1.536-.658 1.536-1.536c0-.658-.439-1.316-1.097-1.426-.11 0-.22-.109-.439-.109-.11 0-.329 0-.439.109-.658.11-1.097.659-1.097 1.426zm22.159-114.631c-.878 0-1.536.658-1.536 1.535 0 .659.439 1.317 1.097 1.426.11 0 .219.11.439.11.109 0 .329 0 .439-.11.658-.219 1.096-.767 1.096-1.426-.109-.767-.767-1.535-1.535-1.535z" fill="url(#BM)"/></g></g><defs><linearGradient id="B" x1="1288.87" y1="90.974" x2="1288.87" y2="150.711" xlink:href="#BN"><stop stop-color="#fff" stop-opacity="0"/><stop offset="1" stop-color="#fff"/></linearGradient><linearGradient id="C" x1="1303.7" y1="73.148" x2="1303.7" y2="198.197" xlink:href="#BN"><stop stop-color="#fff" stop-opacity="0"/><stop offset="1" stop-color="#fff"/></linearGradient><linearGradient id="D" x1="1318.49" y1="70" x2="1318.49" y2="231.005" xlink:href="#BN"><stop stop-color="#fff" stop-opacity="0"/><stop offset="1" stop-color="#fff"/></linearGradient><linearGradient id="E" x1="1332.85" y1="71.365" x2="1332.85" y2="258.162" xlink:href="#BN"><stop stop-color="#fff" stop-opacity="0"/><stop offset="1" stop-color="#fff"/></linearGradient><linearGradient id="F" x1="1347.24" y1="76.637" x2="1347.24" y2="281.753" xlink:href="#BN"><stop stop-color="#fff" stop-opacity="0"/><stop offset="1" stop-color="#fff"/></linearGradient><linearGradient id="G" x1="1361.73" y1="84.792" x2="1361.73" y2="302.576" xlink:href="#BN"><stop stop-color="#fff" stop-opacity="0"/><stop offset="1" stop-color="#fff"/></linearGradient><linearGradient id="H" x1="1376.25" y1="95.298" x2="1376.25" y2="321.122" xlink:href="#BN"><stop stop-color="#fff" stop-opacity="0"/><stop offset="1" stop-color="#fff"/></linearGradient><linearGradient id="I" x1="1390.79" y1="107.966" x2="1390.79" y2="337.621" xlink:href="#BN"><stop stop-color="#fff" stop-opacity="0"/><stop offset="1" stop-color="#fff"/></linearGradient><linearGradient id="J" x1="1405.38" y1="122.53" x2="1405.38" y2="352.186" xlink:href="#BN"><stop stop-color="#fff" stop-opacity="0"/><stop offset="1" stop-color="#fff"/></linearGradient><linearGradient id="K" x1="1419.96" y1="139.067" x2="1419.96" y2="364.778" xlink:href="#BN"><stop stop-color="#fff" stop-opacity="0"/><stop offset="1" stop-color="#fff"/></linearGradient><linearGradient id="L" x1="1434.48" y1="157.652" x2="1434.48" y2="375.284" xlink:href="#BN"><stop stop-color="#fff" stop-opacity="0"/><stop offset="1" stop-color="#fff"/></linearGradient><linearGradient id="M" x1="1449.01" y1="178.55" x2="1449.01" y2="383.401" xlink:href="#BN"><stop stop-color="#fff" stop-opacity="0"/><stop offset="1" stop-color="#fff"/></linearGradient><linearGradient id="N" x1="1463.38" y1="202.104" x2="1463.38" y2="388.597" xlink:href="#BN"><stop stop-color="#fff" stop-opacity="0"/><stop offset="1" stop-color="#fff"/></linearGradient><linearGradient id="O" x1="1477.72" y1="229.374" x2="1477.72" y2="390" xlink:href="#BN"><stop stop-color="#fff" stop-opacity="0"/><stop offset="1" stop-color="#fff"/></linearGradient><linearGradient id="P" x1="1492.49" y1="262.296" x2="1492.49" y2="386.738" xlink:href="#BN"><stop stop-color="#fff" stop-opacity="0"/><stop offset="1" stop-color="#fff"/></linearGradient><linearGradient id="Q" x1="1507.33" y1="310.237" x2="1507.33" y2="368.419" xlink:href="#BN"><stop stop-color="#fff" stop-opacity="0"/><stop offset="1" stop-color="#fff"/></linearGradient><linearGradient id="R" x1="1666.81" y1="70.142" x2="1632.16" y2="70.142" xlink:href="#BN"><stop stop-color="#27cfe1"/><stop offset="1" stop-color="#1b75bc"/></linearGradient><linearGradient id="S" x1="1673.29" y1="110.147" x2="1656.12" y2="110.147" xlink:href="#BN"><stop stop-color="#27cfe1"/><stop offset="1" stop-color="#1b75bc"/></linearGradient><linearGradient id="T" x1="1682.51" y1="75.21" x2="1637.71" y2="75.21" xlink:href="#BN"><stop stop-color="#27cfe1"/><stop offset="1" stop-color="#1b75bc"/></linearGradient><linearGradient id="U" x1="2000.3" y1="111.491" x2="1771.67" y2="111.491" xlink:href="#BN"><stop stop-color="#27aae1"/><stop offset="1" stop-color="#273ee1"/></linearGradient><linearGradient id="V" x1="1820.27" y1="55.03" x2="1766.19" y2="55.03" xlink:href="#BN"><stop stop-color="#27aae1"/><stop offset="1" stop-color="#273ee1"/></linearGradient><linearGradient id="W" x1="1760.6" y1="36.835" x2="1675.41" y2="36.835" xlink:href="#BN"><stop stop-color="#27aae1"/><stop offset="1" stop-color="#273ee1"/></linearGradient><linearGradient id="X" x1="1747.43" y1="51.88" x2="1652.69" y2="51.88" xlink:href="#BN"><stop stop-color="#fff"/><stop offset="1" stop-color="#273ee1"/></linearGradient><linearGradient id="Y" x1="1903.66" y1="165.603" x2="1903.27" y2="113.601" xlink:href="#BN"><stop stop-color="#f1f2f2"/><stop offset="1" stop-color="#276de1"/></linearGradient><linearGradient id="Z" x1="2000.3" y1="220.338" x2="1809.03" y2="220.338" xlink:href="#BN"><stop stop-color="#f1f2f2"/><stop offset="1" stop-color="#276de1"/></linearGradient><linearGradient id="a" x1="1853.47" y1="158.393" x2="1764.56" y2="158.393" xlink:href="#BN"><stop stop-color="#27aae1"/><stop offset="1" stop-color="#273ee1"/></linearGradient><linearGradient id="b" x1="1819.82" y1="156.861" x2="1760" y2="151.387" xlink:href="#BN"><stop stop-color="#27aae1"/><stop offset="1" stop-color="#fff"/></linearGradient><linearGradient id="c" x1="1913.31" y1="19.436" x2="1884.63" y2="78.867" xlink:href="#BN"><stop stop-color="#c7d6ee"/><stop offset="1" stop-color="#276de1"/></linearGradient><linearGradient id="d" x1="1623.75" y1="95.623" x2="1592.99" y2="95.623" xlink:href="#BN"><stop stop-color="#27cfe1"/><stop offset="1" stop-color="#1b75bc"/></linearGradient><linearGradient id="e" x1="2000.3" y1="221.527" x2="1744.17" y2="221.527" xlink:href="#BN"><stop stop-color="#f1f2f2"/><stop offset="1" stop-color="#276de1"/></linearGradient><linearGradient id="f" x1="1780.99" y1="132.108" x2="1694.95" y2="132.108" xlink:href="#BN"><stop stop-color="#c7d6ee"/><stop offset="1" stop-color="#276de1"/></linearGradient><linearGradient id="g" x1="2000.3" y1="270.696" x2="1807.55" y2="270.696" xlink:href="#BN"><stop stop-color="#f1f2f2"/><stop offset="1" stop-color="#276de1"/></linearGradient><linearGradient id="h" x1="1854.82" y1="250.734" x2="1775.66" y2="250.734" xlink:href="#BN"><stop stop-color="#27aae1"/><stop offset="1" stop-color="#273ee1"/></linearGradient><linearGradient id="i" x1="1785.1" y1="202.467" x2="1717.62" y2="202.467" xlink:href="#BN"><stop stop-color="#27aae1"/><stop offset="1" stop-color="#273ee1"/></linearGradient><linearGradient id="j" x1="1882.58" y1="205.723" x2="1820.45" y2="205.723" xlink:href="#BN"><stop stop-color="#f1f2f2"/><stop offset="1" stop-color="#276de1"/></linearGradient><linearGradient id="k" x1="1943.21" y1="390.044" x2="1821.84" y2="390.044" xlink:href="#BN"><stop stop-color="#f1f2f2"/><stop offset="1" stop-color="#276de1"/></linearGradient><linearGradient id="l" x1="1886.37" y1="376.522" x2="1834.92" y2="376.522" xlink:href="#BN"><stop stop-color="#f1f2f2"/><stop offset="1" stop-color="#276de1"/></linearGradient><linearGradient id="m" x1="1796.71" y1="270.712" x2="1764.56" y2="270.712" xlink:href="#BN"><stop stop-color="#27aae1"/><stop offset="1" stop-color="#273ee1"/></linearGradient><linearGradient id="n" x1="1922.88" y1="298.931" x2="1853.7" y2="298.931" xlink:href="#BN"><stop stop-color="#c7d6ee"/><stop offset="1" stop-color="#276de1"/></linearGradient><linearGradient id="o" x1="1870.48" y1="293.674" x2="1834.52" y2="293.674" xlink:href="#BN"><stop stop-color="#c7d6ee"/><stop offset="1" stop-color="#276de1"/></linearGradient><linearGradient id="p" x1="1884.19" y1="325.907" x2="1846.14" y2="325.907" xlink:href="#BN"><stop stop-color="#27aae1"/><stop offset="1" stop-color="#273ee1"/></linearGradient><linearGradient id="q" x1="1890.3" y1="332.276" x2="1856.42" y2="332.276" xlink:href="#BN"><stop stop-color="#27aae1"/><stop offset="1" stop-color="#273ee1"/></linearGradient><linearGradient id="r" x1="1906.39" y1="30.576" x2="1881.34" y2="30.576" xlink:href="#BN"><stop stop-color="#27aae1"/><stop offset="1" stop-color="#273ee1"/></linearGradient><linearGradient id="s" x1="1943.21" y1="390.612" x2="1785.54" y2="390.612" xlink:href="#BN"><stop stop-color="#f1f2f2"/><stop offset="1" stop-color="#276de1"/></linearGradient><linearGradient id="t" x1="1816.42" y1="104.166" x2="1754.75" y2="104.166" xlink:href="#BN"><stop stop-color="#27aae1"/><stop offset="1" stop-color="#273ee1"/></linearGradient><linearGradient id="u" x1="1739.9" y1="95.931" x2="1794.25" y2="147.542" xlink:href="#BN"><stop stop-color="#fff"/><stop offset="1" stop-color="#273ee1"/></linearGradient><linearGradient id="v" x1="1666.59" y1="59.493" x2="1757.56" y2="110.322" xlink:href="#BN"><stop stop-color="#fff"/><stop offset="1" stop-color="#273ee1"/></linearGradient><linearGradient id="w" x1="1630.88" y1="199.608" x2="1630.1" y2="49.075" xlink:href="#BN"><stop stop-color="#f1f2f2"/><stop offset="1" stop-color="#276de1"/></linearGradient><linearGradient id="x" x1="1646.16" y1="185.478" x2="1637.46" y2="185.478" xlink:href="#BN"><stop stop-color="#c7d6ee"/><stop offset="1" stop-color="#276de1"/></linearGradient><linearGradient id="y" x1="1851.27" y1="44.122" x2="1851.27" y2="139.733" xlink:href="#BN"><stop stop-color="#f1f2f2"/><stop offset="1" stop-color="#276de1"/></linearGradient><linearGradient id="z" x1="1860.72" y1="44.122" x2="1860.72" y2="139.733" xlink:href="#BN"><stop stop-color="#f1f2f2"/><stop offset="1" stop-color="#276de1"/></linearGradient><linearGradient id="AA" x1="1910.62" y1="29.033" x2="1899.67" y2="29.033" xlink:href="#BN"><stop stop-color="#27aae1"/><stop offset="1" stop-color="#273ee1"/></linearGradient><linearGradient id="AB" x1="1801.93" y1="44.38" x2="1736" y2="44.38" xlink:href="#BN"><stop stop-color="#27aae1"/><stop offset="1" stop-color="#273ee1"/></linearGradient><linearGradient id="AC" x1="1813.3" y1="89.651" x2="1767.29" y2="89.651" xlink:href="#BN"><stop stop-color="#27aae1"/><stop offset="1" stop-color="#273ee1"/></linearGradient><linearGradient id="AD" x1="1668.63" y1="209.773" x2="1668.63" y2="125.319" xlink:href="#BN"><stop stop-color="#27cfe1"/><stop offset="1" stop-color="#1b75bc"/></linearGradient><linearGradient id="AE" x1="1696.05" y1="229.636" x2="1696.31" y2="153.783" xlink:href="#BN"><stop stop-color="#27aae1"/><stop offset="1" stop-color="#273ee1"/></linearGradient><linearGradient id="AF" x1="1764.74" y1="19.136" x2="1736.41" y2="19.136" xlink:href="#BN"><stop stop-color="#27aae1"/><stop offset="1" stop-color="#273ee1"/></linearGradient><linearGradient id="AG" x1="1658.61" y1="92.475" x2="1621.45" y2="92.475" xlink:href="#BN"><stop stop-color="#c7d6ee"/><stop offset="1" stop-color="#276de1"/></linearGradient><linearGradient id="AH" x1="1874" y1="141.48" x2="1874" y2=".722" xlink:href="#BN"><stop stop-color="#27aae1"/><stop offset="1" stop-color="#273ee1"/></linearGradient><linearGradient id="AI" x1="1843.38" y1="196.48" x2="1784.34" y2="196.48" xlink:href="#BN"><stop stop-color="#f1f2f2"/><stop offset="1" stop-color="#276de1"/></linearGradient><linearGradient id="AJ" x1="1928.75" y1="343.157" x2="1816.17" y2="343.157" xlink:href="#BN"><stop stop-color="#27aae1"/><stop offset="1" stop-color="#273ee1"/></linearGradient><linearGradient id="AK" x1="1752.99" y1="235.93" x2="1716.33" y2="235.93" xlink:href="#BN"><stop stop-color="#27aae1"/><stop offset="1" stop-color="#273ee1"/></linearGradient><linearGradient id="AL" x1="1890.3" y1="286.801" x2="1781.73" y2="286.801" xlink:href="#BN"><stop stop-color="#e6e7e8"/><stop offset="1" stop-color="#273ee1"/></linearGradient><linearGradient id="AM" x1="1758.14" y1="214.523" x2="1704.33" y2="214.523" xlink:href="#BN"><stop stop-color="#27aae1"/><stop offset="1" stop-color="#273ee1"/></linearGradient><linearGradient id="AN" x1="1809.1" y1="280.077" x2="1722.31" y2="280.077" xlink:href="#BN"><stop stop-color="#27aae1"/><stop offset="1" stop-color="#273ee1"/></linearGradient><linearGradient id="AO" x1="1685.99" y1="206.253" x2="1682.08" y2="99.902" xlink:href="#BN"><stop stop-color="#fff"/><stop offset="1" stop-color="#273ee1"/></linearGradient><linearGradient id="AP" x1="253.489" y1="389.658" x2="288.142" y2="389.658" xlink:href="#BN"><stop stop-color="#27cfe1"/><stop offset="1" stop-color="#1b75bc"/></linearGradient><linearGradient id="AQ" x1="247.006" y1="349.653" x2="264.179" y2="349.653" xlink:href="#BN"><stop stop-color="#27cfe1"/><stop offset="1" stop-color="#1b75bc"/></linearGradient><linearGradient id="AR" x1="237.792" y1="384.59" x2="282.592" y2="384.59" xlink:href="#BN"><stop stop-color="#27cfe1"/><stop offset="1" stop-color="#1b75bc"/></linearGradient><linearGradient id="AS" x1="-80" y1="348.309" x2="148.631" y2="348.309" xlink:href="#BN"><stop stop-color="#27aae1"/><stop offset="1" stop-color="#273ee1"/></linearGradient><linearGradient id="AT" x1="100.032" y1="404.77" x2="154.105" y2="404.77" xlink:href="#BN"><stop stop-color="#27aae1"/><stop offset="1" stop-color="#273ee1"/></linearGradient><linearGradient id="AU" x1="159.696" y1="422.965" x2="244.889" y2="422.965" xlink:href="#BN"><stop stop-color="#27aae1"/><stop offset="1" stop-color="#273ee1"/></linearGradient><linearGradient id="AV" x1="172.866" y1="407.92" x2="267.614" y2="407.92" xlink:href="#BN"><stop stop-color="#fff"/><stop offset="1" stop-color="#273ee1"/></linearGradient><linearGradient id="AW" x1="16.637" y1="294.197" x2="17.028" y2="346.199" xlink:href="#BN"><stop stop-color="#f1f2f2"/><stop offset="1" stop-color="#276de1"/></linearGradient><linearGradient id="AX" x1="-80" y1="239.462" x2="111.267" y2="239.462" xlink:href="#BN"><stop stop-color="#f1f2f2"/><stop offset="1" stop-color="#276de1"/></linearGradient><linearGradient id="AY" x1="66.831" y1="301.407" x2="155.742" y2="301.407" xlink:href="#BN"><stop stop-color="#27aae1"/><stop offset="1" stop-color="#273ee1"/></linearGradient><linearGradient id="AZ" x1="100.479" y1="302.939" x2="160.301" y2="308.412" xlink:href="#BN"><stop stop-color="#27aae1"/><stop offset="1" stop-color="#fff"/></linearGradient><linearGradient id="Aa" x1="6.993" y1="440.364" x2="35.666" y2="380.933" xlink:href="#BN"><stop stop-color="#c7d6ee"/><stop offset="1" stop-color="#276de1"/></linearGradient><linearGradient id="Ab" x1="296.554" y1="364.177" x2="327.306" y2="364.177" xlink:href="#BN"><stop stop-color="#27cfe1"/><stop offset="1" stop-color="#1b75bc"/></linearGradient><linearGradient id="Ac" x1="-79.996" y1="238.273" x2="176.132" y2="238.273" xlink:href="#BN"><stop stop-color="#f1f2f2"/><stop offset="1" stop-color="#276de1"/></linearGradient><linearGradient id="Ad" x1="139.309" y1="327.692" x2="225.35" y2="327.692" xlink:href="#BN"><stop stop-color="#c7d6ee"/><stop offset="1" stop-color="#276de1"/></linearGradient><linearGradient id="Ae" x1="-80" y1="189.104" x2="112.747" y2="189.104" xlink:href="#BN"><stop stop-color="#f1f2f2"/><stop offset="1" stop-color="#276de1"/></linearGradient><linearGradient id="Af" x1="65.482" y1="209.066" x2="144.638" y2="209.066" xlink:href="#BN"><stop stop-color="#27aae1"/><stop offset="1" stop-color="#273ee1"/></linearGradient><linearGradient id="Ag" x1="135.203" y1="257.333" x2="202.678" y2="257.333" xlink:href="#BN"><stop stop-color="#27aae1"/><stop offset="1" stop-color="#273ee1"/></linearGradient><linearGradient id="Ah" x1="37.715" y1="254.077" x2="99.849" y2="254.077" xlink:href="#BN"><stop stop-color="#f1f2f2"/><stop offset="1" stop-color="#276de1"/></linearGradient><linearGradient id="Ai" x1="-22.915" y1="69.756" x2="98.46" y2="69.756" xlink:href="#BN"><stop stop-color="#f1f2f2"/><stop offset="1" stop-color="#276de1"/></linearGradient><linearGradient id="Aj" x1="33.933" y1="83.278" x2="85.381" y2="83.279" xlink:href="#BN"><stop stop-color="#f1f2f2"/><stop offset="1" stop-color="#276de1"/></linearGradient><linearGradient id="Ak" x1="123.588" y1="189.088" x2="155.742" y2="189.088" xlink:href="#BN"><stop stop-color="#27aae1"/><stop offset="1" stop-color="#273ee1"/></linearGradient><linearGradient id="Al" x1="-2.583" y1="160.869" x2="66.596" y2="160.869" xlink:href="#BN"><stop stop-color="#c7d6ee"/><stop offset="1" stop-color="#276de1"/></linearGradient><linearGradient id="Am" x1="49.818" y1="166.126" x2="85.776" y2="166.126" xlink:href="#BN"><stop stop-color="#c7d6ee"/><stop offset="1" stop-color="#276de1"/></linearGradient><linearGradient id="An" x1="36.106" y1="133.893" x2="74.155" y2="133.893" xlink:href="#BN"><stop stop-color="#27aae1"/><stop offset="1" stop-color="#273ee1"/></linearGradient><linearGradient id="Ao" x1="29.996" y1="127.524" x2="63.881" y2="127.524" xlink:href="#BN"><stop stop-color="#27aae1"/><stop offset="1" stop-color="#273ee1"/></linearGradient><linearGradient id="Ap" x1="13.914" y1="429.224" x2="38.958" y2="429.224" xlink:href="#BN"><stop stop-color="#27aae1"/><stop offset="1" stop-color="#273ee1"/></linearGradient><linearGradient id="Aq" x1="-22.911" y1="69.188" x2="134.755" y2="69.188" xlink:href="#BN"><stop stop-color="#f1f2f2"/><stop offset="1" stop-color="#276de1"/></linearGradient><linearGradient id="Ar" x1="103.875" y1="355.634" x2="165.545" y2="355.634" xlink:href="#BN"><stop stop-color="#27aae1"/><stop offset="1" stop-color="#273ee1"/></linearGradient><linearGradient id="As" x1="180.4" y1="363.869" x2="126.052" y2="312.258" xlink:href="#BN"><stop stop-color="#fff"/><stop offset="1" stop-color="#273ee1"/></linearGradient><linearGradient id="At" x1="253.709" y1="400.307" x2="162.738" y2="349.478" xlink:href="#BN"><stop stop-color="#fff"/><stop offset="1" stop-color="#273ee1"/></linearGradient><linearGradient id="Au" x1="289.416" y1="260.192" x2="290.197" y2="410.725" xlink:href="#BN"><stop stop-color="#f1f2f2"/><stop offset="1" stop-color="#276de1"/></linearGradient><linearGradient id="Av" x1="274.136" y1="274.322" x2="282.843" y2="274.322" xlink:href="#BN"><stop stop-color="#c7d6ee"/><stop offset="1" stop-color="#276de1"/></linearGradient><linearGradient id="Aw" x1="69.025" y1="415.678" x2="69.025" y2="320.067" xlink:href="#BN"><stop stop-color="#f1f2f2"/><stop offset="1" stop-color="#276de1"/></linearGradient><linearGradient id="Ax" x1="59.575" y1="415.678" x2="59.575" y2="320.067" xlink:href="#BN"><stop stop-color="#f1f2f2"/><stop offset="1" stop-color="#276de1"/></linearGradient><linearGradient id="Ay" x1="9.679" y1="430.767" x2="20.627" y2="430.767" xlink:href="#BN"><stop stop-color="#27aae1"/><stop offset="1" stop-color="#273ee1"/></linearGradient><linearGradient id="Az" x1="118.366" y1="415.42" x2="184.304" y2="415.42" xlink:href="#BN"><stop stop-color="#27aae1"/><stop offset="1" stop-color="#273ee1"/></linearGradient><linearGradient id="BA" x1="107.002" y1="370.149" x2="153.008" y2="370.149" xlink:href="#BN"><stop stop-color="#27aae1"/><stop offset="1" stop-color="#273ee1"/></linearGradient><linearGradient id="BB" x1="251.665" y1="250.027" x2="251.665" y2="334.481" xlink:href="#BN"><stop stop-color="#27cfe1"/><stop offset="1" stop-color="#1b75bc"/></linearGradient><linearGradient id="BC" x1="224.25" y1="230.164" x2="223.989" y2="306.017" xlink:href="#BN"><stop stop-color="#27aae1"/><stop offset="1" stop-color="#273ee1"/></linearGradient><linearGradient id="BD" x1="155.558" y1="440.664" x2="183.894" y2="440.664" xlink:href="#BN"><stop stop-color="#27aae1"/><stop offset="1" stop-color="#273ee1"/></linearGradient><linearGradient id="BE" x1="261.69" y1="367.325" x2="298.847" y2="367.325" xlink:href="#BN"><stop stop-color="#c7d6ee"/><stop offset="1" stop-color="#276de1"/></linearGradient><linearGradient id="BF" x1="46.299" y1="318.32" x2="46.299" y2="459.078" xlink:href="#BN"><stop stop-color="#27aae1"/><stop offset="1" stop-color="#273ee1"/></linearGradient><linearGradient id="BG" x1="76.923" y1="263.32" x2="135.961" y2="263.32" xlink:href="#BN"><stop stop-color="#f1f2f2"/><stop offset="1" stop-color="#276de1"/></linearGradient><linearGradient id="BH" x1="-8.448" y1="116.643" x2="104.132" y2="116.643" xlink:href="#BN"><stop stop-color="#27aae1"/><stop offset="1" stop-color="#273ee1"/></linearGradient><linearGradient id="BI" x1="167.312" y1="223.87" x2="203.965" y2="223.87" xlink:href="#BN"><stop stop-color="#27aae1"/><stop offset="1" stop-color="#273ee1"/></linearGradient><linearGradient id="BJ" x1="29.999" y1="172.998" x2="138.569" y2="172.998" xlink:href="#BN"><stop stop-color="#e6e7e8"/><stop offset="1" stop-color="#273ee1"/></linearGradient><linearGradient id="BK" x1="162.157" y1="245.277" x2="215.973" y2="245.277" xlink:href="#BN"><stop stop-color="#27aae1"/><stop offset="1" stop-color="#273ee1"/></linearGradient><linearGradient id="BL" x1="111.203" y1="179.723" x2="197.994" y2="179.723" xlink:href="#BN"><stop stop-color="#27aae1"/><stop offset="1" stop-color="#273ee1"/></linearGradient><linearGradient id="BM" x1="234.312" y1="253.547" x2="238.222" y2="359.898" xlink:href="#BN"><stop stop-color="#fff"/><stop offset="1" stop-color="#273ee1"/></linearGradient><linearGradient id="BN" gradientUnits="userSpaceOnUse"/></defs></svg>
