<svg width="678" height="674" viewBox="0 0 678 674" fill="none" xmlns="http://www.w3.org/2000/svg">
<path d="M358.532 671.631C323.956 665.854 299.15 642.585 277.278 622.055C265.564 611.066 254.486 600.677 242.649 593.221C215.9 576.384 192.048 569.988 168.974 563.804C131.678 553.822 93.1088 543.486 51.6072 491.278C9.82293 438.699 -5.84837 388.646 3.7099 338.257C13.0738 288.841 46.4306 246.12 74.434 214.442C92.7025 193.753 105.476 168.152 118.974 141.05C130.724 117.481 142.861 93.1168 159.328 71.0144C201.571 14.3538 242.702 -5.9818 296.854 3.06411C317.737 6.54466 339.203 14.0535 361.924 22.004C382.012 29.0181 402.772 36.2795 426.04 41.9862C428.284 42.5339 430.669 43.0286 433.108 43.435C444.945 45.4138 457.418 45.4668 470.599 45.5375C484.68 45.6081 499.22 45.6788 514.008 48.1523C531.711 51.1028 546.941 57.1276 560.528 66.5445C602.542 95.6433 606.393 128.876 610.121 160.996C611.64 174.088 613.213 187.604 617.4 201.65C622.753 219.565 632.4 236.085 642.612 253.593C658.23 280.342 674.379 308.01 675.987 342.798C679.078 409.759 635.121 446.95 601.8 469.105C591.111 476.225 580.581 481.826 570.404 487.25C549.238 498.522 530.969 508.257 518.973 527.886C515.386 533.751 513.478 543.804 511.641 553.522C509.432 565.182 507.136 577.25 501.5 588.098C481.111 627.391 436.517 668.786 382.86 672.744C374.592 673.309 366.412 672.938 358.532 671.631Z" fill="#777C90" stroke="#913BFF" stroke-width="2" stroke-miterlimit="10" stroke-linecap="round" stroke-dasharray="25 25"/>
</svg>
