<svg width="26" height="26" viewBox="0 0 26 26" fill="none" xmlns="http://www.w3.org/2000/svg">
<g id="Iconly/Light-Outline/Arrow---Up">
<g id="Arrow---Up">
<path id="Combined-Shape" d="M5.80629 19.9484C5.48085 19.6229 5.45373 19.1122 5.72493 18.7558L5.80629 18.6627L17.1068 7.36325L8.95877 7.37993C8.4567 7.38101 8.04881 6.97487 8.04773 6.4728C8.04674 6.01636 8.3823 5.63777 8.82054 5.5719L8.95486 5.56175L19.3035 5.53947C19.3697 5.53932 19.4342 5.54625 19.4964 5.55955C19.5146 5.564 19.5333 5.56859 19.5518 5.57379C19.5681 5.57782 19.5842 5.58283 19.6001 5.58827C19.6229 5.59654 19.646 5.60548 19.6688 5.61541C19.6866 5.6228 19.7033 5.6307 19.7196 5.63908C19.7397 5.64968 19.7606 5.66142 19.7812 5.67406C19.7957 5.6827 19.8092 5.69152 19.8224 5.70068C19.8419 5.71448 19.8616 5.72928 19.8808 5.74498C19.8956 5.75678 19.9097 5.76906 19.9234 5.78175C19.9315 5.78962 19.94 5.79783 19.9484 5.80624L19.973 5.83147C19.9851 5.84458 19.9969 5.85804 20.0082 5.87185L19.9484 5.80624C19.989 5.84681 20.0249 5.89025 20.0562 5.93592C20.0637 5.94678 20.0712 5.9582 20.0784 5.96979C20.0932 5.99371 20.1065 6.01762 20.1187 6.04197C20.1248 6.05403 20.131 6.0672 20.137 6.08054C20.1488 6.10739 20.1591 6.134 20.168 6.16094C20.1723 6.17356 20.1765 6.18707 20.1803 6.20072C20.1866 6.22303 20.1919 6.24487 20.1963 6.26685C20.1995 6.28238 20.2024 6.29896 20.2049 6.31569L20.2067 6.32866C20.212 6.36861 20.2147 6.40884 20.2147 6.44907L20.2145 6.45044L20.1931 16.7999C20.1921 17.302 19.7842 17.7082 19.2821 17.7071C18.8257 17.7062 18.4485 17.369 18.3845 16.9305L18.3749 16.7961L18.3907 8.65061L7.09194 19.9484C6.73692 20.3034 6.16131 20.3034 5.80629 19.9484Z" fill="white"/>
</g>
</g>
</svg>
