<svg width="60" height="60" viewBox="0 0 60 60" fill="none" xmlns="http://www.w3.org/2000/svg">
<g id="BoxArrowUpRight" clip-path="url(#clip0_549_82)">
<path id="Vector" fill-rule="evenodd" clip-rule="evenodd" d="M32.385 13.125C32.385 12.6277 32.1875 12.1508 31.8358 11.7992C31.4842 11.4475 31.0073 11.25 30.51 11.25H5.625C4.13316 11.25 2.70242 11.8426 1.64752 12.8975C0.592632 13.9524 0 15.3832 0 16.875L0 54.375C0 55.8668 0.592632 57.2976 1.64752 58.3525C2.70242 59.4074 4.13316 60 5.625 60H43.125C44.6168 60 46.0476 59.4074 47.1025 58.3525C48.1574 57.2976 48.75 55.8668 48.75 54.375V29.49C48.75 28.9927 48.5525 28.5158 48.2008 28.1642C47.8492 27.8125 47.3723 27.615 46.875 27.615C46.3777 27.615 45.9008 27.8125 45.5492 28.1642C45.1975 28.5158 45 28.9927 45 29.49V54.375C45 54.8723 44.8025 55.3492 44.4508 55.7008C44.0992 56.0525 43.6223 56.25 43.125 56.25H5.625C5.12772 56.25 4.65081 56.0525 4.29917 55.7008C3.94754 55.3492 3.75 54.8723 3.75 54.375V16.875C3.75 16.3777 3.94754 15.9008 4.29917 15.5492C4.65081 15.1975 5.12772 15 5.625 15H30.51C31.0073 15 31.4842 14.8025 31.8358 14.4508C32.1875 14.0992 32.385 13.6223 32.385 13.125Z" fill="#104CBA"/>
<path id="Vector_2" fill-rule="evenodd" clip-rule="evenodd" d="M60 1.875C60 1.37772 59.8025 0.900806 59.4509 0.549175C59.0992 0.197544 58.6223 0 58.125 0L39.3751 0C38.8778 0 38.4009 0.197544 38.0492 0.549175C37.6976 0.900806 37.5001 1.37772 37.5001 1.875C37.5001 2.37228 37.6976 2.84919 38.0492 3.20083C38.4009 3.55246 38.8778 3.75 39.3751 3.75H53.5988L23.0475 34.2975C22.8732 34.4718 22.7349 34.6788 22.6406 34.9066C22.5462 35.1343 22.4977 35.3785 22.4977 35.625C22.4977 35.8715 22.5462 36.1157 22.6406 36.3434C22.7349 36.5712 22.8732 36.7782 23.0475 36.9525C23.2219 37.1268 23.4288 37.2651 23.6566 37.3595C23.8844 37.4538 24.1285 37.5024 24.3751 37.5024C24.6216 37.5024 24.8657 37.4538 25.0935 37.3595C25.3213 37.2651 25.5282 37.1268 25.7026 36.9525L56.25 6.40125V20.625C56.25 21.1223 56.4476 21.5992 56.7992 21.9508C57.1509 22.3025 57.6278 22.5 58.125 22.5C58.6223 22.5 59.0992 22.3025 59.4509 21.9508C59.8025 21.5992 60 21.1223 60 20.625V1.875Z" fill="#104CBA"/>
</g>
<defs>
<clipPath id="clip0_549_82">
<rect width="60" height="60" fill="white"/>
</clipPath>
</defs>
</svg>
