<svg width="66" height="66" viewBox="0 0 66 66" fill="none" xmlns="http://www.w3.org/2000/svg">
<circle opacity="0.1" cx="36.4991" cy="36.5" r="29.5" fill="url(#paint0_linear_1180_417)"/>
<path d="M35.4313 20.7379L25.4964 23.3999C21.6118 24.4408 19.7299 27.8681 20.8168 31.9246L23.3254 41.2865C24.4092 45.3315 27.7526 47.3587 31.6372 46.3178L41.5721 43.6558C45.4567 42.6149 47.3271 39.1907 46.2432 35.1457L43.7347 25.7837C42.6478 21.7273 39.3158 19.697 35.4313 20.7379Z" fill="url(#paint1_linear_1180_417)"/>
<g opacity="0.5" filter="url(#filter0_f_1180_417)">
<rect width="15.8928" height="16.2559" rx="7.9464" transform="matrix(-0.25388 -0.967236 0.964566 -0.26384 26.8619 42.6716)" fill="#8237FF"/>
</g>
<g filter="url(#filter1_b_1180_417)">
<path d="M46.3478 26.9631H34.6273C30.0445 26.9631 26.9623 30.1805 26.9623 34.9661V46.0107C26.9623 50.7827 30.0445 54.0001 34.6273 54.0001H46.3478C50.9306 54.0001 53.9993 50.7827 53.9993 46.0107V34.9661C53.9993 30.1805 50.9306 26.9631 46.3478 26.9631Z" fill="#BA90FF" fill-opacity="0.35"/>
<path d="M46.3478 26.4631H34.6273C32.2145 26.4631 30.1627 27.3129 28.7151 28.8242C27.2694 30.3336 26.4623 32.4649 26.4623 34.9661V46.0107C26.4623 48.5055 27.2696 50.6334 28.7154 52.141C30.1629 53.6504 32.2145 54.5001 34.6273 54.5001H46.3478C48.7606 54.5001 50.8091 53.6504 52.2534 52.1406C53.6957 50.6327 54.4993 48.5049 54.4993 46.0107V34.9661C54.4993 32.4655 53.6959 30.3343 52.2536 28.8246C50.8093 27.3129 48.7607 26.4631 46.3478 26.4631Z" stroke="url(#paint2_linear_1180_417)" stroke-linecap="round" stroke-linejoin="round"/>
</g>
<g filter="url(#filter2_bd_1180_417)">
<mask id="path-6-inside-1_1180_417" fill="white">
<path fill-rule="evenodd" clip-rule="evenodd" d="M44.7919 45.4965C44.9554 45.5925 45.1339 45.6384 45.311 45.6384C45.6557 45.6384 45.9923 45.4613 46.1829 45.1436C46.2798 44.981 46.3259 44.8022 46.3258 44.6257C46.326 44.28 46.1493 43.9429 45.8314 43.7522L41.0189 40.8822V34.6357C41.0189 34.076 40.5646 33.6218 40.005 33.6218C39.4453 33.6218 38.9911 34.076 38.9911 34.6357V41.4581V41.4585C38.9911 41.8154 39.179 42.1466 39.4845 42.3304L44.7919 45.4965Z"/>
</mask>
<path fill-rule="evenodd" clip-rule="evenodd" d="M44.7919 45.4965C44.9554 45.5925 45.1339 45.6384 45.311 45.6384C45.6557 45.6384 45.9923 45.4613 46.1829 45.1436C46.2798 44.981 46.3259 44.8022 46.3258 44.6257C46.326 44.28 46.1493 43.9429 45.8314 43.7522L41.0189 40.8822V34.6357C41.0189 34.076 40.5646 33.6218 40.005 33.6218C39.4453 33.6218 38.9911 34.076 38.9911 34.6357V41.4581V41.4585C38.9911 41.8154 39.179 42.1466 39.4845 42.3304L44.7919 45.4965Z" fill="url(#paint3_linear_1180_417)"/>
<path d="M44.7919 45.4965L44.5869 45.84L44.5894 45.8415L44.7919 45.4965ZM46.1829 45.1436L46.5259 45.3494L46.5266 45.3483L46.1829 45.1436ZM46.3258 44.6257L45.9258 44.6256V44.6258L46.3258 44.6257ZM45.8314 43.7522L46.0372 43.4092L46.0363 43.4086L45.8314 43.7522ZM41.0189 40.8822H40.6189V41.1094L40.814 41.2257L41.0189 40.8822ZM39.4845 42.3304L39.2783 42.6732L39.2796 42.674L39.4845 42.3304ZM45.311 45.2384C45.2038 45.2384 45.0955 45.2108 44.9943 45.1515L44.5894 45.8415C44.8154 45.9741 45.0639 46.0384 45.311 46.0384V45.2384ZM45.8399 44.9379C45.724 45.131 45.52 45.2384 45.311 45.2384V46.0384C45.7914 46.0384 46.2606 45.7917 46.5259 45.3494L45.8399 44.9379ZM45.9258 44.6258C45.9258 44.7322 45.8982 44.8399 45.8392 44.939L46.5266 45.3483C46.6614 45.122 46.7259 44.8722 46.7258 44.6257L45.9258 44.6258ZM46.7258 44.6259C46.726 44.145 46.4802 43.6749 46.0372 43.4092L45.6256 44.0952C45.8183 44.2108 45.9259 44.4149 45.9258 44.6256L46.7258 44.6259ZM46.0363 43.4086L41.2237 40.5386L40.814 41.2257L45.6266 44.0957L46.0363 43.4086ZM40.6189 34.6357V40.8822H41.4189V34.6357H40.6189ZM40.005 34.0218C40.3437 34.0218 40.6189 34.297 40.6189 34.6357H41.4189C41.4189 33.8551 40.7856 33.2218 40.005 33.2218V34.0218ZM39.3911 34.6357C39.3911 34.297 39.6662 34.0218 40.005 34.0218V33.2218C39.2244 33.2218 38.5911 33.8551 38.5911 34.6357H39.3911ZM39.3911 41.4581V34.6357H38.5911V41.4581H39.3911ZM39.3911 41.4585V41.4581H38.5911V41.4585H39.3911ZM39.6908 41.9877C39.5051 41.876 39.3911 41.6746 39.3911 41.4585H38.5911C38.5911 41.9562 38.8529 42.4172 39.2783 42.6732L39.6908 41.9877ZM44.9968 45.153L39.6894 41.9869L39.2796 42.674L44.5869 45.84L44.9968 45.153Z" fill="url(#paint4_linear_1180_417)" mask="url(#path-6-inside-1_1180_417)"/>
</g>
<defs>
<filter id="filter0_f_1180_417" x="0.581543" y="0.824463" width="64.2058" height="64.0334" filterUnits="userSpaceOnUse" color-interpolation-filters="sRGB">
<feFlood flood-opacity="0" result="BackgroundImageFix"/>
<feBlend mode="normal" in="SourceGraphic" in2="BackgroundImageFix" result="shape"/>
<feGaussianBlur stdDeviation="12" result="effect1_foregroundBlur_1180_417"/>
</filter>
<filter id="filter1_b_1180_417" x="1.96228" y="1.96313" width="77.037" height="77.0371" filterUnits="userSpaceOnUse" color-interpolation-filters="sRGB">
<feFlood flood-opacity="0" result="BackgroundImageFix"/>
<feGaussianBlur in="BackgroundImageFix" stdDeviation="12"/>
<feComposite in2="SourceAlpha" operator="in" result="effect1_backgroundBlur_1180_417"/>
<feBlend mode="normal" in="SourceGraphic" in2="effect1_backgroundBlur_1180_417" result="shape"/>
</filter>
<filter id="filter2_bd_1180_417" x="23.9911" y="18.6218" width="37.3347" height="42.0166" filterUnits="userSpaceOnUse" color-interpolation-filters="sRGB">
<feFlood flood-opacity="0" result="BackgroundImageFix"/>
<feGaussianBlur in="BackgroundImageFix" stdDeviation="7.5"/>
<feComposite in2="SourceAlpha" operator="in" result="effect1_backgroundBlur_1180_417"/>
<feColorMatrix in="SourceAlpha" type="matrix" values="0 0 0 0 0 0 0 0 0 0 0 0 0 0 0 0 0 0 127 0" result="hardAlpha"/>
<feOffset dx="5" dy="5"/>
<feGaussianBlur stdDeviation="5"/>
<feColorMatrix type="matrix" values="0 0 0 0 0.577356 0 0 0 0 0.359375 0 0 0 0 0.9375 0 0 0 0.5 0"/>
<feBlend mode="normal" in2="effect1_backgroundBlur_1180_417" result="effect2_dropShadow_1180_417"/>
<feBlend mode="normal" in="SourceGraphic" in2="effect2_dropShadow_1180_417" result="shape"/>
</filter>
<linearGradient id="paint0_linear_1180_417" x1="36.4991" y1="7" x2="36.4991" y2="66" gradientUnits="userSpaceOnUse">
<stop stop-color="#104CBA"/>
<stop offset="1" stop-color="#104CBA" stop-opacity="0"/>
</linearGradient>
<linearGradient id="paint1_linear_1180_417" x1="30.4581" y1="22.0705" x2="36.5989" y2="44.9884" gradientUnits="userSpaceOnUse">
<stop stop-color="#BC94FF"/>
<stop offset="1" stop-color="#9F66FF"/>
</linearGradient>
<linearGradient id="paint2_linear_1180_417" x1="31.2661" y1="30.113" x2="48.5129" y2="51.4735" gradientUnits="userSpaceOnUse">
<stop stop-color="white" stop-opacity="0.25"/>
<stop offset="1" stop-color="white" stop-opacity="0"/>
</linearGradient>
<linearGradient id="paint3_linear_1180_417" x1="45.8058" y1="35.7918" x2="37.6301" y2="35.9545" gradientUnits="userSpaceOnUse">
<stop stop-color="white"/>
<stop offset="1" stop-color="white" stop-opacity="0.2"/>
</linearGradient>
<linearGradient id="paint4_linear_1180_417" x1="40.1587" y1="35.0218" x2="47.7029" y2="40.7251" gradientUnits="userSpaceOnUse">
<stop stop-color="white" stop-opacity="0.25"/>
<stop offset="1" stop-color="white" stop-opacity="0"/>
</linearGradient>
</defs>
</svg>
