<svg width="60" height="60" viewBox="0 0 60 60" fill="none" xmlns="http://www.w3.org/2000/svg">
<g id="CodeSlash">
<path id="Vector" d="M39.2925 6.17635C39.3649 5.94096 39.3902 5.69361 39.367 5.44843C39.3438 5.20325 39.2725 4.96505 39.1573 4.74741C39.042 4.52977 38.885 4.33697 38.6952 4.18C38.5055 4.02304 38.2866 3.905 38.0512 3.8326C37.8158 3.76021 37.5685 3.7349 37.3233 3.7581C37.0781 3.7813 36.8399 3.85256 36.6223 3.96782C36.4047 4.08308 36.2119 4.24008 36.0549 4.42986C35.8979 4.61963 35.7799 4.83846 35.7075 5.07385L20.7075 53.8239C20.5613 54.2993 20.6099 54.8133 20.8427 55.2528C21.0755 55.6923 21.4733 56.0214 21.9487 56.1676C22.4241 56.3138 22.9382 56.2652 23.3777 56.0324C23.8172 55.7996 24.1463 55.4018 24.2925 54.9264L39.2925 6.17635ZM18.2025 15.5476C18.3771 15.7218 18.5156 15.9287 18.6102 16.1565C18.7047 16.3843 18.7533 16.6285 18.7533 16.8751C18.7533 17.1217 18.7047 17.3659 18.6102 17.5937C18.5156 17.8215 18.3771 18.0284 18.2025 18.2026L6.40125 30.0001L18.2025 41.7976C18.5546 42.1497 18.7524 42.6272 18.7524 43.1251C18.7524 43.623 18.5546 44.1005 18.2025 44.4526C17.8504 44.8047 17.3729 45.0025 16.875 45.0025C16.3771 45.0025 15.8996 44.8047 15.5475 44.4526L2.42249 31.3276C2.24788 31.1534 2.10935 30.9465 2.01482 30.7187C1.9203 30.4909 1.87164 30.2467 1.87164 30.0001C1.87164 29.7535 1.9203 29.5093 2.01482 29.2815C2.10935 29.0537 2.24788 28.8468 2.42249 28.6726L15.5475 15.5476C15.7217 15.373 15.9286 15.2345 16.1564 15.1399C16.3842 15.0454 16.6284 14.9968 16.875 14.9968C17.1216 14.9968 17.3658 15.0454 17.5936 15.1399C17.8214 15.2345 18.0283 15.373 18.2025 15.5476ZM41.7975 15.5476C41.6229 15.7218 41.4843 15.9287 41.3898 16.1565C41.2953 16.3843 41.2466 16.6285 41.2466 16.8751C41.2466 17.1217 41.2953 17.3659 41.3898 17.5937C41.4843 17.8215 41.6229 18.0284 41.7975 18.2026L53.5987 30.0001L41.7975 41.7976C41.6232 41.9719 41.4849 42.1789 41.3905 42.4067C41.2962 42.6344 41.2476 42.8786 41.2476 43.1251C41.2476 43.3716 41.2962 43.6158 41.3905 43.8435C41.4849 44.0713 41.6232 44.2783 41.7975 44.4526C41.9718 44.6269 42.1788 44.7652 42.4066 44.8596C42.6343 44.9539 42.8785 45.0025 43.125 45.0025C43.3715 45.0025 43.6157 44.9539 43.8434 44.8596C44.0712 44.7652 44.2782 44.6269 44.4525 44.4526L57.5775 31.3276C57.7521 31.1534 57.8906 30.9465 57.9852 30.7187C58.0797 30.4909 58.1283 30.2467 58.1283 30.0001C58.1283 29.7535 58.0797 29.5093 57.9852 29.2815C57.8906 29.0537 57.7521 28.8468 57.5775 28.6726L44.4525 15.5476C44.2783 15.373 44.0714 15.2345 43.8436 15.1399C43.6158 15.0454 43.3716 14.9968 43.125 14.9968C42.8784 14.9968 42.6342 15.0454 42.4064 15.1399C42.1786 15.2345 41.9717 15.373 41.7975 15.5476Z" fill="white"/>
</g>
</svg>
