<svg width="60" height="60" viewBox="0 0 60 60" fill="none" xmlns="http://www.w3.org/2000/svg">
<g id="Command">
<path id="Vector" d="M13.125 7.5C14.6168 7.5 16.0476 8.09264 17.1025 9.14753C18.1574 10.2024 18.75 11.6332 18.75 13.125V18.75H13.125C12.3863 18.75 11.6549 18.6045 10.9724 18.3218C10.29 18.0391 9.66986 17.6248 9.14753 17.1025C8.6252 16.5802 8.21086 15.9601 7.92818 15.2776C7.6455 14.5951 7.5 13.8637 7.5 13.125C7.5 12.3863 7.6455 11.6549 7.92818 10.9724C8.21086 10.29 8.6252 9.66986 9.14753 9.14753C9.66986 8.6252 10.29 8.21087 10.9724 7.92818C11.6549 7.6455 12.3863 7.5 13.125 7.5ZM22.5 18.75V13.125C22.5 11.2708 21.9502 9.45824 20.92 7.91653C19.8899 6.37482 18.4257 5.17321 16.7127 4.46363C14.9996 3.75406 13.1146 3.56841 11.296 3.93014C9.47746 4.29188 7.807 5.18476 6.49588 6.49588C5.18476 7.807 4.29188 9.47746 3.93014 11.296C3.56841 13.1146 3.75406 14.9996 4.46363 16.7127C5.17321 18.4257 6.37482 19.8899 7.91653 20.92C9.45824 21.9502 11.2708 22.5 13.125 22.5H18.75V37.5H13.125C11.2708 37.5 9.45824 38.0498 7.91653 39.08C6.37482 40.1101 5.17321 41.5743 4.46363 43.2873C3.75406 45.0004 3.56841 46.8854 3.93014 48.704C4.29188 50.5226 5.18476 52.193 6.49588 53.5041C7.807 54.8153 9.47746 55.7081 11.296 56.0699C13.1146 56.4316 14.9996 56.2459 16.7127 55.5364C18.4257 54.8268 19.8899 53.6252 20.92 52.0835C21.9502 50.5418 22.5 48.7292 22.5 46.875V41.25H37.5V46.875C37.5 48.7292 38.0498 50.5418 39.08 52.0835C40.1101 53.6252 41.5743 54.8268 43.2873 55.5364C45.0004 56.2459 46.8854 56.4316 48.704 56.0699C50.5226 55.7081 52.193 54.8153 53.5041 53.5041C54.8153 52.193 55.7081 50.5226 56.0699 48.704C56.4316 46.8854 56.2459 45.0004 55.5364 43.2873C54.8268 41.5743 53.6252 40.1101 52.0835 39.08C50.5418 38.0498 48.7292 37.5 46.875 37.5H41.25V22.5H46.875C48.7292 22.5 50.5418 21.9502 52.0835 20.92C53.6252 19.8899 54.8268 18.4257 55.5364 16.7127C56.2459 14.9996 56.4316 13.1146 56.0699 11.296C55.7081 9.47746 54.8153 7.807 53.5041 6.49588C52.193 5.18476 50.5226 4.29188 48.704 3.93014C46.8854 3.56841 45.0004 3.75406 43.2873 4.46363C41.5743 5.17321 40.1101 6.37482 39.08 7.91653C38.0498 9.45824 37.5 11.2708 37.5 13.125V18.75H22.5ZM37.5 22.5V37.5H22.5V22.5H37.5ZM41.25 18.75V13.125C41.25 12.0125 41.5799 10.9249 42.198 9.99992C42.8161 9.07489 43.6946 8.35393 44.7224 7.92818C45.7502 7.50244 46.8812 7.39105 47.9724 7.60809C49.0635 7.82513 50.0658 8.36086 50.8525 9.14753C51.6392 9.9342 52.1749 10.9365 52.3919 12.0276C52.609 13.1188 52.4976 14.2498 52.0718 15.2776C51.6461 16.3054 50.9251 17.1839 50.0001 17.802C49.0751 18.4201 47.9875 18.75 46.875 18.75H41.25ZM41.25 41.25H46.875C47.9875 41.25 49.0751 41.5799 50.0001 42.198C50.9251 42.8161 51.6461 43.6946 52.0718 44.7224C52.4976 45.7502 52.609 46.8812 52.3919 47.9724C52.1749 49.0635 51.6392 50.0658 50.8525 50.8525C50.0658 51.6392 49.0635 52.1749 47.9724 52.3919C46.8812 52.609 45.7502 52.4976 44.7224 52.0718C43.6946 51.6461 42.8161 50.9251 42.198 50.0001C41.5799 49.0751 41.25 47.9875 41.25 46.875V41.25ZM18.75 41.25V46.875C18.75 47.9875 18.4201 49.0751 17.802 50.0001C17.1839 50.9251 16.3054 51.6461 15.2776 52.0718C14.2498 52.4976 13.1188 52.609 12.0276 52.3919C10.9365 52.1749 9.9342 51.6392 9.14753 50.8525C8.36086 50.0658 7.82513 49.0635 7.60809 47.9724C7.39105 46.8812 7.50244 45.7502 7.92818 44.7224C8.35393 43.6946 9.07489 42.8161 9.99992 42.198C10.9249 41.5799 12.0125 41.25 13.125 41.25H18.75Z" fill="#104CBA"/>
</g>
</svg>
