<svg width="60" height="60" viewBox="0 0 60 60" fill="none" xmlns="http://www.w3.org/2000/svg">
<g id="Dice5" clip-path="url(#clip0_549_88)">
<path id="Vector" d="M48.75 3.75C50.7391 3.75 52.6468 4.54018 54.0533 5.9467C55.4598 7.35322 56.25 9.26088 56.25 11.25V48.75C56.25 50.7391 55.4598 52.6468 54.0533 54.0533C52.6468 55.4598 50.7391 56.25 48.75 56.25H11.25C9.26088 56.25 7.35322 55.4598 5.9467 54.0533C4.54018 52.6468 3.75 50.7391 3.75 48.75V11.25C3.75 9.26088 4.54018 7.35322 5.9467 5.9467C7.35322 4.54018 9.26088 3.75 11.25 3.75H48.75ZM11.25 0C8.26631 0 5.40483 1.18526 3.29505 3.29505C1.18526 5.40483 0 8.26631 0 11.25L0 48.75C0 51.7337 1.18526 54.5952 3.29505 56.705C5.40483 58.8147 8.26631 60 11.25 60H48.75C51.7337 60 54.5952 58.8147 56.705 56.705C58.8147 54.5952 60 51.7337 60 48.75V11.25C60 8.26631 58.8147 5.40483 56.705 3.29505C54.5952 1.18526 51.7337 0 48.75 0L11.25 0Z" fill="#104CBA"/>
<path id="Vector_2" d="M20.625 15C20.625 16.4918 20.0324 17.9226 18.9775 18.9775C17.9226 20.0324 16.4918 20.625 15 20.625C13.5082 20.625 12.0774 20.0324 11.0225 18.9775C9.96763 17.9226 9.375 16.4918 9.375 15C9.375 13.5082 9.96763 12.0774 11.0225 11.0225C12.0774 9.96763 13.5082 9.375 15 9.375C16.4918 9.375 17.9226 9.96763 18.9775 11.0225C20.0324 12.0774 20.625 13.5082 20.625 15ZM50.625 15C50.625 16.4918 50.0324 17.9226 48.9775 18.9775C47.9226 20.0324 46.4918 20.625 45 20.625C43.5082 20.625 42.0774 20.0324 41.0225 18.9775C39.9676 17.9226 39.375 16.4918 39.375 15C39.375 13.5082 39.9676 12.0774 41.0225 11.0225C42.0774 9.96763 43.5082 9.375 45 9.375C46.4918 9.375 47.9226 9.96763 48.9775 11.0225C50.0324 12.0774 50.625 13.5082 50.625 15ZM50.625 45C50.625 46.4918 50.0324 47.9226 48.9775 48.9775C47.9226 50.0324 46.4918 50.625 45 50.625C43.5082 50.625 42.0774 50.0324 41.0225 48.9775C39.9676 47.9226 39.375 46.4918 39.375 45C39.375 43.5082 39.9676 42.0774 41.0225 41.0225C42.0774 39.9676 43.5082 39.375 45 39.375C46.4918 39.375 47.9226 39.9676 48.9775 41.0225C50.0324 42.0774 50.625 43.5082 50.625 45ZM20.625 45C20.625 46.4918 20.0324 47.9226 18.9775 48.9775C17.9226 50.0324 16.4918 50.625 15 50.625C13.5082 50.625 12.0774 50.0324 11.0225 48.9775C9.96763 47.9226 9.375 46.4918 9.375 45C9.375 43.5082 9.96763 42.0774 11.0225 41.0225C12.0774 39.9676 13.5082 39.375 15 39.375C16.4918 39.375 17.9226 39.9676 18.9775 41.0225C20.0324 42.0774 20.625 43.5082 20.625 45ZM35.625 30C35.625 31.4918 35.0324 32.9226 33.9775 33.9775C32.9226 35.0324 31.4918 35.625 30 35.625C28.5082 35.625 27.0774 35.0324 26.0225 33.9775C24.9676 32.9226 24.375 31.4918 24.375 30C24.375 28.5082 24.9676 27.0774 26.0225 26.0225C27.0774 24.9676 28.5082 24.375 30 24.375C31.4918 24.375 32.9226 24.9676 33.9775 26.0225C35.0324 27.0774 35.625 28.5082 35.625 30Z" fill="#104CBA"/>
</g>
<defs>
<clipPath id="clip0_549_88">
<rect width="60" height="60" fill="white"/>
</clipPath>
</defs>
</svg>
