<svg width="39" height="35" viewBox="0 0 39 35" fill="none" xmlns="http://www.w3.org/2000/svg">
<path fill-rule="evenodd" clip-rule="evenodd" d="M28.1059 0C34.0828 0 38.5897 4.87667 38.5897 11.3436V23.6708C38.5897 26.9805 37.4195 29.9708 35.2926 32.0923C33.3846 33.9931 30.9095 35 28.1346 35H10.4497C7.68026 35 5.20692 33.9949 3.29718 32.0923C1.17026 29.9708 0 26.9805 0 23.6708V11.3436C0 4.87667 4.50692 0 10.4838 0H28.1059ZM28.1059 2.69231H10.4838C5.96974 2.69231 2.69231 6.33051 2.69231 11.3436V23.6708C2.69231 26.2608 3.58256 28.5744 5.19795 30.1844C6.59077 31.5754 8.40897 32.3077 10.4551 32.3077H28.1059C28.1095 32.3041 28.1238 32.3077 28.1346 32.3077C30.1826 32.3077 31.999 31.5754 33.3918 30.1844C35.009 28.5744 35.8974 26.2608 35.8974 23.6708V11.3436C35.8974 6.33051 32.62 2.69231 28.1059 2.69231ZM30.9346 11.0004C31.4031 11.5766 31.3151 12.4237 30.739 12.894L22.7626 19.3771C21.7538 20.1776 20.5477 20.5778 19.3433 20.5778C18.1426 20.5778 16.9454 20.1812 15.9438 19.3878L7.89385 12.8976C7.3141 12.4309 7.22436 11.5819 7.68923 11.004C8.15769 10.4278 9.00487 10.3363 9.58282 10.8012L17.6256 17.2843C18.6362 18.0848 20.0595 18.0848 21.0772 17.2771L29.0392 10.8048C29.6172 10.3327 30.4644 10.4225 30.9346 11.0004Z" fill="#913BFF"/>
</svg>
