<svg width="142" height="142" viewBox="0 0 142 142" fill="none" xmlns="http://www.w3.org/2000/svg">
<circle cx="71" cy="71" r="71" fill="white"/>
<circle opacity="0.1" cx="70.5" cy="71.5" r="45" fill="white" stroke="#913BFF"/>
<path d="M63.498 122.847L63.3596 123.546L68.0656 124.478L67.5549 127.056L63.01 126.156L62.8738 126.844L67.4186 127.744L66.9164 130.28L62.2104 129.347L62.072 130.046L67.5409 131.129L68.9668 123.93L63.498 122.847Z" fill="#913BFF"/>
<path d="M54.6716 121.273L50.8736 122.956L50.8148 122.926L49.8666 118.882L48.9644 118.433L50.0558 123.075L50.0314 123.124L45.6951 125.003L46.5972 125.452L50.3561 123.824L50.4051 123.848L51.4022 127.843L52.2946 128.287L51.1837 123.709L51.213 123.651L55.5639 121.717L54.6716 121.273Z" fill="#913BFF"/>
<path d="M41.6903 114.946L40.1026 116.714L38.1709 114.98C36.989 113.92 35.5503 113.85 34.4967 115.023C33.4505 116.189 33.6746 117.612 34.8564 118.673L37.3669 120.926L42.269 115.465L41.6903 114.946ZM35.3809 118.187C34.4191 117.323 34.2641 116.463 35.0836 115.55C35.9177 114.621 36.7824 114.691 37.7442 115.554L39.627 117.244L37.2638 119.877L35.3809 118.187Z" fill="#913BFF"/>
<path d="M27.3291 99.931L26.7587 100.357L29.544 104.087L24.2345 108.052L24.6998 108.675L30.5798 104.284L27.3291 99.931Z" fill="#913BFF"/>
<path d="M25.7867 97.4315C24.8204 95.4533 22.8137 94.7391 20.7568 95.7439C18.6999 96.7486 18.0297 98.7704 18.996 100.749C19.9526 102.707 21.9593 103.421 24.0162 102.417C26.0731 101.412 26.7434 99.39 25.7867 97.4315ZM25.1076 97.7632C25.9201 99.4264 25.4469 100.803 23.6557 101.678C21.8645 102.553 20.4875 102.08 19.675 100.417C18.8578 98.7438 19.3262 97.3569 21.1174 96.482C22.9086 95.6071 24.2904 96.0901 25.1076 97.7632Z" fill="#913BFF"/>
<path d="M20.9825 87.6131L18.0494 88.2486L17.7154 86.7071C17.509 85.7544 17.6847 85.3241 18.2053 84.8302L20.006 83.1064L19.8158 82.2286L17.9136 84.0529C17.5495 84.3896 17.297 84.7245 17.2706 85.2233L17.2171 85.2349C16.8974 83.9145 15.9555 83.1883 14.7459 83.4504C13.4292 83.7357 12.8895 84.9173 13.2143 86.416L13.975 89.9271L21.1472 88.3731L20.9825 87.6131ZM14.5062 89.0163L13.9124 86.2759C13.6665 85.1412 13.9862 84.4444 15.0032 84.224C16.0201 84.0037 16.5996 84.5057 16.8455 85.6404L17.4392 88.3808L14.5062 89.0163Z" fill="#913BFF"/>
<path d="M18.4899 71.1464L17.7782 71.1267L17.6457 75.9223L15.0179 75.8497L15.1459 71.2183L14.4452 71.1989L14.3172 75.8303L11.7333 75.7589L11.8658 70.9633L11.1541 70.9436L11.0001 76.5166L18.3359 76.7193L18.4899 71.1464Z" fill="#913BFF"/>
<path d="M18.5948 59.1334L13.8813 57.0097L12.9736 56.6248L12.9961 56.5748L14.0883 56.5504L19.4057 56.2671L19.7927 55.4083L16.4819 51.2377L15.7722 50.4133L15.7992 50.3534L16.6889 50.7783L21.4024 52.902L21.7219 52.193L15.0311 49.1784L14.5902 50.1571L17.9463 54.3602L18.9236 55.4973L18.9011 55.5473L17.3974 55.5785L12.021 55.8592L11.5846 56.8279L18.2754 59.8424L18.5948 59.1334Z" fill="#913BFF"/>
<path d="M29.3771 38.4901C30.8496 36.8534 30.7606 34.7253 29.0588 33.1942C27.357 31.663 25.2314 31.7985 23.7588 33.4351C22.301 35.0555 22.39 37.1836 24.0918 38.7147C25.7936 40.2459 27.9192 40.1104 29.3771 38.4901ZM28.8153 37.9846C27.5772 39.3606 26.1232 39.4374 24.6412 38.104C23.1593 36.7707 23.0826 35.3167 24.3207 33.9406C25.5661 32.5564 27.0274 32.4715 28.5094 33.8048C29.9913 35.1382 30.0607 36.6003 28.8153 37.9846Z" fill="#913BFF"/>
<path d="M36.6828 30.3591L34.9953 27.8773L36.2996 26.9904C37.1058 26.4423 37.5706 26.4442 38.2234 26.742L40.496 27.7663L41.2388 27.2613L38.835 26.1805C38.3865 25.9689 37.9815 25.8602 37.509 26.0224L37.4782 25.9772C38.5829 25.1863 38.9036 24.0411 38.2077 23.0176C37.4502 21.9035 36.1525 21.8455 34.8844 22.7077L31.9135 24.7277L36.0397 30.7963L36.6828 30.3591ZM32.9569 24.8792L35.2756 23.3026C36.2357 22.6498 37.0016 22.6853 37.5867 23.5458C38.1717 24.4063 37.9232 25.1316 36.9631 25.7844L34.6443 27.361L32.9569 24.8792Z" fill="#913BFF"/>
<path d="M51.0185 21.8829L50.7703 21.2156L46.2738 22.8882L45.3574 20.4244L49.6998 18.8091L49.4554 18.1521L45.113 19.7674L44.2118 17.3446L48.7082 15.6721L48.46 15.0048L43.2347 16.9485L45.7932 23.8266L51.0185 21.8829Z" fill="#913BFF"/>
<path d="M60.1714 18.9857L59.9314 17.4822L58.9796 17.6342L59.2196 19.1376L60.1714 18.9857Z" fill="#913BFF"/>
<path d="M75.754 18.0135L75.8485 17.3078L71.0935 16.6712L71.4423 14.0657L76.0345 14.6805L76.1275 13.9857L71.5353 13.3709L71.8783 10.8089L76.6333 11.4455L76.7278 10.7398L71.202 10L70.2282 17.2736L75.754 18.0135Z" fill="#913BFF"/>
<path d="M84.6614 19.0335L88.3469 17.1173L88.4075 17.1428L89.6063 21.12L90.5347 21.5117L89.1557 16.9474L89.177 16.8969L93.3876 14.7504L92.4592 14.3587L88.8093 16.2187L88.7589 16.1974L87.5143 12.2722L86.596 11.8848L87.9904 16.3843L87.9649 16.4449L83.7431 18.6461L84.6614 19.0335Z" fill="#913BFF"/>
<path d="M98.0122 24.5384L99.4865 22.674L101.523 24.2841C102.768 25.2692 104.209 25.2491 105.187 24.0119C106.158 22.7833 105.846 21.3772 104.6 20.3921L101.954 18.2997L97.4022 24.0561L98.0122 24.5384ZM104.107 20.9098C105.121 21.7115 105.329 22.5605 104.568 23.5227C103.794 24.5022 102.927 24.4866 101.913 23.6849L99.928 22.1156L102.122 19.3405L104.107 20.9098Z" fill="#913BFF"/>
<path d="M113.283 38.6273L113.825 38.1665L110.813 34.6178L115.864 30.3292L115.361 29.7363L109.767 34.4857L113.283 38.6273Z" fill="#913BFF"/>
<path d="M114.978 41.0258C116.066 42.9398 118.113 43.5274 120.104 42.3962C122.094 41.265 122.637 39.2053 121.549 37.2913C120.472 35.3964 118.424 34.8088 116.434 35.94C114.444 37.0712 113.901 39.1308 114.978 41.0258ZM115.635 40.6524C114.721 39.0431 115.107 37.6392 116.84 36.6542C118.573 35.6691 119.977 36.0555 120.892 37.6648C121.812 39.2836 121.431 40.697 119.698 41.682C117.965 42.667 116.555 42.2712 115.635 40.6524Z" fill="#913BFF"/>
<path d="M120.386 50.5251L123.274 49.7078L123.703 51.2254C123.969 52.1633 123.82 52.6038 123.331 53.1292L121.642 54.962L121.886 55.8262L123.671 53.8868C124.013 53.5281 124.244 53.1781 124.24 52.6786L124.292 52.6636C124.694 53.9615 125.679 54.6275 126.87 54.2904C128.166 53.9235 128.631 52.7105 128.214 51.235L127.235 47.7782L120.174 49.7768L120.386 50.5251ZM126.762 48.7204L127.526 51.4184C127.842 52.5355 127.566 53.251 126.565 53.5343C125.564 53.8177 124.954 53.3528 124.638 52.2357L123.874 49.5377L126.762 48.7204Z" fill="#913BFF"/>
<path d="M123.902 66.8042L124.613 66.7794L124.446 61.9848L127.073 61.8933L127.234 66.5237L127.935 66.4992L127.774 61.8689L130.357 61.7789L130.524 66.5734L131.236 66.5487L131.042 60.9769L123.707 61.2324L123.902 66.8042Z" fill="#913BFF"/>
<path d="M124.546 78.8002L129.383 80.6256L130.313 80.9531L130.294 81.0044L129.205 81.0969L123.916 81.7115L123.583 82.5928L127.148 86.5487L127.908 87.3271L127.885 87.3886L126.97 87.0201L122.133 85.1947L121.859 85.9223L128.724 88.5134L129.103 87.5091L125.491 83.5236L124.445 82.4497L124.464 82.3985L125.963 82.2734L131.312 81.6577L131.687 80.6637L124.821 78.0726L124.546 78.8002Z" fill="#913BFF"/>
<path d="M115.073 100.077C113.706 101.802 113.928 103.92 115.722 105.342C117.516 106.764 119.629 106.496 120.996 104.771C122.35 103.063 122.129 100.944 120.334 99.5224C118.54 98.1005 116.427 98.3684 115.073 100.077ZM115.666 100.546C116.816 99.0953 118.262 98.928 119.824 100.166C121.386 101.404 121.554 102.851 120.404 104.302C119.247 105.761 117.794 105.937 116.232 104.698C114.67 103.46 114.509 102.005 115.666 100.546Z" fill="#913BFF"/>
<path d="M108.29 108.647L110.129 111.019L108.882 111.986C108.112 112.583 107.648 112.61 106.978 112.354L104.646 111.473L103.936 112.024L106.402 112.952C106.863 113.135 107.274 113.219 107.736 113.027L107.769 113.07C106.716 113.929 106.467 115.092 107.226 116.07C108.051 117.134 109.35 117.111 110.562 116.172L113.401 113.97L108.904 108.171L108.29 108.647ZM112.35 113.884L110.134 115.602C109.217 116.314 108.45 116.326 107.813 115.504C107.175 114.682 107.378 113.942 108.295 113.231L110.511 111.512L112.35 113.884Z" fill="#913BFF"/>
<path d="M94.5106 118.002L94.7999 118.652L99.1832 116.702L100.252 119.104L96.0185 120.987L96.3034 121.628L100.537 119.745L101.587 122.107L97.204 124.056L97.4934 124.707L102.587 122.441L99.6044 115.736L94.5106 118.002Z" fill="#913BFF"/>
<path d="M85.5569 121.465L85.8903 122.95L86.8307 122.739L86.4974 121.254L85.5569 121.465Z" fill="#913BFF"/>
<path d="M71 48L76.1638 63.8926H92.8743L79.3552 73.7148L84.5191 89.6074L71 79.7852L57.4809 89.6074L62.6448 73.7148L49.1257 63.8926H65.8362L71 48Z" fill="#913BFF"/>
</svg>
