<svg width="60" height="60" viewBox="0 0 60 60" fill="none" xmlns="http://www.w3.org/2000/svg">
<g id="FileEarmarkCode">
<path id="Vector" d="M52.5 16.875V52.5C52.5 54.4891 51.7098 56.3968 50.3033 57.8033C48.8968 59.2098 46.9891 60 45 60H15C13.0109 60 11.1032 59.2098 9.6967 57.8033C8.29018 56.3968 7.5 54.4891 7.5 52.5V7.5C7.5 5.51088 8.29018 3.60322 9.6967 2.1967C11.1032 0.790176 13.0109 0 15 0L35.625 0L52.5 16.875ZM41.25 16.875C39.7582 16.875 38.3274 16.2824 37.2725 15.2275C36.2176 14.1726 35.625 12.7418 35.625 11.25V3.75H15C14.0054 3.75 13.0516 4.14509 12.3483 4.84835C11.6451 5.55161 11.25 6.50544 11.25 7.5V52.5C11.25 53.4946 11.6451 54.4484 12.3483 55.1516C13.0516 55.8549 14.0054 56.25 15 56.25H45C45.9946 56.25 46.9484 55.8549 47.6516 55.1516C48.3549 54.4484 48.75 53.4946 48.75 52.5V16.875H41.25Z" fill="#104CBA"/>
<path id="Vector_2" d="M32.4225 24.9224C32.5967 24.7478 32.8036 24.6093 33.0314 24.5148C33.2592 24.4202 33.5034 24.3716 33.75 24.3716C33.9966 24.3716 34.2408 24.4202 34.4686 24.5148C34.6964 24.6093 34.9033 24.7478 35.0775 24.9224L42.5775 32.4224C42.7521 32.5966 42.8906 32.8035 42.9852 33.0313C43.0797 33.2591 43.1283 33.5033 43.1283 33.7499C43.1283 33.9966 43.0797 34.2408 42.9852 34.4686C42.8906 34.6964 42.7521 34.9033 42.5775 35.0774L35.0775 42.5774C34.7254 42.9295 34.2479 43.1273 33.75 43.1273C33.2521 43.1273 32.7746 42.9295 32.4225 42.5774C32.0704 42.2254 31.8726 41.7478 31.8726 41.2499C31.8726 40.752 32.0704 40.2745 32.4225 39.9224L38.5987 33.7499L32.4225 27.5774C32.2479 27.4033 32.1093 27.1964 32.0148 26.9686C31.9203 26.7408 31.8716 26.4966 31.8716 26.2499C31.8716 26.0033 31.9203 25.7591 32.0148 25.5313C32.1093 25.3035 32.2479 25.0966 32.4225 24.9224ZM27.5775 24.9224C27.4033 24.7478 27.1964 24.6093 26.9686 24.5148C26.7408 24.4202 26.4966 24.3716 26.25 24.3716C26.0034 24.3716 25.7592 24.4202 25.5314 24.5148C25.3036 24.6093 25.0967 24.7478 24.9225 24.9224L17.4225 32.4224C17.2479 32.5966 17.1093 32.8035 17.0148 33.0313C16.9203 33.2591 16.8716 33.5033 16.8716 33.7499C16.8716 33.9966 16.9203 34.2408 17.0148 34.4686C17.1093 34.6964 17.2479 34.9033 17.4225 35.0774L24.9225 42.5774C25.2746 42.9295 25.7521 43.1273 26.25 43.1273C26.7479 43.1273 27.2254 42.9295 27.5775 42.5774C27.9296 42.2254 28.1274 41.7478 28.1274 41.2499C28.1274 40.752 27.9296 40.2745 27.5775 39.9224L21.4012 33.7499L27.5775 27.5774C27.7521 27.4033 27.8906 27.1964 27.9852 26.9686C28.0797 26.7408 28.1283 26.4966 28.1283 26.2499C28.1283 26.0033 28.0797 25.7591 27.9852 25.5313C27.8906 25.3035 27.7521 25.0966 27.5775 24.9224Z" fill="#104CBA"/>
</g>
</svg>
