<svg width="70" height="70" viewBox="0 0 70 70" fill="none" xmlns="http://www.w3.org/2000/svg">
<g id="headphones 1" clip-path="url(#clip0_975_85)">
<g id="Group">
<g id="Group_2">
<path id="Vector" d="M56.2122 21.2122C52.1119 21.2122 48.7879 17.8883 48.7879 13.7879C48.7879 6.17299 42.6148 0 35 0C27.3852 0 21.2122 6.17299 21.2122 13.7878C21.2122 17.8881 17.8883 21.2121 13.7879 21.2121C6.17299 21.2122 0 27.3852 0 35C0 42.6148 6.17299 48.7878 13.7878 48.7878C17.8881 48.7878 21.2121 52.1117 21.2121 56.2121C21.2122 63.827 27.3852 70 35 70C42.6148 70 48.7878 63.827 48.7878 56.2122C48.7878 52.1119 52.1117 48.7879 56.2121 48.7879C63.827 48.7878 70 42.6148 70 35C70 27.3852 63.827 21.2122 56.2122 21.2122Z" fill="url(#paint0_linear_975_85)"/>
<g id="Group_3">
<g id="Group_4" opacity="0.1">
<path id="Vector_2" opacity="0.1" d="M35.0001 57.3354C42.3529 57.3354 48.3136 51.3748 48.3136 44.0219C48.3136 36.669 42.3529 30.7084 35.0001 30.7084C27.6472 30.7084 21.6865 36.669 21.6865 44.0219C21.6865 51.3748 27.6472 57.3354 35.0001 57.3354Z" fill="#2626BC"/>
<path id="Vector_3" opacity="0.1" d="M61.7543 38.5075H61.2644V37.2608C61.2644 35.2096 59.6015 33.5467 57.5503 33.5467H57.1918C57.4169 32.2604 57.5316 30.9502 57.5316 29.6368C57.5316 24.2702 55.6305 19.1133 52.1645 15.0412C51.9309 14.7667 51.5161 14.7394 51.2484 14.9809L50.7989 15.3867C50.7725 15.3375 50.7418 15.2899 50.7023 15.247C46.6768 10.8563 40.9535 8.3382 35.0002 8.3382C29.0301 8.3382 23.296 10.8683 19.2679 15.2795C19.2394 15.3109 19.2153 15.3448 19.1937 15.3793L18.752 14.9807C18.4844 14.7391 18.0695 14.7664 17.8358 15.041C14.37 19.113 12.4688 24.2699 12.4688 29.6365C12.4688 30.9498 12.5836 32.2601 12.8085 33.5464H12.4501C10.3989 33.5464 8.73596 35.2093 8.73596 37.2605V38.5072H8.24609C7.86861 38.5072 7.5625 38.8134 7.5625 39.1908V43.3379C7.5625 43.7154 7.86861 44.0215 8.24609 44.0215H8.73596V52.3463C8.73596 54.3976 10.3989 56.0604 12.4501 56.0604H17.0761C17.8312 56.0604 18.4433 55.4483 18.4433 54.6932V34.9139C18.4433 34.1588 17.8312 33.5467 17.0761 33.5467H16.7128C16.441 32.2685 16.3017 30.955 16.3017 29.6368C16.3017 25.2076 17.8619 20.9508 20.7079 17.5805C20.9306 17.3168 20.9057 16.9248 20.6495 16.6936L20.19 16.279C20.2205 16.2553 20.2505 16.231 20.2775 16.2016C24.0472 12.0732 29.4134 9.70538 35.0002 9.70538C40.5713 9.70538 45.9273 12.0619 49.6946 16.1707C49.7315 16.2109 49.7728 16.2441 49.8161 16.2735L49.3507 16.6935C49.0945 16.9247 49.0696 17.3167 49.2923 17.5804C52.1383 20.9506 53.6985 25.2075 53.6985 29.6366C53.6985 30.9549 53.5592 32.2684 53.2874 33.5465H52.9241C52.1691 33.5465 51.557 34.1586 51.557 34.9137V54.6935C51.557 55.4486 52.1691 56.0607 52.9241 56.0607H54.1434V57.7957C54.1434 60.3546 52.0616 62.4363 49.5028 62.4363H43.4311C43.3875 62.4363 43.3451 62.4414 43.3037 62.4491C43.0604 61.879 42.495 61.4793 41.836 61.4793H36.6167C35.7359 61.4793 35.0216 62.1933 35.0216 63.0744C35.0216 63.9554 35.7357 64.6695 36.6167 64.6695H41.8361C42.4631 64.6695 43.004 64.3069 43.2647 63.7808C43.3183 63.7943 43.3734 63.8036 43.4312 63.8036H49.5029C52.8156 63.8036 55.5107 61.1085 55.5107 57.7958V56.0608H57.5503C59.6015 56.0608 61.2644 54.3979 61.2644 52.3467V44.0219H61.7543C62.1317 44.0219 62.4379 43.7158 62.4379 43.3383V39.1912C62.4379 38.8136 62.1317 38.5075 61.7543 38.5075Z" fill="#2626BC"/>
</g>
<path id="Vector_4" d="M30.8345 15.6367H30.4243V15.2265C30.4243 14.8489 30.1182 14.5429 29.7407 14.5429C29.3632 14.5429 29.0571 14.8489 29.0571 15.2265V15.6367H28.647C28.2695 15.6367 27.9634 15.9426 27.9634 16.3203C27.9634 16.6979 28.2695 17.0038 28.647 17.0038H29.0571V17.414C29.0571 17.7916 29.3632 18.0976 29.7407 18.0976C30.1182 18.0976 30.4243 17.7916 30.4243 17.414V17.0038H30.8345C31.212 17.0038 31.5181 16.6979 31.5181 16.3203C31.5181 15.9426 31.212 15.6367 30.8345 15.6367Z" fill="#8383FF"/>
<path id="Vector_5" d="M60.813 15.0898H60.4028V14.6796C60.4028 14.302 60.0967 13.996 59.7192 13.996C59.3418 13.996 59.0356 14.302 59.0356 14.6796V15.0898H58.6255C58.248 15.0898 57.9419 15.3958 57.9419 15.7734C57.9419 16.151 58.248 16.457 58.6255 16.457H59.0356V16.8671C59.0356 17.2447 59.3418 17.5507 59.7192 17.5507C60.0967 17.5507 60.4028 17.2447 60.4028 16.8671V16.457H60.813C61.1905 16.457 61.4966 16.151 61.4966 15.7734C61.4966 15.3958 61.1905 15.0898 60.813 15.0898Z" fill="#FF9D33"/>
<path id="Vector_6" d="M37.1582 20.166C36.9832 20.166 36.8083 20.0993 36.6747 19.9657L36.0644 19.3554L35.4541 19.9657C35.1871 20.2327 34.7544 20.2327 34.4874 19.9657C34.2204 19.6988 34.2204 19.266 34.4874 18.9991L35.5811 17.9053C35.8481 17.6383 36.2808 17.6383 36.5479 17.9053L37.6416 18.9991C37.9086 19.266 37.9086 19.6988 37.6416 19.9657C37.508 20.0993 37.3332 20.166 37.1582 20.166Z" fill="#FF6C6C"/>
<path id="Vector_7" d="M57.5561 9.02182C57.3811 9.02182 57.2063 8.9551 57.0727 8.82152L56.4624 8.21121L55.8521 8.82152C55.585 9.08854 55.1523 9.08854 54.8853 8.82152C54.6183 8.55465 54.6183 8.1218 54.8853 7.85492L55.9791 6.76117C56.2461 6.49416 56.6788 6.49416 56.9458 6.76117L58.0396 7.85492C58.3066 8.1218 58.3066 8.55465 58.0396 8.82152C57.906 8.9551 57.7311 9.02182 57.5561 9.02182Z" fill="#FF6C6C"/>
<path id="Vector_8" d="M18.852 60.6136C18.677 60.6136 18.5022 60.5468 18.3686 60.4133L17.7583 59.8029L17.148 60.4133C16.8809 60.6803 16.4482 60.6803 16.1812 60.4133C15.9142 60.1464 15.9142 59.7135 16.1812 59.4467L17.275 58.3529C17.542 58.0859 17.9747 58.0859 18.2417 58.3529L19.3355 59.4467C19.6025 59.7135 19.6025 60.1464 19.3355 60.4133C19.2019 60.5467 19.027 60.6136 18.852 60.6136Z" fill="#FF9D33"/>
<g id="Group_5">
<g id="Group_6">
<g id="Group_7">
<path id="Vector_9" d="M35.0001 53.6439C42.3529 53.6439 48.3136 47.6832 48.3136 40.3304C48.3136 32.9775 42.3529 27.0168 35.0001 27.0168C27.6472 27.0168 21.6865 32.9775 21.6865 40.3304C21.6865 47.6832 27.6472 53.6439 35.0001 53.6439Z" fill="#FFC599"/>
<path id="Vector_10" d="M35.0002 50.8056C40.7855 50.8056 45.4754 46.1157 45.4754 40.3304C45.4754 34.545 40.7855 29.8551 35.0002 29.8551C29.2148 29.8551 24.5249 34.545 24.5249 40.3304C24.5249 46.1157 29.2148 50.8056 35.0002 50.8056Z" fill="#FF7300"/>
<g id="Group_8">
<path id="Vector_11" d="M34.9999 47.3568C31.1255 47.3568 27.9736 44.2047 27.9736 40.3304C27.9736 36.4561 31.1255 33.3041 34.9999 33.3041C38.8742 33.3041 42.0261 36.4561 42.0261 40.3304C42.0261 44.2047 38.8742 47.3568 34.9999 47.3568ZM34.9999 34.6715C31.8794 34.6715 29.3408 37.2101 29.3408 40.3305C29.3408 43.451 31.8794 45.9897 34.9999 45.9897C38.1204 45.9897 40.6589 43.4511 40.6589 40.3305C40.6589 37.2101 38.1204 34.6715 34.9999 34.6715Z" fill="white"/>
<path id="Vector_12" d="M35 47.3568C32.7533 47.3568 31.541 43.7366 31.541 40.3304C31.541 36.9243 32.7533 33.3041 35 33.3041C37.2467 33.3041 38.459 36.9243 38.459 40.3304C38.459 43.7366 37.2467 47.3568 35 47.3568ZM35 34.6715C34.1471 34.6715 32.9082 36.8759 32.9082 40.3305C32.9082 41.9326 33.1766 43.4279 33.6637 44.5415C34.0546 45.4348 34.5666 45.9897 35 45.9897C35.8529 45.9897 37.0918 43.7851 37.0918 40.3305C37.0918 38.7286 36.8234 37.2332 36.3363 36.1197C35.9454 35.2263 35.4334 34.6715 35 34.6715Z" fill="white"/>
<g id="Group_9">
<path id="Vector_13" d="M34.9998 39.0135C32.7628 39.0135 30.6578 38.515 29.3686 37.68C29.0517 37.4748 28.9614 37.0515 29.1666 36.7346C29.3718 36.4179 29.7952 36.3275 30.112 36.5325C31.1886 37.2299 33.0159 37.6462 34.9998 37.6462C36.9822 37.6462 38.8691 37.2103 39.924 36.5086C40.2382 36.2995 40.6626 36.3848 40.8719 36.6991C41.0809 37.0136 40.9956 37.4378 40.6813 37.647C39.3949 38.5027 37.271 39.0135 34.9998 39.0135Z" fill="white"/>
<path id="Vector_14" d="M29.6819 44.2772C29.4619 44.2772 29.2457 44.1711 29.1138 43.9746C28.9032 43.6613 28.9866 43.2366 29.3 43.0261C30.5852 42.1628 32.7159 41.6473 34.9997 41.6473C37.2364 41.6473 39.3414 42.1458 40.6307 42.9808C40.9476 43.186 41.0381 43.6093 40.8329 43.9261C40.6277 44.2429 40.2046 44.3339 39.8875 44.1283C38.8106 43.4309 36.9833 43.0146 34.9997 43.0146C33.007 43.0146 31.1151 43.4539 30.0623 44.1611C29.9455 44.2396 29.8128 44.2772 29.6819 44.2772Z" fill="white"/>
</g>
</g>
</g>
<g id="Group_10">
<g id="Group_11">
<g id="Group_12">
<path id="Vector_15" d="M17.076 52.3693H12.4499C10.3987 52.3693 8.73584 50.7064 8.73584 48.6552V33.5694C8.73584 31.5182 10.3987 29.8553 12.4499 29.8553H17.076C17.8311 29.8553 18.4431 30.4674 18.4431 31.2225V51.0023C18.4431 51.7572 17.8311 52.3693 17.076 52.3693Z" fill="#8383FF"/>
</g>
<g id="Group_13">
<path id="Vector_16" d="M17.0762 29.8553H15.1733V52.3695H17.0762C17.8313 52.3695 18.4434 51.7574 18.4434 51.0023V31.2225C18.4434 30.4674 17.8313 29.8553 17.0762 29.8553Z" fill="#B3B3FF"/>
</g>
<path id="Vector_17" d="M15.1731 49.3939C16.0761 49.3939 16.8081 48.6619 16.8081 47.7589C16.8081 46.8559 16.0761 46.1238 15.1731 46.1238C14.2701 46.1238 13.5381 46.8559 13.5381 47.7589C13.5381 48.6619 14.2701 49.3939 15.1731 49.3939Z" fill="#FFC599"/>
<path id="Vector_18" d="M10.0234 40.3304H8.24609C7.86861 40.3304 7.5625 40.0243 7.5625 39.6468V35.4997C7.5625 35.1222 7.86861 34.8161 8.24609 34.8161H10.0234C10.4009 34.8161 10.707 35.1222 10.707 35.4997V39.6468C10.707 40.0244 10.4011 40.3304 10.0234 40.3304Z" fill="#FF6C6C"/>
</g>
<g id="Group_14">
<g id="Group_15">
<path id="Vector_19" d="M52.9243 52.3693H57.5503C59.6015 52.3693 61.2644 50.7064 61.2644 48.6552V33.5694C61.2644 31.5182 59.6015 29.8553 57.5503 29.8553H52.9243C52.1692 29.8553 51.5571 30.4674 51.5571 31.2225V51.0023C51.5571 51.7572 52.1692 52.3693 52.9243 52.3693Z" fill="#8383FF"/>
</g>
<g id="Group_16">
<path id="Vector_20" d="M52.9243 29.8553H54.8272V52.3695H52.9243C52.1692 52.3695 51.5571 51.7574 51.5571 51.0023V31.2225C51.5571 30.4674 52.1692 29.8553 52.9243 29.8553Z" fill="#B3B3FF"/>
</g>
<path id="Vector_21" d="M54.8274 49.3939C55.7304 49.3939 56.4624 48.6619 56.4624 47.7589C56.4624 46.8559 55.7304 46.1238 54.8274 46.1238C53.9244 46.1238 53.1924 46.8559 53.1924 47.7589C53.1924 48.6619 53.9244 49.3939 54.8274 49.3939Z" fill="#FFC599"/>
<path id="Vector_22" d="M59.9771 40.3304H61.7544C62.1319 40.3304 62.438 40.0243 62.438 39.6468V35.4997C62.438 35.1222 62.1319 34.8161 61.7544 34.8161H59.9771C59.5996 34.8161 59.2935 35.1222 59.2935 35.4997V39.6468C59.2935 40.0244 59.5994 40.3304 59.9771 40.3304Z" fill="#FF6C6C"/>
</g>
</g>
<g id="Group_17">
<g id="Group_18">
<path id="Vector_23" d="M53.2876 29.8553H57.1919C57.4169 28.569 57.5316 27.2587 57.5316 25.9454C57.5316 20.5788 55.6305 15.4219 52.1646 11.3498C51.9309 11.0753 51.5161 11.048 51.2484 11.2895L49.3508 13.0022C49.0946 13.2335 49.0697 13.6254 49.2924 13.8891C52.1383 17.2594 53.6986 21.5162 53.6986 25.9454C53.6987 27.2636 53.5592 28.5771 53.2876 29.8553Z" fill="#FF6C6C"/>
</g>
<g id="Group_19">
<path id="Vector_24" d="M16.7129 29.8553C16.4413 28.5771 16.3018 27.2636 16.3018 25.9454C16.3018 21.5162 17.862 17.2592 20.708 13.8891C20.9307 13.6254 20.9058 13.2334 20.6496 13.0022L18.7519 11.2895C18.4842 11.048 18.0694 11.0753 17.8358 11.3498C14.37 15.4219 12.4688 20.5788 12.4688 25.9454C12.4688 27.2587 12.5836 28.569 12.8085 29.8553H16.7129Z" fill="#FF6C6C"/>
</g>
</g>
</g>
<path id="Vector_25" d="M36.6171 60.9782H41.8363C42.7172 60.9782 43.4314 60.2641 43.4314 59.3831C43.4314 58.5022 42.7173 57.788 41.8363 57.788H36.6171C35.7362 57.788 35.022 58.5021 35.022 59.3831C35.0221 60.264 35.7362 60.9782 36.6171 60.9782Z" fill="#8383FF"/>
<g id="Group_20">
<path id="Vector_26" d="M48.9972 40.3304C48.9972 32.6123 42.7181 26.3333 35.0001 26.3333C27.282 26.3333 21.0029 32.6123 21.0029 40.3304C21.0029 48.0484 27.282 54.3277 35.0001 54.3277C42.7181 54.3277 48.9972 48.0484 48.9972 40.3304ZM22.3701 40.3304C22.3701 33.3662 28.0359 27.7004 35.0001 27.7004C41.9642 27.7004 47.63 33.3662 47.63 40.3304C47.63 47.2946 41.9642 52.9605 35.0001 52.9605C28.0359 52.9605 22.3701 47.2947 22.3701 40.3304Z" fill="#2626BC"/>
<path id="Vector_27" d="M61.948 34.148V33.5695C61.948 31.2918 60.2074 29.4133 57.9866 29.1934C58.1375 28.1173 58.2152 27.0283 58.2152 25.9454C58.2152 20.4374 56.2512 15.0965 52.6852 10.9067C52.4514 10.6321 52.1241 10.4677 51.7641 10.4441C51.4036 10.4196 51.0582 10.5403 50.7905 10.782L50.3493 11.1803C46.3458 7.022 40.7816 4.64679 35.0002 4.64679C29.2168 4.64679 23.6548 7.02105 19.6509 11.1799L19.21 10.7819C18.9421 10.5402 18.5961 10.42 18.2364 10.4439C17.8763 10.4676 17.5491 10.6319 17.3152 10.9066C13.7492 15.0965 11.7852 20.4373 11.7852 25.9452C11.7852 27.0281 11.8629 28.1172 12.0138 29.1933C9.79293 29.4131 8.05236 31.2916 8.05236 33.5694V34.1478C7.39023 34.2424 6.87891 34.8117 6.87891 35.4997V39.6468C6.87891 40.3346 7.3901 40.9041 8.05236 40.9987V48.6553C8.05236 51.0802 10.0252 53.053 12.4501 53.053H17.0761C18.2069 53.053 19.1269 52.133 19.1269 51.0022V39.963C19.1269 39.5854 18.8207 39.2794 18.4433 39.2794C18.0658 39.2794 17.7597 39.5854 17.7597 39.963V51.0022C17.7597 51.3792 17.453 51.6858 17.0761 51.6858H12.4501C10.7789 51.6858 9.41955 50.3264 9.41955 48.6553V41.014H10.0234C10.7773 41.014 11.3906 40.4007 11.3906 39.6468V35.4997C11.3906 34.7458 10.7773 34.1325 10.0234 34.1325H9.41955V33.5694C9.41955 31.8983 10.7791 30.5387 12.4501 30.5387H12.807C12.8076 30.5387 12.808 30.5389 12.8085 30.5389H16.7128C16.7136 30.5389 16.7145 30.5387 16.7151 30.5387H17.0761C17.453 30.5387 17.7597 30.8454 17.7597 31.2223V35.7792C17.7597 36.1568 18.0658 36.4627 18.4433 36.4627C18.8207 36.4627 19.1269 36.1568 19.1269 35.7792V31.2223C19.1269 30.1595 18.3141 29.2834 17.2776 29.1818C17.084 28.1146 16.9853 27.0285 16.9853 25.9454C16.9853 21.6968 18.4928 17.5718 21.2301 14.3303C21.6937 13.7812 21.6399 12.9751 21.1075 12.4947L20.6666 12.0967C24.4116 8.22445 29.6028 6.01398 35.0002 6.01398C40.3959 6.01398 45.5897 8.22445 49.334 12.0965L48.8929 12.4947C48.3605 12.9751 48.3066 13.7812 48.7701 14.3302C51.5075 17.5718 53.0151 21.6968 53.0151 25.9454C53.0151 27.0285 52.9163 28.1146 52.7228 29.1818C51.6862 29.2834 50.8735 30.1595 50.8735 31.2223V35.7792C50.8735 36.1568 51.1796 36.4627 51.5571 36.4627C51.9346 36.4627 52.2407 36.1568 52.2407 35.7792V31.2223C52.2407 30.8454 52.5473 30.5387 52.9243 30.5387H53.2852C53.286 30.5387 53.2869 30.5389 53.2875 30.5389H57.1918C57.1924 30.5389 57.1928 30.5387 57.1933 30.5387H57.5503C59.2214 30.5387 60.5809 31.8983 60.5809 33.5694V34.1325H59.9771C59.2232 34.1325 58.6099 34.7458 58.6099 35.4997V39.6468C58.6099 40.4007 59.2232 41.014 59.9771 41.014H60.5809V48.6553C60.5809 50.3264 59.2214 51.6858 57.5503 51.6858H54.8285C54.8281 51.6858 54.8277 51.6857 54.8271 51.6857C54.8266 51.6857 54.8263 51.6858 54.8258 51.6858H52.9241C52.5472 51.6858 52.2406 51.3792 52.2406 51.0022V39.963C52.2406 39.5854 51.9344 39.2794 51.557 39.2794C51.1795 39.2794 50.8734 39.5854 50.8734 39.963V51.0022C50.8734 52.133 51.7933 53.053 52.9241 53.053H54.1434V54.1042C54.1434 56.6632 52.0616 58.7449 49.5028 58.7449H44.022C43.7451 57.7982 42.8708 57.1043 41.836 57.1043H36.6167C35.3603 57.1043 34.338 58.1265 34.338 59.383C34.338 60.6394 35.3603 61.6616 36.6167 61.6616H41.8361C42.8373 61.6616 43.688 61.0117 43.993 60.1121H49.5029C52.8156 60.1121 55.5107 57.4169 55.5107 54.1042V53.053H57.5502C59.9751 53.053 61.948 51.0802 61.948 48.6553V40.9987C62.6101 40.9041 63.1214 40.3348 63.1214 39.6468V35.4997C63.1214 34.8119 62.6101 34.2426 61.948 34.148ZM10.0244 39.6468H8.24609V35.4997H10.0234L10.0244 39.6468ZM15.6181 25.9452C15.6181 27.0241 15.7085 28.1059 15.8872 29.1715H13.3905C13.2324 28.1038 13.1524 27.0211 13.1524 25.9452C13.1524 20.7765 14.9897 15.7645 18.3273 11.8268L20.1588 13.4799C17.2304 16.9631 15.6181 21.3881 15.6181 25.9452ZM49.8415 13.4801L51.673 11.827C55.0106 15.7648 56.848 20.7766 56.848 25.9454C56.848 27.0212 56.7679 28.1038 56.6098 29.1717H54.1132C54.2919 28.1061 54.3822 27.0244 54.3822 25.9454C54.3822 21.3881 52.7701 16.9631 49.8415 13.4801ZM41.8361 60.2946H36.6169C36.1143 60.2946 35.7054 59.8857 35.7054 59.3831C35.7054 58.8805 36.1143 58.4716 36.6169 58.4716H41.8361C42.3387 58.4716 42.7476 58.8805 42.7476 59.3831C42.7476 59.8857 42.3387 60.2946 41.8361 60.2946ZM59.9769 35.4997H61.7543V39.6468H59.9769V35.4997Z" fill="#2626BC"/>
</g>
</g>
</g>
</g>
</g>
</g>
<defs>
<linearGradient id="paint0_linear_975_85" x1="59.7577" y1="10.2423" x2="-0.546875" y2="70.5469" gradientUnits="userSpaceOnUse">
<stop stop-color="#104CBA" stop-opacity="0"/>
<stop offset="0.9981" stop-color="#104CBA"/>
</linearGradient>
<clipPath id="clip0_975_85">
<rect width="70" height="70" fill="white"/>
</clipPath>
</defs>
</svg>
