<svg width="30" height="35" viewBox="0 0 30 35" fill="none" xmlns="http://www.w3.org/2000/svg">
<g id="Iconly/Light-Outline/Location">
<g id="Location">
<path id="Combined-Shape" fill-rule="evenodd" clip-rule="evenodd" d="M14.8077 0C22.9726 0 29.6154 6.69308 29.6154 14.9208C29.6154 25.0349 18.0277 35 14.8077 35C11.5877 35 0 25.0349 0 14.9208C0 6.69308 6.64282 0 14.8077 0ZM14.8077 2.69231C8.12718 2.69231 2.69231 8.17923 2.69231 14.9208C2.69231 23.4985 12.7867 31.8554 14.8077 32.3005C16.8287 31.8536 26.9231 23.4967 26.9231 14.9208C26.9231 8.17923 21.4882 2.69231 14.8077 2.69231ZM14.8095 8.97436C18.0259 8.97436 20.6428 11.5913 20.6428 14.8095C20.6428 18.0259 18.0259 20.641 14.8095 20.641C11.5931 20.641 8.97615 18.0259 8.97615 14.8095C8.97615 11.5913 11.5931 8.97436 14.8095 8.97436ZM14.8095 11.6667C13.0774 11.6667 11.6685 13.0756 11.6685 14.8095C11.6685 16.5415 13.0774 17.9487 14.8095 17.9487C16.5415 17.9487 17.9505 16.5415 17.9505 14.8095C17.9505 13.0756 16.5415 11.6667 14.8095 11.6667Z" fill="#913BFF"/>
</g>
</g>
</svg>
