<svg width="35" height="35" viewBox="0 0 35 35" fill="none" xmlns="http://www.w3.org/2000/svg">
<g id="Iconly/Light-Outline/More-Square">
<g id="More-Square">
<path id="Combined-Shape" fill-rule="evenodd" clip-rule="evenodd" d="M25.0845 0C31.0152 0 35 4.1615 35 10.353V24.647C35 30.8385 31.0153 35 25.0828 35H9.91375C3.983 35 0 30.8385 0 24.647V10.353C0 4.1615 3.983 0 9.91375 0H25.0845ZM25.0845 2.625H9.91375C5.48625 2.625 2.625 5.65775 2.625 10.353V24.647C2.625 29.3422 5.48625 32.375 9.91375 32.375H25.0828C29.512 32.375 32.375 29.3422 32.375 24.647V10.353C32.375 5.65775 29.512 2.625 25.0845 2.625ZM24.4094 15.774C25.3771 15.774 26.1594 16.5562 26.1594 17.524C26.1594 18.4917 25.3771 19.274 24.4094 19.274C23.4416 19.274 22.6506 18.4917 22.6506 17.524C22.6506 16.5562 23.4258 15.774 24.3918 15.774H24.4094ZM17.3924 15.774C18.3601 15.774 19.1424 16.5562 19.1424 17.524C19.1424 18.4917 18.3601 19.274 17.3924 19.274C16.4246 19.274 15.6354 18.4917 15.6354 17.524C15.6354 16.5562 16.4089 15.774 17.3766 15.774H17.3924ZM10.377 15.774C11.3447 15.774 12.127 16.5562 12.127 17.524C12.127 18.4917 11.3447 19.274 10.377 19.274C9.40922 19.274 8.61823 18.4917 8.61823 17.524C8.61823 16.5562 9.39348 15.774 10.3612 15.774H10.377Z" fill="white"/>
</g>
</g>
</svg>
