<svg width="260" height="260" viewBox="0 0 260 260" fill="none" xmlns="http://www.w3.org/2000/svg">
<path fill-rule="evenodd" clip-rule="evenodd" d="M133.49 196.045L224.633 143.423V34.5252L225.167 34.8334L260 95.1666V160.173L165.679 214.629L133.49 196.045ZM71.3995 160.197L71.3305 160.157V164.515L71.3995 164.555V210.716L156.761 260L95.1666 260L36.1435 225.923V121.571L71.7226 101.029V101.586L71.3995 101.772L71.3995 160.197ZM75.1734 166.734L165.679 218.987L260 164.53V164.833L225.167 225.167L164.833 260H164.309L75.1734 208.537V166.734ZM164.833 1.07896e-05L220.859 32.3463V141.244L188.295 160.045V100.393L188.42 100.465V96.1139L188.295 96.0413V54.7907L94.2805 0.511607L95.1666 0L164.833 1.07896e-05ZM90.5065 2.69048L34.8334 34.8334L0 95.1666V100.465V164.833L32.3696 220.899V119.392L71.7226 96.6715V96.3535L126.511 64.7217L94.2101 46.073L0 100.465L2.86102e-06 96.1139L94.2101 41.7216L184.521 93.8624V56.9696L90.5065 2.69048Z" fill="#913BFF"/>
</svg>
