<svg width="35" height="35" viewBox="0 0 35 35" fill="none" xmlns="http://www.w3.org/2000/svg">
<g id="Iconly/Light-Outline/Call">
<g id="Call">
<path id="Fill-1" fill-rule="evenodd" clip-rule="evenodd" d="M4.02779 5.22654C4.0312 5.22654 3.94584 5.31532 3.83828 5.42117C3.42511 5.82238 2.56976 6.65725 2.56114 8.40381C2.54757 10.8469 4.15413 15.3832 11.8899 23.1172C19.5898 30.8137 24.1192 32.4391 26.5675 32.4391H26.6033C28.3499 32.4305 29.183 31.5735 29.5859 31.162C29.7089 31.0357 29.8079 30.9435 29.8779 30.8854C31.5784 29.1747 32.4491 27.9011 32.4406 27.085C32.4286 26.2518 31.3923 25.2667 29.9598 23.9043C29.504 23.4707 29.0089 22.9994 28.4865 22.477C27.1326 21.1265 26.4616 21.357 24.9865 21.876C22.9463 22.5914 20.1463 23.5646 15.7962 19.2127C11.4391 14.8591 12.414 12.0625 13.1277 10.0223C13.6433 8.54722 13.8789 7.87455 12.5233 6.51896C11.9923 5.9897 11.516 5.48775 11.0772 5.02678C9.72331 3.6029 8.74674 2.57341 7.91871 2.56145H7.90505C7.08725 2.56145 5.81703 3.43559 4.01925 5.23337C4.02437 5.22824 4.02608 5.22654 4.02779 5.22654ZM26.5692 35C22.3146 35 16.7676 31.6127 10.0801 24.9287C3.36707 18.2173 -0.0253232 12.6533 0.000142307 8.39015C0.0156518 5.57312 1.49246 4.13046 2.04733 3.58924C2.07635 3.55339 2.17538 3.45608 2.20952 3.42193C4.65778 0.971966 6.30873 -0.0182638 7.95114 0.000254621C9.85819 0.0261258 11.2155 1.45342 12.933 3.26144C13.3581 3.70875 13.8191 4.19533 14.333 4.70752C16.8256 7.20017 16.1154 9.23355 15.5452 10.8657C14.9237 12.6464 14.3859 14.183 17.6059 17.4029C20.8292 20.6229 22.3658 20.0851 24.1397 19.4585C25.7736 18.8883 27.8018 18.1746 30.2979 20.6673C30.8032 21.1726 31.283 21.6285 31.7252 22.0502C33.5417 23.7763 34.9759 25.1404 35.0001 27.0526C35.0203 28.683 34.03 30.3442 31.5852 32.7908L30.5028 32.0566L31.4179 32.9512C30.8767 33.5061 29.4357 34.9846 26.617 35H26.5692Z" fill="#913BFF"/>
</g>
</g>
</svg>
