<svg width="22" height="20" viewBox="0 0 22 20" fill="none" xmlns="http://www.w3.org/2000/svg">
<g id="Iconly/Bold/Star">
<g id="Star">
<path id="Vector" d="M16.7556 12.4413C16.483 12.7055 16.3577 13.0875 16.4198 13.4623L17.3556 18.6409C17.4345 19.0798 17.2492 19.524 16.8819 19.7776C16.5219 20.0408 16.043 20.0723 15.6504 19.8618L10.9886 17.4304C10.8265 17.3441 10.6465 17.2978 10.4623 17.2925H10.1771C10.0781 17.3073 9.98131 17.3388 9.89289 17.3873L5.23005 19.8303C4.99954 19.946 4.7385 19.9871 4.48273 19.946C3.85961 19.8281 3.44385 19.2345 3.54595 18.6082L4.48273 13.4296C4.54483 13.0518 4.41957 12.6676 4.14696 12.3992L0.346162 8.71521C0.0282884 8.40681 -0.0822305 7.94368 0.0630229 7.52581C0.204066 7.109 0.564042 6.80481 0.99875 6.73639L6.22998 5.97749C6.62785 5.93644 6.9773 5.69436 7.15623 5.33649L9.46134 0.610485C9.51607 0.505229 9.5866 0.408394 9.67185 0.326294L9.76658 0.252615C9.81605 0.197881 9.87289 0.152621 9.93605 0.115782L10.0508 0.0736793L10.2297 0H10.6728C11.0686 0.0410499 11.417 0.277876 11.5991 0.631537L13.9347 5.33649C14.1031 5.68067 14.4305 5.9196 14.8084 5.97749L20.0396 6.73639C20.4817 6.79955 20.8511 7.10479 20.9974 7.52581C21.1353 7.94789 21.0164 8.41102 20.6922 8.71521L16.7556 12.4413Z" fill="#F2C94C"/>
</g>
</g>
</svg>
