<svg width="22" height="20" viewBox="0 0 22 20" fill="none" xmlns="http://www.w3.org/2000/svg">
<g id="Iconly/Bulk/Star">
<g id="Star">
<path id="Fill-1" opacity="0.4" d="M11.554 0.64591L13.8977 5.35567C14.0703 5.6969 14.3999 5.93386 14.78 5.98652L20.0442 6.75323C20.3517 6.79641 20.6307 6.95859 20.8191 7.20609C21.0055 7.45042 21.0855 7.76005 21.0402 8.06442C21.0034 8.31718 20.8844 8.55098 20.7023 8.73002L16.8878 12.4277C16.6088 12.6857 16.4824 13.068 16.5498 13.4419L17.489 18.6403C17.589 19.268 17.1731 19.8599 16.5498 19.9789C16.2929 20.02 16.0297 19.9768 15.7981 19.8588L11.1023 17.4123C10.7538 17.2365 10.3422 17.2365 9.99367 17.4123L5.29792 19.8588C4.72096 20.1653 4.00607 19.9568 3.68494 19.3881C3.56597 19.1616 3.52386 18.9036 3.56281 18.6519L4.50196 13.4524C4.56934 13.0796 4.44195 12.6952 4.16399 12.4372L0.349491 8.7416C-0.10429 8.30349 -0.117977 7.58207 0.318958 7.12815C0.328434 7.11867 0.338963 7.10814 0.349491 7.09761C0.530583 6.91331 0.768529 6.79641 1.02543 6.76586L6.28971 5.9981C6.66874 5.94439 6.99829 5.70954 7.17201 5.3662L9.43144 0.64591C9.63254 0.241493 10.0495 -0.0102136 10.5022 0.000318111H10.6433C11.036 0.0477106 11.3782 0.290992 11.554 0.64591Z" fill="#F2C94C"/>
<path id="Fill-4" d="M10.5179 17.2812C10.314 17.2875 10.1154 17.3423 9.9367 17.4403L5.26392 19.8812C4.69217 20.1541 4.00796 19.9423 3.6874 19.3955C3.56864 19.1722 3.52555 18.9162 3.56549 18.6655L4.49878 13.477C4.56184 13.0999 4.43572 12.7164 4.16141 12.4509L0.345197 8.75629C-0.107788 8.31277 -0.116196 7.5848 0.32733 7.13075C0.333636 7.12443 0.338891 7.11916 0.345197 7.11389C0.525971 6.9348 0.759294 6.81681 1.01049 6.77993L6.27919 6.00456C6.66071 5.9561 6.99177 5.71801 7.15994 5.37246L9.45008 0.592756C9.66764 0.207177 10.0849 -0.0224853 10.5263 0.00174513C10.5179 0.314633 10.5179 17.0684 10.5179 17.2812Z" fill="#F2C94C"/>
</g>
</g>
</svg>
