<svg width="59" height="59" viewBox="0 0 59 59" fill="none" xmlns="http://www.w3.org/2000/svg">
<circle opacity="0.1" cx="29.4991" cy="29.5" r="29.5" fill="url(#paint0_linear_1180_416)"/>
<path fill-rule="evenodd" clip-rule="evenodd" d="M33.121 18.8034L25.5967 26.378L16.7874 20.9561C15.6331 20.2455 15.8671 18.4923 17.1674 18.1149L37.9658 12.063C39.1485 11.7207 40.2421 12.8296 39.8879 14.0178L33.7169 34.7947C33.3304 36.0949 31.597 36.3201 30.8964 35.1592L25.5967 26.378" fill="url(#paint1_linear_1180_416)"/>
<g opacity="0.5" filter="url(#filter0_f_1180_416)">
<path fill-rule="evenodd" clip-rule="evenodd" d="M32.0424 20.5077L27.5551 25.025L22.3016 21.7915C21.6132 21.3677 21.7527 20.3222 22.5282 20.0972L34.9316 16.488C35.637 16.2839 36.2891 16.9452 36.0779 17.6538L32.3978 30.0444C32.1673 30.8198 31.1335 30.9541 30.7157 30.2617L27.5551 25.025" fill="#E46800"/>
</g>
<g filter="url(#filter1_b_1180_416)">
<mask id="path-4-outside-1_1180_416" maskUnits="userSpaceOnUse" x="13.9991" y="15.5217" width="32" height="33" fill="black">
<rect fill="white" x="13.9991" y="15.5217" width="32" height="33"/>
<path fill-rule="evenodd" clip-rule="evenodd" d="M36.0522 25.9085L26.7767 35.2459L15.9173 28.5621C14.4943 27.6861 14.7828 25.525 16.3858 25.0598L42.0245 17.5994C43.4825 17.1775 44.8305 18.5444 44.3939 20.0092L36.7868 45.6214C36.3103 47.2242 34.1735 47.5018 33.3099 46.0707L26.7767 35.2459"/>
</mask>
<path fill-rule="evenodd" clip-rule="evenodd" d="M36.0522 25.9085L26.7767 35.2459L15.9173 28.5621C14.4943 27.6861 14.7828 25.525 16.3858 25.0598L42.0245 17.5994C43.4825 17.1775 44.8305 18.5444 44.3939 20.0092L36.7868 45.6214C36.3103 47.2242 34.1735 47.5018 33.3099 46.0707L26.7767 35.2459" fill="#FFCBB9" fill-opacity="0.35"/>
<path d="M36.7617 26.6132C37.1509 26.2214 37.1488 25.5882 36.7569 25.199C36.3651 24.8098 35.732 24.8119 35.3427 25.2037L36.7617 26.6132ZM26.7767 35.2459L26.2525 36.0976C26.648 36.3409 27.1589 36.2801 27.4862 35.9507L26.7767 35.2459ZM15.9173 28.5621L15.3931 29.4137L15.3931 29.4137L15.9173 28.5621ZM16.3858 25.0598L16.6645 26.0201L16.6652 26.0199L16.3858 25.0598ZM42.0245 17.5994L41.7465 16.6388L41.7451 16.6392L42.0245 17.5994ZM44.3939 20.0092L43.4356 19.7235L43.4353 19.7245L44.3939 20.0092ZM36.7868 45.6214L37.7453 45.9064L37.7454 45.9062L36.7868 45.6214ZM33.3099 46.0707L34.166 45.554L34.166 45.5539L33.3099 46.0707ZM27.6328 34.7292C27.3475 34.2564 26.7328 34.1044 26.26 34.3898C25.7871 34.6752 25.6352 35.2898 25.9205 35.7627L27.6328 34.7292ZM35.3427 25.2037L26.0672 34.5412L27.4862 35.9507L36.7617 26.6132L35.3427 25.2037ZM27.3009 34.3943L16.4415 27.7105L15.3931 29.4137L26.2525 36.0976L27.3009 34.3943ZM16.4415 27.7105C15.7523 27.2862 15.9004 26.2419 16.6645 26.0201L16.107 24.0994C13.6652 24.8081 13.2364 28.086 15.3931 29.4137L16.4415 27.7105ZM16.6652 26.0199L42.3039 18.5596L41.7451 16.6392L16.1064 24.0996L16.6652 26.0199ZM42.3025 18.56C42.99 18.361 43.6493 19.0065 43.4356 19.7235L45.3523 20.2948C46.0118 18.0822 43.9749 15.9939 41.7465 16.6388L42.3025 18.56ZM43.4353 19.7245L35.8282 45.3367L37.7454 45.9062L45.3525 20.2939L43.4353 19.7245ZM35.8282 45.3365C35.5977 46.1121 34.5779 46.2365 34.166 45.554L32.4537 46.5873C33.7691 48.7671 37.023 48.3363 37.7453 45.9064L35.8282 45.3365ZM34.166 45.5539L27.6328 34.7292L25.9205 35.7627L32.4537 46.5874L34.166 45.5539Z" fill="url(#paint2_linear_1180_416)" mask="url(#path-4-outside-1_1180_416)"/>
</g>
<g filter="url(#filter2_bd_1180_416)">
<rect x="28.5209" y="32.2629" width="10.087" height="1.73913" rx="0.869565" transform="rotate(-45 28.5209 32.2629)" fill="url(#paint3_linear_1180_416)"/>
<rect x="28.8037" y="32.2629" width="9.68696" height="1.33913" rx="0.669565" transform="rotate(-45 28.8037 32.2629)" stroke="url(#paint4_linear_1180_416)" stroke-width="0.4"/>
</g>
<defs>
<filter id="filter0_f_1180_416" x="7.85742" y="2.45044" width="42.2609" height="42.261" filterUnits="userSpaceOnUse" color-interpolation-filters="sRGB">
<feFlood flood-opacity="0" result="BackgroundImageFix"/>
<feBlend mode="normal" in="SourceGraphic" in2="BackgroundImageFix" result="shape"/>
<feGaussianBlur stdDeviation="7" result="effect1_foregroundBlur_1180_416"/>
</filter>
<filter id="filter1_b_1180_416" x="-10.0009" y="-7.47998" width="79.4791" height="79.4805" filterUnits="userSpaceOnUse" color-interpolation-filters="sRGB">
<feFlood flood-opacity="0" result="BackgroundImageFix"/>
<feGaussianBlur in="BackgroundImageFix" stdDeviation="12"/>
<feComposite in2="SourceAlpha" operator="in" result="effect1_backgroundBlur_1180_416"/>
<feBlend mode="normal" in="SourceGraphic" in2="effect1_backgroundBlur_1180_416" result="shape"/>
</filter>
<filter id="filter2_bd_1180_416" x="13.8811" y="10.4905" width="37.6418" height="37.6421" filterUnits="userSpaceOnUse" color-interpolation-filters="sRGB">
<feFlood flood-opacity="0" result="BackgroundImageFix"/>
<feGaussianBlur in="BackgroundImageFix" stdDeviation="7.5"/>
<feComposite in2="SourceAlpha" operator="in" result="effect1_backgroundBlur_1180_416"/>
<feColorMatrix in="SourceAlpha" type="matrix" values="0 0 0 0 0 0 0 0 0 0 0 0 0 0 0 0 0 0 127 0" result="hardAlpha"/>
<feOffset dx="5" dy="5"/>
<feGaussianBlur stdDeviation="5"/>
<feColorMatrix type="matrix" values="0 0 0 0 1 0 0 0 0 0.580392 0 0 0 0 0.247059 0 0 0 0.5 0"/>
<feBlend mode="normal" in2="effect1_backgroundBlur_1180_416" result="effect2_dropShadow_1180_416"/>
<feBlend mode="normal" in="SourceGraphic" in2="effect2_dropShadow_1180_416" result="shape"/>
</filter>
<linearGradient id="paint0_linear_1180_416" x1="29.4991" y1="0" x2="29.4991" y2="59" gradientUnits="userSpaceOnUse">
<stop stop-color="#104CBA"/>
<stop offset="1" stop-color="#104CBA" stop-opacity="0"/>
</linearGradient>
<linearGradient id="paint1_linear_1180_416" x1="27.9991" y1="12" x2="27.9991" y2="35.913" gradientUnits="userSpaceOnUse">
<stop stop-color="#FFB37F"/>
<stop offset="1" stop-color="#FF7B0D"/>
</linearGradient>
<linearGradient id="paint2_linear_1180_416" x1="19.6916" y1="20.956" x2="38.4956" y2="44.2452" gradientUnits="userSpaceOnUse">
<stop stop-color="white" stop-opacity="0.25"/>
<stop offset="1" stop-color="white" stop-opacity="0"/>
</linearGradient>
<linearGradient id="paint3_linear_1180_416" x1="37.8927" y1="32.577" x2="27.0332" y2="34.6306" gradientUnits="userSpaceOnUse">
<stop stop-color="white"/>
<stop offset="1" stop-color="white" stop-opacity="0.2"/>
</linearGradient>
<linearGradient id="paint4_linear_1180_416" x1="30.1266" y1="32.4656" x2="30.4365" y2="34.6921" gradientUnits="userSpaceOnUse">
<stop stop-color="white" stop-opacity="0.25"/>
<stop offset="1" stop-color="white" stop-opacity="0"/>
</linearGradient>
</defs>
</svg>
