<svg width="31" height="37" viewBox="0 0 31 37" fill="none" xmlns="http://www.w3.org/2000/svg">
<g id="Iconly/Two-tone/Shield-Done">
<g id="Shield-Done">
<path id="Stroke-1" fill-rule="evenodd" clip-rule="evenodd" d="M28.0713 5.39827C28.8807 5.68167 29.4216 6.44482 29.4216 7.30243V19.848C29.4216 23.3544 28.1472 26.7015 25.8967 29.2947C24.7649 30.6006 23.3331 31.6175 21.8124 32.4399L15.2219 36L8.62033 32.438C7.09775 31.6156 5.66407 30.6006 4.53047 29.2928C2.27808 26.6996 1 23.3507 1 19.8406V7.30243C1 6.44482 1.54087 5.68167 2.35032 5.39827L14.5421 1.11392C14.9756 0.962028 15.4479 0.962028 15.8795 1.11392L28.0713 5.39827Z" stroke="white" stroke-width="2" stroke-linecap="round" stroke-linejoin="round"/>
<path id="Stroke-3" d="M10.3955 17.9814L13.9 21.4878L21.1203 14.2676" stroke="white" stroke-width="2" stroke-linecap="round" stroke-linejoin="round"/>
</g>
</g>
</svg>
