<svg width="192" height="200" viewBox="0 0 192 200" fill="none" xmlns="http://www.w3.org/2000/svg">
<path opacity="0.1" d="M106.82 63.8551L107.156 65.6659L108.492 64.3983L151.554 23.5368L125.999 77.1181L125.206 78.7804L127.032 78.54L185.888 70.7937L133.719 99.1212L132.101 100L133.719 100.879L185.888 129.206L127.032 121.46L125.206 121.22L125.999 122.882L151.554 176.463L108.492 135.602L107.156 134.334L106.82 136.145L95.9999 194.514L85.1797 136.145L84.8441 134.334L83.5081 135.602L40.4462 176.463L66.0008 122.882L66.7936 121.22L64.9677 121.46L6.11207 129.206L58.2805 100.879L59.8989 100L58.2805 99.1212L6.11205 70.7937L64.9677 78.54L66.7936 78.7804L66.0008 77.1181L40.4461 23.5368L83.5081 64.3983L84.8441 65.6659L85.1797 63.8551L95.9999 5.48634L106.82 63.8551Z" stroke="white" stroke-width="2"/>
</svg>
