<svg width="35" height="35" viewBox="0 0 35 35" fill="none" xmlns="http://www.w3.org/2000/svg">
<g id="Tick-Square">
<path id="Combined-Shape" fill-rule="evenodd" clip-rule="evenodd" d="M25.0845 0C31.0152 0 35 4.1615 35 10.353V24.647C35 30.8385 31.0153 35 25.0828 35H9.91375C3.983 35 0 30.8385 0 24.647V10.353C0 4.1615 3.983 0 9.91375 0H25.0845ZM25.0845 2.625H9.91375C5.48625 2.625 2.625 5.65775 2.625 10.353V24.647C2.625 29.3422 5.48625 32.375 9.91375 32.375H25.0828C29.512 32.375 32.375 29.3422 32.375 24.647V10.353C32.375 5.65775 29.512 2.625 25.0845 2.625ZM24.6566 12.4198C25.1694 12.9325 25.1694 13.762 24.6566 14.2747L16.3511 22.5802C16.0956 22.8375 15.7596 22.9653 15.4236 22.9653C15.0894 22.9653 14.7516 22.8375 14.4961 22.5802L10.3416 18.4275C9.82888 17.9147 9.82888 17.0853 10.3416 16.5725C10.8544 16.0597 11.6839 16.0597 12.1966 16.5725L15.4236 19.796L22.8016 12.4198C23.3144 11.907 24.1439 11.907 24.6566 12.4198Z" fill="white"/>
</g>
</svg>
