<svg width="70" height="70" viewBox="0 0 70 70" fill="none" xmlns="http://www.w3.org/2000/svg">
<g id="wallet 1" clip-path="url(#clip0_975_138)">
<g id="Group">
<g id="Group_2">
<path id="Vector" d="M69.1938 30.0977C66.4445 23.5015 58.2184 22.9394 52.4505 19.8685C50.1479 18.6427 50.8915 16.519 51.9463 14.6094C55.7456 7.73145 47.9893 0.885259 40.9342 0.290806C18.7871 -1.57527 25.445 17.3281 15.7983 21.3104C11.0085 23.2876 4.6281 24.2583 1.8106 28.8004C-2.79832 36.2303 1.83904 47.103 10.667 50.0511C19.6719 53.0584 28.4515 46.2007 28.3313 53.5505C28.2636 57.6861 21.2013 61.3091 24.1185 65.4041C27.408 70.0219 48.1997 73.1921 47.7017 63.5666C47.4078 57.883 39.0271 56.0961 45.1298 50.5906C48.2877 47.7416 53.0294 48.9016 56.9547 48.3827C65.0983 47.3066 72.4979 38.0249 69.1938 30.0977Z" fill="url(#paint0_linear_975_138)"/>
</g>
<g id="Group_3">
<g id="Group_4">
<g id="Group_5">
<path id="Vector_2" d="M55.6447 53.6581H31.0977C30.3426 53.6581 29.7305 53.046 29.7305 52.2909V9.59149C29.7305 8.83639 30.3426 8.2243 31.0977 8.2243H55.6446C56.3997 8.2243 57.0117 8.83639 57.0117 9.59149V52.2909C57.0119 53.046 56.3997 53.6581 55.6447 53.6581Z" fill="#FFC498"/>
<path id="Vector_3" d="M38.2895 11.2729C38.337 10.8598 38.6877 10.549 39.1033 10.549H54.0043C54.3816 10.549 54.6879 10.8538 54.6879 11.2325V44.2843C54.6879 44.6999 54.3768 45.0506 53.9639 45.0981C51.0755 45.4297 48.7841 47.722 48.4525 50.6095C48.4051 51.0225 48.0544 51.3334 47.6388 51.3334H32.7378C32.3603 51.3334 32.0542 51.0273 32.0542 50.6498V17.5967C32.0542 17.1809 32.3652 16.8302 32.7783 16.7829C35.6664 16.4515 37.9579 14.1602 38.2895 11.2729Z" fill="white"/>
<path id="Vector_4" d="M51.7671 13.9457C52.1446 13.9457 52.4507 13.6397 52.4507 13.2621C52.4507 12.8846 52.1446 12.5786 51.7671 12.5786C51.3896 12.5786 51.0835 12.8846 51.0835 13.2621C51.0835 13.6397 51.3896 13.9457 51.7671 13.9457Z" fill="#8282FF"/>
<path id="Vector_5" d="M51.0835 19.5429V15.7772C51.0835 15.3996 51.3896 15.0936 51.7671 15.0936C52.1446 15.0936 52.4507 15.3996 52.4507 15.7772V19.5429C52.4507 19.9205 52.1446 20.2265 51.7671 20.2265C51.3896 20.2265 51.0835 19.9205 51.0835 19.5429Z" fill="#8282FF"/>
<path id="Vector_6" d="M49.8835 13.2493V16.9636C49.8835 17.3411 49.5774 17.6472 49.1999 17.6472H48.3345C47.957 17.6472 47.6509 17.3411 47.6509 16.9636V13.2493C47.6509 12.8718 47.957 12.5657 48.3345 12.5657H49.1999C49.5774 12.5657 49.8835 12.8718 49.8835 13.2493Z" fill="#FF6C6C"/>
</g>
<g id="Group_6">
<path id="Vector_7" d="M44.3278 49.9199H19.7808C19.0257 49.9199 18.4136 49.3078 18.4136 48.5527V5.85309C18.4136 5.09799 19.0257 4.4859 19.7808 4.4859H44.3277C45.0828 4.4859 45.6948 5.09799 45.6948 5.85309V48.5525C45.695 49.3076 45.0828 49.9199 44.3278 49.9199Z" fill="#FFC498"/>
<path id="Vector_8" d="M26.9726 7.5346C27.0201 7.12157 27.3708 6.81067 27.7864 6.81067H42.6874C43.0647 6.81067 43.371 7.11555 43.371 7.49426V40.546C43.371 40.9616 43.0599 41.3123 42.647 41.3598C39.7586 41.6914 37.4672 43.9837 37.1356 46.8712C37.0882 47.2842 36.7375 47.5951 36.3219 47.5951H21.4209C21.0434 47.5951 20.7373 47.289 20.7373 46.9115V13.8584C20.7373 13.4426 21.0483 13.0919 21.4614 13.0446C24.3496 12.7131 26.641 10.422 26.9726 7.5346Z" fill="white"/>
<path id="Vector_9" d="M32.0542 33.7727C36.5224 33.7727 40.1445 30.8313 40.1445 27.2028C40.1445 23.5744 36.5224 20.6329 32.0542 20.6329C27.586 20.6329 23.9639 23.5744 23.9639 27.2028C23.9639 30.8313 27.586 33.7727 32.0542 33.7727Z" fill="#FFC498"/>
<path id="Vector_10" d="M32.0542 32.4055C35.7673 32.4055 38.7773 30.0762 38.7773 27.2028C38.7773 24.3294 35.7673 22.0001 32.0542 22.0001C28.3411 22.0001 25.3311 24.3294 25.3311 27.2028C25.3311 30.0762 28.3411 32.4055 32.0542 32.4055Z" fill="#FFAA66"/>
<g id="Group_7">
<path id="Vector_11" d="M23.6582 45.5656C24.0357 45.5656 24.3418 45.2595 24.3418 44.882C24.3418 44.5044 24.0357 44.1984 23.6582 44.1984C23.2807 44.1984 22.9746 44.5044 22.9746 44.882C22.9746 45.2595 23.2807 45.5656 23.6582 45.5656Z" fill="#8282FF"/>
<path id="Vector_12" d="M24.3418 38.6012V42.3668C24.3418 42.7445 24.0357 43.0504 23.6582 43.0504C23.2807 43.0504 22.9746 42.7445 22.9746 42.3668V38.6012C22.9746 38.2236 23.2807 37.9176 23.6582 37.9176C24.0357 37.9176 24.3418 38.2237 24.3418 38.6012Z" fill="#8282FF"/>
<path id="Vector_13" d="M40.4502 10.2073C40.8277 10.2073 41.1338 9.90128 41.1338 9.52374C41.1338 9.1462 40.8277 8.84015 40.4502 8.84015C40.0727 8.84015 39.7666 9.1462 39.7666 9.52374C39.7666 9.90128 40.0727 10.2073 40.4502 10.2073Z" fill="#8282FF"/>
<path id="Vector_14" d="M39.7666 15.8046V12.0389C39.7666 11.6613 40.0727 11.3553 40.4502 11.3553C40.8277 11.3553 41.1338 11.6613 41.1338 12.0389V15.8046C41.1338 16.1822 40.8277 16.4882 40.4502 16.4882C40.0727 16.4882 39.7666 16.1821 39.7666 15.8046Z" fill="#8282FF"/>
</g>
<path id="Vector_15" d="M41.4085 47.5953C42.4925 47.5953 43.3713 46.7165 43.3713 45.6325C43.3713 44.5485 42.4925 43.6698 41.4085 43.6698C40.3245 43.6698 39.4458 44.5485 39.4458 45.6325C39.4458 46.7165 40.3245 47.5953 41.4085 47.5953Z" fill="white"/>
<path id="Vector_16" d="M22.7 10.736C23.784 10.736 24.6628 9.85727 24.6628 8.77328C24.6628 7.68929 23.784 6.81055 22.7 6.81055C21.6161 6.81055 20.7373 7.68929 20.7373 8.77328C20.7373 9.85727 21.6161 10.736 22.7 10.736Z" fill="white"/>
<path id="Vector_17" d="M32.3643 41.3044C33.8744 41.3044 35.0986 40.0802 35.0986 38.57C35.0986 37.0599 33.8744 35.8356 32.3643 35.8356C30.8541 35.8356 29.6299 37.0599 29.6299 38.57C29.6299 40.0802 30.8541 41.3044 32.3643 41.3044Z" fill="#FFAA66"/>
<path id="Vector_18" d="M32.3643 18.5701C33.8744 18.5701 35.0986 17.3459 35.0986 15.8358C35.0986 14.3256 33.8744 13.1014 32.3643 13.1014C30.8541 13.1014 29.6299 14.3256 29.6299 15.8358C29.6299 17.3459 30.8541 18.5701 32.3643 18.5701Z" fill="#FFAA66"/>
<path id="Vector_19" d="M27.7746 41.1805V44.8949C27.7746 45.2724 27.4685 45.5785 27.091 45.5785H26.2256C25.8481 45.5785 25.542 45.2724 25.542 44.8949V41.1805C25.542 40.8031 25.8481 40.4969 26.2256 40.4969H27.091C27.4686 40.4969 27.7746 40.8029 27.7746 41.1805Z" fill="#FF6C6C"/>
<path id="Vector_20" d="M38.5666 9.51099V13.2254C38.5666 13.6028 38.2605 13.909 37.883 13.909H37.0176C36.6401 13.909 36.334 13.6028 36.334 13.2254V9.51099C36.334 9.13351 36.6401 8.82739 37.0176 8.82739H37.883C38.2605 8.82739 38.5666 9.13337 38.5666 9.51099Z" fill="#FF6C6C"/>
</g>
<path id="Vector_21" opacity="0.1" d="M60.7705 39.1527H60.6716V27.7497C60.6716 26.2403 59.4466 25.0153 57.9372 25.0153H17.4876C15.9783 25.0153 14.7533 26.2403 14.7533 27.7497V51.0308C10.0099 51.2172 6.22119 55.1196 6.22119 59.9085C6.22119 64.8165 10.1998 68.7953 15.1079 68.7953C17.9097 68.7953 20.407 67.4974 22.0359 65.4716C23.2995 66.1622 24.749 66.555 26.2905 66.555C29.3288 66.555 32.0098 65.0293 33.6124 62.7032H57.9372C59.4466 62.7032 60.6716 61.4796 60.6716 59.9688V48.5666H60.7705C61.5256 48.5666 62.1376 47.9545 62.1376 47.1994V40.5199C62.1376 39.7648 61.5256 39.1527 60.7705 39.1527Z" fill="#0000CB"/>
<path id="Vector_22" d="M35.1777 57.6678C35.1777 58.268 35.1176 58.8546 35.0041 59.4219H17.5779C17.4645 58.8546 17.4043 58.268 17.4043 57.6678C17.4043 52.7596 21.3828 48.7811 26.291 48.7811C31.1992 48.7811 35.1777 52.7598 35.1777 57.6678Z" fill="#FF8A00"/>
<g id="Group_8">
<path id="Vector_23" d="M60.6718 26.6561V56.6877C60.6718 58.1985 59.4468 59.4221 57.9374 59.4221H17.4878C15.9784 59.4221 14.7534 58.1985 14.7534 56.6877V26.6561C14.7534 25.1467 15.9784 23.9217 17.4878 23.9217H57.9374C59.4469 23.9217 60.6718 25.1467 60.6718 26.6561Z" fill="#FF9C33"/>
<path id="Vector_24" d="M60.6717 40.2458V49.6602H51.4814C50.7254 49.6602 50.1143 49.0477 50.1143 48.2931V41.613C50.1143 40.8583 50.7254 40.2458 51.4814 40.2458H60.6717Z" fill="#FF8A00"/>
<path id="Vector_25" d="M57.1171 28.8436V54.5002C57.1171 55.2553 56.505 55.8674 55.7499 55.8674H19.6753C18.9202 55.8674 18.3081 55.2553 18.3081 54.5002V28.8436C18.3081 28.0885 18.9202 27.4764 19.6753 27.4764H55.7499C56.505 27.4764 57.1171 28.0885 57.1171 28.8436Z" fill="#FFAA66"/>
<g id="Group_9">
<g id="Group_10">
<g id="Group_11">
<path id="Vector_26" d="M51.0835 52.0292C51.461 52.0292 51.7671 51.7231 51.7671 51.3456C51.7671 50.968 51.461 50.662 51.0835 50.662C50.706 50.662 50.3999 50.968 50.3999 51.3456C50.3999 51.7231 50.706 52.0292 51.0835 52.0292Z" fill="#FFE7DB"/>
<path id="Vector_27" d="M51.0835 54.1855C51.461 54.1855 51.7671 53.8794 51.7671 53.5019C51.7671 53.1244 51.461 52.8183 51.0835 52.8183C50.706 52.8183 50.3999 53.1244 50.3999 53.5019C50.3999 53.8794 50.706 54.1855 51.0835 54.1855Z" fill="#FFE7DB"/>
</g>
</g>
<g id="Group_12">
<g id="Group_13">
<g id="Group_14">
<path id="Vector_28" d="M48.9326 52.0292C49.3102 52.0292 49.6162 51.7231 49.6162 51.3456C49.6162 50.968 49.3102 50.662 48.9326 50.662C48.5551 50.662 48.249 50.968 48.249 51.3456C48.249 51.7231 48.5551 52.0292 48.9326 52.0292Z" fill="#FFE7DB"/>
<path id="Vector_29" d="M48.9326 54.1855C49.3102 54.1855 49.6162 53.8794 49.6162 53.5019C49.6162 53.1244 49.3102 52.8183 48.9326 52.8183C48.5551 52.8183 48.249 53.1244 48.249 53.5019C48.249 53.8794 48.5551 54.1855 48.9326 54.1855Z" fill="#FFE7DB"/>
</g>
</g>
<g id="Group_15">
<g id="Group_16">
<path id="Vector_30" d="M53.2344 52.0292C53.6119 52.0292 53.918 51.7231 53.918 51.3456C53.918 50.968 53.6119 50.662 53.2344 50.662C52.8568 50.662 52.5508 50.968 52.5508 51.3456C52.5508 51.7231 52.8568 52.0292 53.2344 52.0292Z" fill="#FFE7DB"/>
<path id="Vector_31" d="M53.2344 54.1855C53.6119 54.1855 53.918 53.8794 53.918 53.5019C53.918 53.1244 53.6119 52.8183 53.2344 52.8183C52.8568 52.8183 52.5508 53.1244 52.5508 53.5019C52.5508 53.8794 52.8568 54.1855 53.2344 54.1855Z" fill="#FFE7DB"/>
</g>
</g>
</g>
</g>
<path id="Vector_32" d="M22.0586 34.032V31.6248C22.0586 31.2473 22.3647 30.9412 22.7422 30.9412H33.5642C33.9416 30.9412 34.2478 31.2473 34.2478 31.6248V34.032C34.2478 34.4095 33.9416 34.7156 33.5642 34.7156H22.7422C22.3646 34.7156 22.0586 34.4095 22.0586 34.032Z" fill="#FFE7DB"/>
<path id="Vector_33" d="M57.117 40.2459V49.6604H51.4814C50.7254 49.6604 50.1143 49.0479 50.1143 48.2932V41.6131C50.1143 40.8584 50.7254 40.2459 51.4814 40.2459H57.117Z" fill="#FF9C33"/>
<path id="Vector_34" d="M60.7709 46.3792H51.4814C50.7263 46.3792 50.1143 45.7671 50.1143 45.012V38.3325C50.1143 37.5774 50.7263 37.2388 51.4814 37.2388H60.7709C61.526 37.2388 62.1381 37.5774 62.1381 38.3325V45.012C62.1381 45.767 61.526 46.3792 60.7709 46.3792Z" fill="#FFC498"/>
<path id="Vector_35" d="M54.3145 43.723C55.4471 43.723 56.3652 42.8048 56.3652 41.6722C56.3652 40.5396 55.4471 39.6214 54.3145 39.6214C53.1818 39.6214 52.2637 40.5396 52.2637 41.6722C52.2637 42.8048 53.1818 43.723 54.3145 43.723Z" fill="#8282FF"/>
<path id="Vector_36" d="M53.9858 42.2998C54.514 42.2998 54.9423 41.8716 54.9423 41.3433C54.9423 40.8151 54.514 40.3868 53.9858 40.3868C53.4575 40.3868 53.0293 40.8151 53.0293 41.3433C53.0293 41.8716 53.4575 42.2998 53.9858 42.2998Z" fill="#B2B2FF"/>
</g>
<g id="Group_17">
<g id="Group_18">
<g id="Group_19">
<path id="Vector_37" d="M26.2905 63.2739C31.1985 63.2739 35.1772 59.2951 35.1772 54.3871C35.1772 49.4791 31.1985 45.5004 26.2905 45.5004C21.3825 45.5004 17.4038 49.4791 17.4038 54.3871C17.4038 59.2951 21.3825 63.2739 26.2905 63.2739Z" fill="#6C6CFF"/>
<path id="Vector_38" d="M17.896 51.4706C17.5785 52.3845 17.4038 53.3652 17.4038 54.3871C17.4038 58.3208 19.9607 61.6554 23.5024 62.8251C23.8199 61.9113 23.9946 60.9306 23.9946 59.9086C23.9946 55.9748 21.4377 52.6404 17.896 51.4706Z" fill="#4D4DFF"/>
<path id="Vector_39" d="M33.2437 48.8558C32.8248 48.33 32.3479 47.8531 31.8222 47.4344L27.296 51.9606V45.5587C26.9659 45.5215 26.6309 45.5006 26.2909 45.5006C25.9509 45.5006 25.6158 45.5215 25.2857 45.5587V51.9606L20.7595 47.4344C20.2337 47.8533 19.7568 48.3301 19.338 48.8558L23.8643 53.382H17.4624C17.4252 53.7122 17.4043 54.0472 17.4043 54.3872C17.4043 54.7272 17.4252 55.0623 17.4624 55.3923H23.8643L19.338 59.9186C19.757 60.4444 20.2338 60.9213 20.7595 61.34L25.2857 56.8138V63.2157C25.6158 63.2529 25.9509 63.2738 26.2909 63.2738C26.6309 63.2738 26.966 63.2529 27.296 63.2157V56.8138L31.8222 61.34C32.3481 60.9211 32.8249 60.4442 33.2438 59.9186L28.7176 55.3923H35.1195C35.1567 55.0623 35.1776 54.7272 35.1776 54.3872C35.1776 54.0472 35.1567 53.7121 35.1195 53.382H28.7176L33.2437 48.8558Z" fill="#B2B2FF"/>
<path id="Vector_40" d="M26.2906 61.0776C29.9856 61.0776 32.981 58.0822 32.981 54.3871C32.981 50.6921 29.9856 47.6967 26.2906 47.6967C22.5955 47.6967 19.6001 50.6921 19.6001 54.3871C19.6001 58.0822 22.5955 61.0776 26.2906 61.0776Z" fill="white"/>
<path id="Vector_41" d="M19.8935 52.4237C19.7032 53.0447 19.6001 53.7038 19.6001 54.3871C19.6001 57.2634 21.4154 59.7153 23.9628 60.6609C23.9838 60.413 23.9946 60.1621 23.9946 59.9086C23.9946 56.7634 22.3591 54.0025 19.8935 52.4237Z" fill="#D8D8FF"/>
<path id="Vector_42" d="M26.2905 59.2407C28.971 59.2407 31.144 57.0677 31.144 54.3871C31.144 51.7066 28.971 49.5336 26.2905 49.5336C23.61 49.5336 21.437 51.7066 21.437 54.3871C21.437 57.0677 23.61 59.2407 26.2905 59.2407Z" fill="#B2B2FF"/>
<path id="Vector_43" d="M26.2905 58.0102C28.2915 58.0102 29.9136 56.3881 29.9136 54.3871C29.9136 52.3862 28.2915 50.7641 26.2905 50.7641C24.2896 50.7641 22.6675 52.3862 22.6675 54.3871C22.6675 56.3881 24.2896 58.0102 26.2905 58.0102Z" fill="#6C6CFF"/>
</g>
</g>
<g id="Group_20">
<g id="Group_21">
<path id="Vector_44" d="M15.1079 65.5142C20.0159 65.5142 23.9946 61.5354 23.9946 56.6274C23.9946 51.7194 20.0159 47.7407 15.1079 47.7407C10.1999 47.7407 6.22119 51.7194 6.22119 56.6274C6.22119 61.5354 10.1999 65.5142 15.1079 65.5142Z" fill="#FF6C6C"/>
<path id="Vector_45" d="M22.0606 51.0961C21.6417 50.5702 21.1648 50.0934 20.6391 49.6746L16.1129 54.2008V47.7989C15.7828 47.7618 15.4478 47.7408 15.1078 47.7408C14.7678 47.7408 14.4327 47.7618 14.1026 47.7989V54.2008L9.57641 49.6746C9.05059 50.0935 8.57371 50.5704 8.15494 51.0961L12.6812 55.6223H6.2793C6.24211 55.9524 6.22119 56.2874 6.22119 56.6274C6.22119 56.9674 6.24211 57.3025 6.2793 57.6326H12.6812L8.15494 62.1587C8.57385 62.6845 9.05072 63.1614 9.57641 63.5801L14.1026 59.0539V65.4558C14.4327 65.493 14.7678 65.5139 15.1078 65.5139C15.4478 65.5139 15.7829 65.493 16.1129 65.4558V59.0539L20.6391 63.5801C21.165 63.1612 21.6418 62.6843 22.0607 62.1587L17.5345 57.6324H23.9364C23.9736 57.3024 23.9945 56.9673 23.9945 56.6273C23.9945 56.2873 23.9736 55.9522 23.9364 55.6221H17.5345L22.0606 51.0961Z" fill="#FFB2B2"/>
<path id="Vector_46" d="M15.1079 63.3179C18.803 63.3179 21.7984 60.3225 21.7984 56.6274C21.7984 52.9324 18.803 49.937 15.1079 49.937C11.4129 49.937 8.41748 52.9324 8.41748 56.6274C8.41748 60.3225 11.4129 63.3179 15.1079 63.3179Z" fill="white"/>
<path id="Vector_47" d="M15.1079 61.481C17.7884 61.481 19.9614 59.308 19.9614 56.6274C19.9614 53.9469 17.7884 51.7739 15.1079 51.7739C12.4274 51.7739 10.2544 53.9469 10.2544 56.6274C10.2544 59.308 12.4274 61.481 15.1079 61.481Z" fill="#FFB2B2"/>
<path id="Vector_48" d="M15.1079 60.2505C17.1089 60.2505 18.731 58.6284 18.731 56.6274C18.731 54.6265 17.1089 53.0044 15.1079 53.0044C13.107 53.0044 11.4849 54.6265 11.4849 56.6274C11.4849 58.6284 13.107 60.2505 15.1079 60.2505Z" fill="#FF6C6C"/>
<path id="Vector_49" d="M61.3551 36.6162V26.6561C61.3551 24.7714 59.8218 23.2381 57.9371 23.2381H57.6953V9.59151C57.6953 8.46071 56.7753 7.54073 55.6445 7.54073H46.3784V5.85321C46.3784 4.72241 45.4584 3.80243 44.3276 3.80243H19.7807C18.6499 3.80243 17.7299 4.72241 17.7299 5.85321V23.2381H17.4889C15.6042 23.2381 14.0709 24.7714 14.0709 26.6561V47.1142C9.28 47.633 5.5376 51.7009 5.5376 56.6274C5.5376 61.9045 9.83084 66.1977 15.1079 66.1977C17.9195 66.1977 20.4516 64.9786 22.2042 63.0416C23.4748 63.6416 24.8763 63.9572 26.2908 63.9572C31.5679 63.9572 35.8611 59.6639 35.8611 54.3869C35.8611 49.1098 31.5679 44.8166 26.2908 44.8166C23.5605 44.8166 21.0027 45.9605 19.1896 47.9735C18.0448 47.4313 16.7759 47.1112 15.4381 47.0656V26.6561C15.4381 25.5253 16.3581 24.6053 17.4889 24.6053H57.9371C59.0679 24.6053 59.9879 25.5253 59.9879 26.6561V36.555H51.4811C50.2545 36.555 49.4303 37.2694 49.4303 38.3324V45.0119C49.4303 46.1427 50.3503 47.0627 51.4811 47.0627H59.9879V56.6876C59.9879 57.8184 59.0679 58.7383 57.9371 58.7383H37.8641C37.4864 58.7383 37.1805 59.0443 37.1805 59.4219C37.1805 59.7996 37.4864 60.1055 37.8641 60.1055H57.9371C59.8218 60.1055 61.3551 58.5722 61.3551 56.6876V46.9767C62.2019 46.7243 62.8215 45.9397 62.8215 45.0119V38.3324C62.8214 37.4491 62.2511 36.8081 61.3551 36.6162ZM15.1079 64.8304C10.5847 64.8304 6.90479 61.1505 6.90479 56.6273C6.90479 52.1041 10.5847 48.4241 15.1079 48.4241C19.6311 48.4241 23.311 52.1041 23.311 56.6273C23.311 61.1505 19.6311 64.8304 15.1079 64.8304ZM26.2908 46.1836C30.814 46.1836 34.4939 49.8635 34.4939 54.3867C34.4939 58.9099 30.814 62.5899 26.2908 62.5899C25.1813 62.5899 24.0816 62.3637 23.0689 61.9318C24.0846 60.4125 24.6782 58.5881 24.6782 56.6274C24.6782 53.3123 22.9833 50.3862 20.4151 48.6682C21.9536 47.0817 24.0537 46.1836 26.2908 46.1836ZM19.0971 5.85321C19.0971 5.47628 19.4037 5.16962 19.7807 5.16962H44.3276C44.7045 5.16962 45.0112 5.47628 45.0112 5.85321V19.9046C45.0112 20.2822 45.3172 20.5882 45.6948 20.5882C46.0724 20.5882 46.3784 20.2822 46.3784 19.9046V8.90792H55.6445C56.0214 8.90792 56.3281 9.21458 56.3281 9.59151V23.238H19.0971V5.85321ZM61.4542 45.0119C61.4542 45.3889 61.1475 45.6955 60.7706 45.6955H51.4811C51.1042 45.6955 50.7975 45.3889 50.7975 45.0119V38.3324C50.7975 38.2309 50.7975 37.9222 51.4811 37.9222H60.7706C61.4542 37.9222 61.4542 38.2309 61.4542 38.3324V45.0119Z" fill="#0000CB"/>
</g>
</g>
</g>
</g>
<g id="Group_22">
<path id="Vector_50" d="M59.4268 7.39624C59.0491 7.39624 58.7432 7.09026 58.7432 6.71265C58.7432 6.29812 58.4057 5.96069 57.9912 5.96069C57.6136 5.96069 57.3076 5.65472 57.3076 5.2771C57.3076 4.89948 57.6136 4.59351 57.9912 4.59351C58.4057 4.59351 58.7432 4.25608 58.7432 3.84155C58.7432 3.46394 59.0491 3.15796 59.4268 3.15796C59.8044 3.15796 60.1104 3.46394 60.1104 3.84155C60.1104 4.25608 60.4478 4.59351 60.8623 4.59351C61.2399 4.59351 61.5459 4.89948 61.5459 5.2771C61.5459 5.65472 61.2399 5.96069 60.8623 5.96069C60.4478 5.96069 60.1104 6.29812 60.1104 6.71265C60.1104 7.09013 59.8044 7.39624 59.4268 7.39624Z" fill="#FF9C33"/>
</g>
<g id="Group_23">
<path id="Vector_51" d="M7.88965 36.3266C7.51203 36.3266 7.20605 36.0206 7.20605 35.643C7.20605 35.2285 6.86863 34.8911 6.4541 34.8911C6.07648 34.8911 5.77051 34.5851 5.77051 34.2075C5.77051 33.8298 6.07648 33.5239 6.4541 33.5239C6.86863 33.5239 7.20605 33.1864 7.20605 32.7719C7.20605 32.3943 7.51203 32.0883 7.88965 32.0883C8.26727 32.0883 8.57324 32.3943 8.57324 32.7719C8.57324 33.1864 8.91066 33.5239 9.3252 33.5239C9.70281 33.5239 10.0088 33.8298 10.0088 34.2075C10.0088 34.5851 9.70281 34.8911 9.3252 34.8911C8.91066 34.8911 8.57324 35.2285 8.57324 35.643C8.57324 36.0206 8.26727 36.3266 7.88965 36.3266Z" fill="#FF9C33"/>
</g>
<g id="Group_24">
<path id="Vector_52" d="M65.0088 50.9004C64.6312 50.9004 64.3252 50.5944 64.3252 50.2168C64.3252 49.8023 63.9878 49.4648 63.5732 49.4648C63.1956 49.4648 62.8896 49.1589 62.8896 48.7812C62.8896 48.4036 63.1956 48.0977 63.5732 48.0977C63.9878 48.0977 64.3252 47.7602 64.3252 47.3457C64.3252 46.9681 64.6312 46.6621 65.0088 46.6621C65.3864 46.6621 65.6924 46.9681 65.6924 47.3457C65.6924 47.7602 66.0298 48.0977 66.4443 48.0977C66.822 48.0977 67.1279 48.4036 67.1279 48.7812C67.1279 49.1589 66.822 49.4648 66.4443 49.4648C66.0298 49.4648 65.6924 49.8023 65.6924 50.2168C65.6924 50.5944 65.3864 50.9004 65.0088 50.9004Z" fill="#FF6C6C"/>
</g>
<g id="Group_25">
<path id="Vector_53" d="M8.46393 44.4018C8.32297 44.4018 8.18201 44.3583 8.06225 44.2712C7.82258 44.0973 7.72237 43.7887 7.81397 43.5069L8.01549 42.8866L7.48789 42.5032C7.24823 42.3291 7.14801 42.0205 7.23961 41.7389C7.33108 41.4571 7.59358 41.2665 7.88971 41.2665H8.542L8.74366 40.6464C8.83512 40.3646 9.09762 40.174 9.39375 40.174C9.68989 40.174 9.95239 40.3647 10.0439 40.6464L10.2455 41.2665H10.8978C11.1939 41.2665 11.4564 41.4573 11.5479 41.7389C11.6395 42.0205 11.5393 42.329 11.2997 42.5032L10.7722 42.8866L10.9737 43.5069C11.0653 43.7886 10.9651 44.097 10.7254 44.2712C10.4859 44.4452 10.1614 44.4452 9.9219 44.2712L9.39416 43.8878L8.8667 44.2712C8.74598 44.3582 8.60489 44.4018 8.46393 44.4018Z" fill="#FF6C6C"/>
</g>
<g id="Group_26">
<path id="Vector_54" d="M37.6366 66.4717C37.4957 66.4717 37.3547 66.4282 37.2348 66.3411C36.9953 66.1671 36.8951 65.8585 36.9867 65.5769L37.1882 64.9566L36.6606 64.5732C36.4211 64.3992 36.3209 64.0906 36.4125 63.809C36.5039 63.5272 36.7664 63.3366 37.0626 63.3366H37.7148L37.9165 62.7163C38.008 62.4345 38.2705 62.244 38.5666 62.244C38.8627 62.244 39.1252 62.4347 39.2167 62.7163L39.4184 63.3366H40.0706C40.3668 63.3366 40.6293 63.5273 40.7207 63.809C40.8123 64.0906 40.7121 64.3991 40.4725 64.5732L39.9449 64.9567L40.1464 65.5769C40.238 65.8585 40.1378 66.167 39.8981 66.3411C39.6586 66.5152 39.3343 66.5152 39.0945 66.3411L38.567 65.9578L38.0393 66.3411C37.9187 66.4282 37.7776 66.4717 37.6366 66.4717Z" fill="#6C6CFF"/>
</g>
</g>
</g>
</g>
<defs>
<linearGradient id="paint0_linear_975_138" x1="15.1881" y1="56.8125" x2="58.7246" y2="13.2761" gradientUnits="userSpaceOnUse">
<stop stop-color="#104CBA" stop-opacity="0"/>
<stop offset="0.2938" stop-color="#104CBA" stop-opacity="0.3"/>
<stop offset="0.7874" stop-color="#104CBA"/>
</linearGradient>
<clipPath id="clip0_975_138">
<rect width="70" height="70" fill="white"/>
</clipPath>
</defs>
</svg>
